<?xml version="1.0" encoding="UTF-8"?>
<svg width="161px" height="206px" viewBox="0 0 161 206" version="1.1" xmlns="http://www.w3.org/2000/svg" xmlns:xlink="http://www.w3.org/1999/xlink">
    <title>1A12DCB8-FEED-4A01-A6E7-652657BFA281</title>
    <g id="Page-1" stroke="none" stroke-width="1" fill="none" fill-rule="evenodd">
        <g id="Alt-Home" transform="translate(-633.000000, -3529.000000)" fill-rule="nonzero">
            <g id="Online-dating-60b6" transform="translate(633.380600, 3529.581623)">
                <path d="M31.0484776,104.267769 C29.6417875,117.960553 20.5872301,120.126826 9.01033182,126.90047 C-2.56656648,133.674114 -5.54163532,151.004297 12.7453367,157.43845 C31.0323088,163.872604 46.2957054,148.918855 68.3823578,157.43845 C90.4690101,165.958046 111.003453,170.985738 121.092817,142.597865 C131.18218,114.209991 139.78401,99.4502367 115.369043,93.7112304 C90.9540757,87.972224 86.2651085,74.4249358 66.0863807,70.4480468 C45.9076529,66.4711579 32.9078956,86.1616079 31.0484776,104.267769 Z" id="Path" fill="#D4313C"></path>
                <path d="M137.497985,116.549369 C139.116963,124.453347 138.420803,123.51394 142.35492,129.31235 C146.289037,135.110759 159.192295,152.975692 159.192295,152.975692 C159.192295,152.975692 150.57933,165.333756 122.522435,161.770487 C119.983016,157.713877 117.164586,153.838917 114.087558,150.173667 C111.124827,147.177283 111.869557,146.059712 109.068725,145.865352 C106.267892,145.670992 97.282562,138.949371 89.2362395,131.077787 C84.3988579,126.355498 80.5227133,120.739572 77.8224419,114.540982 C77.8224419,114.540982 68.3352287,103.948356 64.2877827,99.4618767 C60.2403368,94.9753976 59.7222637,92.7888464 61.3088625,89.7438714 C62.8954613,86.6988964 68.756163,89.2741678 72.8197988,93.8416303 C76.8834345,98.4090928 81.934647,103.284292 81.934647,103.284292 L82.986983,102.539245 C82.986983,102.539245 71.0874919,90.7480653 66.0362794,87.0066333 C60.9850668,83.2652012 57.4071246,79.5237692 59.7546433,75.7823372 C62.1021619,72.0409052 67.5419293,74.4704065 76.1387044,83.6377248 C84.7354796,92.8050431 88.4915094,95.4612979 88.4915094,95.4612979 L89.4305169,93.8416303 C89.4305169,93.8416303 72.2369666,78.4709853 65.9553305,72.8507389 C59.6736944,67.2304926 56.6623946,65.6432184 59.026103,61.270116 C61.3898114,56.8970136 69.3228055,63.667224 75.2158868,68.7529801 C81.1089681,73.8387361 95.0807514,87.0390266 95.0807514,87.0390266 L96.1492772,84.722902 C96.1492772,84.722902 68.7075937,59.8933986 63.1059285,55.4069195 C57.5042633,50.9204404 62.2316802,41.9312855 70.6179882,48.4909391 C79.0042962,55.0505926 96.1492772,69.0769136 102.625191,74.4866032 C109.101104,79.8962928 118.37785,85.5651292 125.614684,93.6796636 C132.851517,101.794198 137.497985,116.549369 137.497985,116.549369 Z" id="Path" fill="#D78A69"></path>
                <path d="M113.375521,114.454341 C113.426929,119.088761 115.707717,123.405273 119.483903,126.014774 C123.260088,128.624276 128.055122,129.197452 132.32591,127.54985 C137.247259,125.540143 139.356408,121.066924 138.717272,114.891938 C137.726611,105.41066 133.300593,91.6830661 132.565586,86.9343234 C131.830579,82.1855807 127.883913,77.4530454 124.192901,70.8404617 C120.50189,64.2278781 118.041215,60.59744 118.041215,60.59744 C118.041215,60.59744 114.094549,71.4563396 119.750905,79.4465449 L119.750905,92.6717122 C119.750905,92.6717122 113.263672,104.097868 113.375521,114.454341 Z" id="Path" fill="#EAA88E"></path>
                <rect id="Rectangle" fill="#FAFAFA" x="67.5558873" y="26.6580297" width="48.3636597" height="87.3939815" rx="2.41"></rect>
                <path d="M111.528942,24.1125739 L71.9464921,24.1125739 C69.0530225,24.1125739 66.707402,26.4770232 66.707402,29.3937193 L66.707402,111.332472 C66.707402,112.731634 67.2598818,114.073254 68.2428665,115.06109 C69.2258511,116.048926 70.5584789,116.601722 71.9464921,116.597442 L111.528942,116.597442 C112.916955,116.601722 114.249583,116.048926 115.232568,115.06109 C116.215552,114.073254 116.768032,112.731634 116.768032,111.332472 L116.768032,29.3937193 C116.768032,26.4770232 114.422412,24.1125739 111.528942,24.1125739 Z M114.485975,109.696289 C114.485975,112.380365 112.327428,114.556238 109.664726,114.556238 L73.7464248,114.556238 C71.0837228,114.556238 68.9251763,112.380365 68.9251763,109.696289 L68.9251763,31.7102953 C68.9251763,29.0262192 71.0837228,26.8503456 73.7464248,26.8503456 L78.1980443,26.8503456 L79.9336937,29.1831215 C80.8020568,30.360972 82.1741896,31.0525456 83.6299842,31.0461022 L100.536496,31.0461022 C101.996144,31.0499308 103.372056,30.3594544 104.248857,29.1831215 L106.04879,26.9151449 L109.809364,26.9151449 C112.472066,26.9151449 114.630612,29.0910185 114.630612,31.7750946 L114.485975,109.696289 Z" id="Shape" fill="#52AEDE"></path>
                <path d="M93.9609631,37.6935859 C99.3190866,37.543207 104.24479,40.6357763 106.460497,45.5413334 C109.416685,51.7097275 109.047161,55.3429439 112.645999,62.3510148 C114.485904,66.1160947 116.721107,69.6726431 119.313488,72.9600067 C116.970183,75.8177046 114.066057,78.1593715 110.782315,79.8388965 L108.934698,76.6093708 C108.876048,78.0315175 109.168586,79.44614 109.786208,80.7270161 C109.786208,80.7270161 106.942484,84.5862993 96.4351639,84.3440849 L86.9078843,84.3440849 C80.6694091,80.885831 76.4401655,74.6507179 75.5169209,67.5505512 C73.910297,55.6174536 77.9911217,38.2910482 93.9609631,37.6935859 Z" id="Path" fill="#0A0D16"></path>
                <path d="M94.7649983,44.4762201 C99.4808003,44.4762201 102.699778,47.6077532 103.06996,54.5232222 C103.440143,61.4386912 103.568902,67.342936 94.1533925,68.0931991 L94.1533925,71.7303444 C91.6604612,72.9126984 88.737311,72.6772072 86.4600362,71.1105618 L86.4600362,60.0523354 C84.5651242,59.5193008 83.3850309,57.6087384 83.7400002,55.6486169 C83.7400002,55.6486169 84.4803651,53.2673469 86.347372,54.3927417 C86.347372,54.3927417 85.8484305,44.4762201 94.7649983,44.4762201 Z" id="Path" fill="#EAA88E"></path>
                <path d="M76.8892251,85.2035124 L106.585831,85.2035124 C106.585831,85.2035124 106.841837,74.4414606 94.0255749,72.2318221 C94.0255749,72.2318221 91.3055194,73.4558664 86.3774188,71.6277483 C86.3774188,71.6277483 77.6412405,72.7246192 76.8892251,85.2035124 Z" id="Path" fill="#E2EAF2"></path>
                <circle id="Oval" fill="#52AEDE" cx="81.555894" cy="100.90049" r="6.36363943"></circle>
                <path d="M85.2446167,98.0852841 C85.1581638,97.9866282 85.0382848,97.9307913 84.9129281,97.9307913 C84.7875715,97.9307913 84.6676925,97.9866282 84.5812396,98.0852841 L80.3798518,102.634239 L77.6947544,99.6988755 C77.5073152,99.5112757 77.2188165,99.5112757 77.0313773,99.6988755 C76.9406019,99.7928336 76.8892251,99.9231196 76.8892251,100.059359 C76.8892251,100.195598 76.9406019,100.325884 77.0313773,100.419842 L80.0481633,103.715688 C80.1356488,103.812717 80.2548672,103.868246 80.3798518,103.870188 C80.5099664,103.870908 80.6349962,103.815319 80.727335,103.715688 L85.2446167,98.8062505 C85.4172314,98.6025393 85.4172314,98.2889953 85.2446167,98.0852841 L85.2446167,98.0852841 Z" id="Path" fill="#FAFAFA"></path>
                <circle id="Oval" fill="#52AEDE" cx="102.768025" cy="100.90049" r="6.36363943"></circle>
                <path d="M103.442027,100.907504 L105.55157,98.7979619 C105.697234,98.6887138 105.765799,98.5045453 105.727041,98.3266378 C105.688284,98.1487303 105.549325,98.0097713 105.371417,97.9710138 C105.19351,97.9322564 105.009341,98.0008215 104.900093,98.1464857 L102.77504,100.256028 L100.603452,98.068929 C100.419269,97.8847454 100.120648,97.8847454 99.9364647,98.068929 C99.7522812,98.2531125 99.7522812,98.551733 99.9364647,98.7359165 L102.123564,100.907504 L99.9985101,103.032558 C99.8528459,103.141806 99.7842808,103.325974 99.8230383,103.503882 C99.8617957,103.681789 100.000755,103.820748 100.178662,103.859506 C100.35657,103.898263 100.540738,103.829698 100.649986,103.684034 L102.77504,101.55898 L104.853559,103.621988 C104.935855,103.745668 105.077511,103.816496 105.225831,103.808125 C105.482832,103.808125 105.691172,103.599785 105.691172,103.342784 C105.691172,103.219677 105.640717,103.101948 105.55157,103.017046 L103.442027,100.907504 Z" id="Path" fill="#FAFAFA"></path>
                <path d="M61.9568052,95.330384 C64.8675014,97.8693932 70.3566947,100.173309 72.6662688,97.7596829 C74.975843,95.3460569 72.0651468,91.4905244 68.7747946,89.2963189 C65.4844424,87.1021134 63.2856013,87.3685526 61.4664162,89.2963189 C59.6472311,91.2240851 61.9568052,95.330384 61.9568052,95.330384 Z" id="Path" fill="#EAA88E"></path>
                <path d="M58.6601603,82.2837126 C60.7115535,84.5854859 63.4522148,87.7024705 66.3569876,86.7114292 C69.2617604,85.720388 72.1829443,82.891125 70.4105406,78.958929 C68.6381369,75.026733 63.5670929,71.3662741 60.8264315,74.5152278 C58.4960489,77.2325991 57.609847,81.1008569 58.6601603,82.2837126 Z" id="Path" fill="#EAA88E"></path>
                <path d="M77.7472172,199.227273 L74.5295183,183.664793 C74.5295183,183.664793 78.487288,183.211831 85.5662255,172.745173 C92.6451631,162.278515 108.28318,140.989301 108.28318,140.989301 C104.172437,139.097662 99.4239869,139.217028 95.4123841,141.312845 C88.4621545,144.839478 82.9920664,153.332516 82.9920664,153.332516 C82.9920664,153.332516 83.6999602,135.683175 84.7618008,121.625175 C85.8236414,107.567176 86.1936768,99.7697584 81.1258011,98.8153027 C76.0579253,97.8608471 74.2881909,116.141099 73.4355007,121.625175 C72.5828105,127.109251 70.2178018,137.349428 70.2178018,137.349428 C70.2178018,137.349428 68.6089524,138.643605 68.6089524,136.071428 C68.6089524,133.499251 70.5878372,125.070922 67.4988463,122.611985 C64.4098553,120.153049 59.9855194,121.511935 59.3580681,126.801884 C58.7306168,132.091833 58.1996965,134.696364 57.9583691,136.071428 C57.7170417,137.446491 56.4943161,137.446491 56.6391125,134.971377 C56.783909,132.496263 58.0066346,126.88277 56.6391125,123.857631 C55.2715905,120.832492 49.367113,120.622188 48.4018034,126.316567 C48.007499,129.362688 47.432653,132.382416 46.6803345,135.35963 C46.1815911,136.81558 45.2484585,136.880288 45.5541399,134.518415 C45.8598213,132.156542 47.3399627,128.047529 43.768317,127.57839 C40.1966712,127.109251 39.5692199,129.196112 37.8960165,135.893478 C36.2228131,142.590845 35.177061,146.635149 34.1313088,153.106035 C33.0855567,159.57692 38.07299,174.136413 37.912105,178.601325 C37.7512201,183.066236 33.616477,199.049324 33.616477,199.049324 C33.616477,199.049324 53.0835553,211.958741 77.7472172,199.227273 Z" id="Path" fill="#EAA88E"></path>
                <path d="M45.3328271,51.2921524 L10.8111279,57.0043727 C10.2488205,57.0943766 9.74584254,57.4024603 9.41333996,57.8605449 C9.08083739,58.3186295 8.94618298,58.8890038 9.03913211,59.4456289 L12.6475598,80.8106092 C12.844637,81.9641731 13.9471235,82.7421385 15.1122448,82.5498047 L41.7566175,78.161926 L45.300609,82.4540692 C45.432248,82.6085924 45.6362111,82.6831875 45.8376466,82.6504792 C46.0390821,82.6177709 46.2083234,82.4825763 46.2832612,82.29451 L48.2646746,77.0928792 L49.6339441,76.8535404 C50.1962514,76.7635365 50.6992294,76.4554528 51.031732,75.9973682 C51.3642345,75.5392836 51.498889,74.9689093 51.4059398,74.4122842 L47.7975121,53.0632599 C47.7104656,52.5033743 47.4010324,52.0012003 46.9381064,51.6685446 C46.4751804,51.3358888 45.8971918,51.200367 45.3328271,51.2921524 L45.3328271,51.2921524 Z" id="Path" fill="#E2EAF2"></path>
                <path d="M39.4894002,62.4086892 C39.7064377,63.7618494 39.3873427,65.1465632 38.6004183,66.2664299 C38.4818743,66.4418237 38.349136,66.6071077 38.2035513,66.7606032 L31.4885629,74.1732041 L22.725741,69.390881 L22.2018767,69.0561183 C21.0964298,68.2519975 20.349641,67.0441233 20.122294,65.6925511 C19.7700827,63.7252863 20.5762531,61.7300333 22.1939083,60.5653538 C23.8115635,59.4006743 25.9521291,59.2743361 27.694515,60.2407027 L29.2819827,61.133403 L30.5202076,59.7624704 C31.8481855,58.2844284 33.9020712,57.7011881 35.8042017,58.2619787 C37.7063322,58.8227692 39.1202555,60.4283971 39.4417762,62.3927481 L39.4894002,62.4086892 Z" id="Path" fill="#52AEDE"></path>
                <path d="M119.483881,0.432624054 L146.950872,9.64247248 C147.877521,9.9626971 148.376113,10.9565667 148.073634,11.8805301 L143.419867,25.4698868 C143.096645,26.3865801 142.087841,26.8749159 141.158071,26.5647639 L120.004582,19.464164 L116.538664,22.5072782 C116.410106,22.6213937 116.228817,22.6569002 116.06602,22.5998481 C115.903223,22.542796 115.784929,22.4023006 115.757612,22.233559 L114.830113,17.7252416 L113.739895,17.3549155 C113.292974,17.2079498 112.923473,16.8911362 112.712856,16.4743229 C112.502238,16.0575095 112.4678,15.5749228 112.617133,15.132959 L117.2709,1.54360227 C117.58732,0.645288814 118.564399,0.15476784 119.483881,0.432624054 Z" id="Path" fill="#52AEDE"></path>
                <path d="M133.136932,11.3431287 L120.94058,6.9665723 C120.65052,6.86518189 120.411335,6.64407148 120.277185,6.35330993 C120.143035,6.06254838 120.12527,5.72673249 120.227911,5.42190532 C120.320025,5.11578212 120.525573,4.86246016 120.797393,4.72006293 C121.069214,4.5776657 121.383971,4.55841752 121.669445,4.66673479 L133.881995,9.04329124 C134.439615,9.29191023 134.720103,9.95581775 134.523678,10.5621368 C134.327253,11.1684558 133.721088,11.5098378 133.136932,11.3431287 Z" id="Path" fill="#FAFAFA"></path>
                <path d="M141.19725,18.1346586 L119.848068,11.1428009 C119.650909,11.0814497 119.487635,10.9463227 119.394976,10.7678176 C119.302316,10.5893125 119.288053,10.3824194 119.355394,10.19368 C119.418582,10.003981 119.559752,9.84753282 119.745969,9.76083685 C119.932187,9.67414088 120.147163,9.66477999 120.340741,9.73493818 L141.689923,16.7109772 C141.953946,16.7957493 142.150962,17.009758 142.206756,17.2723883 C142.262551,17.5350186 142.168648,17.8063707 141.96042,17.984229 C141.752191,18.1620872 141.461273,18.2194307 141.19725,18.1346586 L141.19725,18.1346586 Z" id="Path" fill="#FAFAFA"></path>
                <path d="M158.542713,37.688338 L127.295396,37.688338 C126.891775,37.688338 126.504917,37.846899 126.221044,38.1287453 C125.937171,38.4105915 125.779875,38.7922754 125.784215,39.1887288 L125.784215,49.1966544 L120.161973,53.8095579 L158.510215,53.8095579 C159.347486,53.8095579 160.028737,53.1475316 160.037644,52.3251288 L160.037644,39.2844984 C160.064337,38.8757426 159.919748,38.4740364 159.63743,38.1726021 C159.355113,37.8711678 158.959613,37.6962127 158.542713,37.688338 L158.542713,37.688338 Z" id="Path" fill="#52AEDE"></path>
                <circle id="Oval" fill="#FAFAFA" cx="133.737737" cy="46.1731906" r="5.09091154"></circle>
                <path d="M130.343796,47.0640564 C130.921338,48.5654034 132.449371,49.5671316 134.16198,49.5671316 C135.874589,49.5671316 137.402622,48.5654034 137.980164,47.0640564 C137.063911,45.9666301 135.654772,45.3247053 134.16198,45.3247053 C132.669188,45.3247053 131.260049,45.9666301 130.343796,47.0640564 L130.343796,47.0640564 Z" id="Path" fill="#52AEDE"></path>
                <circle id="Oval" fill="#52AEDE" cx="134.16198" cy="43.2034922" r="1.27272789"></circle>
                <path d="M155.552586,44.4761203 L143.316843,44.4761203 C142.712504,44.4761203 142.22259,44.0933857 142.22259,43.6212586 C142.22259,43.395708 142.338369,43.1795785 142.544072,43.0213123 C142.749776,42.863046 143.028165,42.7758793 143.316843,42.7793493 L155.552586,42.7793493 C156.156925,42.7793493 156.646839,43.162084 156.646839,43.634211 C156.646839,43.8597616 156.53106,44.0758911 156.325357,44.2341574 C156.119654,44.3924237 155.841265,44.4795903 155.552586,44.4761203 L155.552586,44.4761203 Z" id="Path" fill="#FAFAFA"></path>
                <path d="M148.307276,49.5459301 L143.029616,49.3762331 C142.756717,49.4203963 142.484849,49.2901393 142.334987,49.0434239 C142.185124,48.7967085 142.185124,48.4793933 142.334987,48.2326779 C142.484849,47.9859625 142.756717,47.8557054 143.029616,47.8998687 L148.32322,48.0016869 C148.507854,48.0016338 148.684704,48.0808375 148.81375,48.2213747 C148.942797,48.361912 149.013131,48.5519029 149.008838,48.748354 C149.02211,48.9550453 148.954098,49.1583144 148.821064,49.3095555 C148.688029,49.4607966 148.501934,49.5464123 148.307276,49.5459301 L148.307276,49.5459301 Z" id="Path" fill="#FAFAFA"></path>
            </g>
        </g>
    </g>
</svg>