<?xml version="1.0" encoding="UTF-8"?>
<svg width="196px" height="174px" viewBox="0 0 196 174" version="1.1" xmlns="http://www.w3.org/2000/svg" xmlns:xlink="http://www.w3.org/1999/xlink">
    <title>0E11C9F0-2DD4-4779-AAA7-826C8CFA677D</title>
    <g id="Page-1" stroke="none" stroke-width="1" fill="none" fill-rule="evenodd">
        <g id="Alt-Home" transform="translate(-356.000000, -3148.000000)" fill-rule="nonzero">
            <g id="Appreciation-60b6" transform="translate(356.971477, 3148.408937)">
                <path d="M106.524885,83.4442452 L102.159868,80.9579486 C96.4716844,77.6830547 94.5074578,70.4320906 97.7668706,64.7411494 L117.465408,30.4637805 C120.740493,24.7781506 128.00927,22.8154217 133.708308,26.0778417 L138.073325,28.5781062 L136.072692,32.0700957 L131.707675,29.5698312 C127.94344,27.4200963 123.146808,28.7125439 120.977009,32.4611985 L101.278471,66.7385674 C100.236668,68.5420212 99.9565181,70.6852549 100.499852,72.6952423 C101.043186,74.7052297 102.365335,76.4167256 104.174492,77.4519912 L108.539508,79.9522557 L106.524885,83.4442452 Z" id="Path" fill="#E2EAF2"></path>
                <path d="M157.172687,112.884261 L152.809127,110.424956 L154.823078,106.917653 L159.186637,109.43285 C162.953271,111.581069 167.749432,110.281573 169.91372,106.5264 L189.619665,72.2358693 C191.769798,68.4725875 190.469144,63.6806939 186.710626,61.518332 L182.347067,59.0171075 L184.361017,55.5237772 L188.724576,58.0250016 C194.410861,61.3011531 196.374432,68.5549012 193.116107,74.2480276 L173.410162,108.538558 C170.116751,114.204559 162.859921,116.146734 157.172687,112.884261 L157.172687,112.884261 Z" id="Path" fill="#E2EAF2"></path>
                <path d="M116.026269,49.6265467 L174.796485,49.6265467 C176.149582,49.6265467 177.246485,50.7234491 177.246485,52.0765467 L177.246485,86.4218527 C177.246485,87.7749503 176.149582,88.8718527 174.796485,88.8718527 L116.026269,88.8718527 C114.673171,88.8718527 113.576269,87.7749503 113.576269,86.4218527 L113.576269,52.0765467 C113.576269,50.7234491 114.673171,49.6265467 116.026269,49.6265467 Z" id="Rectangle" fill="#E2EAF2" transform="translate(145.411377, 69.249200) rotate(29.860000) translate(-145.411377, -69.249200) "></path>
                <path d="M119.459679,69.1636878 L157.82201,91.1999307 C158.376806,85.5262612 158.376806,79.8123764 157.82201,74.138707 C156.890132,65.2145907 156.607744,62.6989737 149.759849,65.0037848 C145.903401,66.2620186 142.162232,67.8465038 138.577308,69.7398906 C138.073591,67.487391 137.417908,65.2712482 136.614715,63.1065318 C135.400449,60.1271418 119.459679,69.1636878 119.459679,69.1636878 Z" id="Path" fill="#FAFAFA"></path>
                <circle id="Oval" fill="#FAFAFA" cx="139.236678" cy="55.9115614" r="4.26562706"></circle>
                <path d="M41.1272553,60.3718849 L37.3732999,61.4024218 C32.4875057,62.750687 27.458109,59.7929619 26.1390363,54.7956922 L18.1756823,24.6277839 C16.8657187,19.6313378 19.7541784,14.4924949 24.6346939,13.1365919 L28.3886493,12.091938 L29.1891251,15.1694317 L25.448971,16.1999686 C22.2224296,17.0946419 20.3140262,20.4933546 21.1843672,23.7948842 L29.1339198,53.9204417 C30.0089913,57.2213596 33.3281962,59.1776529 36.5590228,58.2966942 L40.3129782,57.2520404 L41.1272553,60.3718849 Z" id="Path" fill="#E2EAF2"></path>
                <path d="M85.5337955,48.2877527 L81.7919818,49.3192287 L80.9773434,46.2389304 L84.7191571,45.2074543 C86.2719456,44.780437 87.5953231,43.7395619 88.3980682,42.3138831 C89.2008134,40.8882042 89.4171462,39.1945474 88.9994606,37.6056171 L81.0325731,7.45260499 C80.1575154,4.14926471 76.8333193,2.195437 73.6041754,3.08649405 L69.8623617,4.1179701 L69.0477233,1.05180157 L72.789537,0.0061957115 C77.6798443,-1.33563071 82.7100982,1.6203498 84.042593,6.61894627 L91.995673,36.7719584 C93.3150278,41.7775287 90.4233652,46.9307975 85.5337955,48.2877527 Z" id="Path" fill="#E2EAF2"></path>
                <path d="M32.0423948,15.4742622 L77.9495707,15.4742622 C79.0099575,15.4742622 79.8695707,16.3338755 79.8695707,17.3942622 L79.8695707,44.2186009 C79.8695707,45.2789876 79.0099575,46.1386009 77.9495707,46.1386009 L32.0423948,46.1386009 C30.9820081,46.1386009 30.1223948,45.2789876 30.1223948,44.2186009 L30.1223948,17.3942622 C30.1223948,16.3338755 30.9820081,15.4742622 32.0423948,15.4742622 Z" id="Rectangle" fill="#E2EAF2" transform="translate(54.995983, 30.806432) rotate(-15.120000) translate(-54.995983, -30.806432) "></path>
                <path d="M41.1272553,45.4413859 L74.4767032,36.4216131 C71.6508806,32.9365372 68.4938976,29.7392283 65.0509404,26.8754497 C59.598369,22.3940169 58.0062746,21.1847413 55.5406415,26.2494718 C54.1116092,29.0957121 52.9284151,32.0611326 52.0042193,35.1127502 C50.4784129,34.1346627 48.887188,33.2647375 47.2420252,32.5092511 C44.9454642,31.4849235 41.1272553,45.4413859 41.1272553,45.4413859 Z" id="Path" fill="#FAFAFA"></path>
                <circle id="Oval" fill="#FAFAFA" cx="43.8417453" cy="26.4399563" r="3.4900585"></circle>
                <rect id="Rectangle" fill="#E2EAF2" x="13.2067873" y="87.3220879" width="10.0823912" height="24.8181938" rx="1.44"></rect>
                <path d="M8.41223886,107.48687 L15.6746301,107.48687 C16.4533516,107.48687 17.0846301,108.118149 17.0846301,108.89687 L17.0846301,129.343927 C17.0846301,130.122649 16.4533516,130.753927 15.6746301,130.753927 L8.41223886,130.753927 C7.63351736,130.753927 7.00223886,130.122649 7.00223886,129.343927 L7.00223886,108.89687 C7.00223886,108.118149 7.63351736,107.48687 8.41223886,107.48687 Z" id="Rectangle" fill="#E2EAF2" transform="translate(12.043434, 119.120399) rotate(-90.000000) translate(-12.043434, -119.120399) "></path>
                <path d="M23.92361,112.140282 L31.1860012,112.140282 C31.9647227,112.140282 32.5960012,112.77156 32.5960012,113.550282 L32.5960012,150.284278 C32.5960012,151.063 31.9647227,151.694278 31.1860012,151.694278 L23.92361,151.694278 C23.1448885,151.694278 22.51361,151.063 22.51361,150.284278 L22.51361,113.550282 C22.51361,112.77156 23.1448885,112.140282 23.92361,112.140282 Z" id="Rectangle" fill="#E2EAF2" transform="translate(27.554806, 131.917280) rotate(-90.000000) translate(-27.554806, -131.917280) "></path>
                <rect id="Rectangle" fill="#E2EAF2" x="0.0221218564" y="97.4044792" width="10.0823912" height="13.960234" rx="1.44"></rect>
                <rect id="Rectangle" fill="#E2EAF2" x="32.5960012" y="140.06075" width="10.0823912" height="13.960234" rx="1.44"></rect>
                <path d="M139.392149,173.410198 L32.0527458,173.410198 C31.4961081,173.410198 31.0448641,172.889347 31.0448641,172.246845 C31.0448641,171.604343 31.4961081,171.083492 32.0527458,171.083492 L139.392149,171.083492 C139.948786,171.083492 140.40003,171.604343 140.40003,172.246845 C140.40003,172.889347 139.948786,173.410198 139.392149,173.410198 Z" id="Path" fill="#E2EAF2"></path>
                <path d="M27.9425899,52.414447 L27.9425899,52.414447 C27.9201576,53.0469068 27.5207912,53.603685 26.9303675,53.8256407 C23.7682849,55.0317683 21.2713217,57.5381969 20.0697489,60.7122661 C19.8425037,61.3001985 19.2914311,61.6984749 18.6638845,61.7283256 L18.6638845,61.7283256 C18.0350855,61.7020951 17.4822422,61.302539 17.25802,60.7122661 C16.0470683,57.5245673 13.526607,55.0151208 10.3411669,53.8256407 C9.75074318,53.603685 9.35137676,53.0469068 9.32894452,52.414447 L9.32894452,52.414447 C9.35137676,51.7819871 9.75074318,51.2252089 10.3411669,51.0032532 C13.496043,49.7984698 15.9874932,47.2975752 17.1877268,44.1307397 C17.411949,43.5404669 17.9647923,43.1409108 18.5935913,43.1146803 L18.5935913,43.1146803 C19.2211378,43.144531 19.7722105,43.5428074 19.9994557,44.1307397 C21.2215704,47.3129164 23.7454816,49.8155617 26.9303675,51.0032532 C27.5207912,51.2252089 27.9201576,51.7819871 27.9425899,52.414447 Z" id="Path" fill="#D4313C"></path>
                <path d="M34.1471383,77.2327096 L34.1471383,77.2327096 C34.1406122,77.7156706 33.8422853,78.1465871 33.3925311,78.3226978 C31.0233753,79.2249728 29.1522974,81.0960507 28.2500224,83.4652065 C28.0739117,83.9149607 27.6429952,84.2132876 27.1600342,84.2198137 L27.1600342,84.2198137 C26.6758439,84.2171583 26.2429664,83.9174739 26.070046,83.4652065 C25.1791247,81.0921213 23.3187471,79.2114118 20.9554858,78.2947494 C20.497719,78.1263848 20.1917632,77.6924839 20.1869043,77.2047612 L20.1869043,77.2047612 C20.1974932,76.7221797 20.502424,76.2952766 20.9554858,76.1287472 C23.3035692,75.2262352 25.1611131,73.3737666 26.070046,71.0281612 C26.2365754,70.5750994 26.6634785,70.2701686 27.14606,70.2595797 L27.14606,70.2595797 C27.6337827,70.2644386 28.0676836,70.5703944 28.2360482,71.0281612 C29.1431624,73.3910223 31.0132361,75.2560143 33.3785569,76.1566956 C33.8316186,76.323225 34.1365494,76.7501281 34.1471383,77.2327096 Z" id="Path" fill="#D4313C"></path>
                <path d="M45.0050981,61.721394 L45.0050981,61.721394 C44.9986238,62.2005181 44.702667,62.6280113 44.2564857,62.802723 C41.8854701,63.7076188 40.0106533,65.5773958 39.0993784,67.9459671 C38.9323514,68.4000972 38.5018976,68.7036223 38.0180495,68.7084426 L38.0180495,68.7084426 C37.5342014,68.7036223 37.1037476,68.4000972 36.9367205,67.9459671 C36.0376934,65.5791165 34.1717551,63.708135 31.8073396,62.802723 C31.3532095,62.6356959 31.0496844,62.2052421 31.0448641,61.721394 L31.0448641,61.721394 C31.0496844,61.2375459 31.3532095,60.8070921 31.8073396,60.6400651 C34.1737323,59.7376982 36.040744,57.8656405 36.9367205,55.4968209 C37.1114321,55.0506397 37.5389253,54.7546829 38.0180495,54.7482086 L38.0180495,54.7482086 C38.4971736,54.7546829 38.9246668,55.0506397 39.0993784,55.4968209 C40.0061168,57.8683417 41.8825328,59.7397136 44.2564857,60.6400651 C44.702667,60.8147767 44.9986238,61.2422699 45.0050981,61.721394 Z" id="Path" fill="#D4313C"></path>
                <path d="M102.854929,68.7084426 L66.0949796,68.7084426 C45.4500636,68.7165219 28.7181584,85.4956688 28.7181584,106.191112 L28.7181584,106.191112 C28.7258958,126.881066 45.455537,143.651651 66.0949796,143.659407 L97.1348453,143.659407 C97.5974991,144.601033 98.1022124,145.528605 98.6349653,146.399961 C100.24702,149.007187 102.335068,151.286297 104.789663,153.117833 C107.029999,154.812501 109.606833,156.005826 112.346342,156.617309 C113.582043,156.89335 114.839088,157.06262 116.103652,157.123258 C117.323376,157.123258 118.52908,157.038933 119.664685,156.982717 C119.81092,156.978054 119.94839,156.911703 120.04322,156.800013 C120.244449,156.592696 120.244449,156.262462 120.04322,156.055144 L120.04322,156.055144 C119.173991,155.310276 118.304763,154.649732 117.575732,153.890809 C116.863554,153.153932 116.224951,152.349017 115.669038,151.487554 C114.651727,149.993424 114.020628,148.269351 113.832442,146.470232 C113.669617,144.962668 113.812684,143.437665 114.253037,141.986966 C129.811147,137.064678 140.392095,122.601835 140.40003,106.247328 L140.40003,106.247328 C140.415,96.2698089 136.461043,86.6980478 129.413884,79.6521071 C122.366725,72.6061665 112.808016,68.6675985 102.854929,68.7084426 L102.854929,68.7084426 Z" id="Path" fill="#52AEDE"></path>
                <path d="M113.255131,102.13801 C113.253386,106.055154 111.697109,109.812954 108.925248,112.592981 C108.479982,113.016081 108.010603,113.413291 107.519442,113.782637 L85.0124875,131.529496 L62.4211842,113.810629 C61.9432102,113.432738 61.4792942,113.026856 61.0153782,112.620973 C55.4220919,107.073931 55.156479,98.1426402 60.4103226,92.2758527 C65.6641663,86.4090653 74.6066809,85.6511567 80.7810112,90.5493672 L84.9984294,93.8244185 L89.2158475,90.5493672 C93.6854029,87.0672654 99.7557943,86.4209968 104.863851,88.8834429 C109.971907,91.345889 113.227169,96.4877854 113.255131,102.13801 L113.255131,102.13801 Z" id="Path" fill="#FAFAFA"></path>
            </g>
        </g>
    </g>
</svg>