<?xml version="1.0" encoding="UTF-8"?>
<svg width="121px" height="183px" viewBox="0 0 121 183" version="1.1" xmlns="http://www.w3.org/2000/svg" xmlns:xlink="http://www.w3.org/1999/xlink">
    <title>A2C1DCCD-DA7C-48C5-BABC-2E0F9A78AE74</title>
    <g id="Page-1" stroke="none" stroke-width="1" fill="none" fill-rule="evenodd">
        <g id="Alt-Home" transform="translate(-644.000000, -3527.000000)" fill-rule="nonzero">
            <g id="Space-rocket-60b6" transform="translate(644.579924, 3527.000000)">
                <path d="M105.448316,51.6167712 L84.2526957,51.6167712 C83.7799527,51.6167712 83.3967187,52.0000052 83.3967187,52.4727482 L83.3967187,60.7879533 C83.3966607,61.2629438 83.7777632,61.6500955 84.2526957,61.6575172 L84.9184556,61.6575172 C84.9529894,61.9145141 84.9529894,62.1749757 84.9184556,62.4319726 C84.8682024,62.8651917 84.7144151,63.2799513 84.4700867,63.6412099 C84.3440754,63.8524645 84.1885172,64.0446246 84.0081308,64.2118613 C83.8230448,64.3988581 83.6280159,64.5757448 83.4238926,64.7417518 L83.4238926,64.7417518 C83.3804025,64.7925974 83.3804025,64.8675364 83.4238926,64.9183819 C83.4547496,64.9287383 83.4881441,64.9287383 83.5190011,64.9183819 C83.7907399,64.9183819 84.0896525,64.9183819 84.3749781,64.9183819 C84.6814182,64.904392 84.9860338,64.8634735 85.2853029,64.7960995 C85.9447816,64.6467807 86.5652347,64.3597054 87.1059523,63.9537095 C87.6691265,63.5363712 88.1524061,63.020873 88.5325807,62.4319726 C88.6322182,62.2870453 88.7273267,62.124002 88.8179063,61.9428429 C88.8576226,61.8451791 88.9029891,61.7499095 88.9537757,61.6575172 L105.393969,61.6575172 C105.868901,61.6500955 106.249947,61.2629438 106.249947,60.7879533 L106.249947,52.4727482 C106.250858,52.0204409 105.899712,51.6454883 105.448316,51.6167712 L105.448316,51.6167712 Z" id="Path" fill="#52AEDE"></path>
                <path d="M86.4130186,55.08144 L96.4265907,55.08144 C96.6608169,55.08144 96.8854497,54.988394 97.0510726,54.8227711 C97.2166956,54.6571482 97.3097415,54.4325153 97.3097415,54.1982892 C97.3097415,53.7082924 96.9165312,53.3089755 96.4265907,53.3015514 L86.4130186,53.3015514 C85.9208165,53.3088444 85.5235739,53.7060871 85.5162808,54.1982892 C85.523705,54.6882297 85.9230218,55.0814963 86.4130186,55.08144 Z" id="Path" fill="#FAFAFA"></path>
                <path d="M86.114106,58.7770867 L103.478211,58.7770867 C103.770319,58.7326703 103.986167,58.4815209 103.986167,58.186055 C103.986167,57.890589 103.770319,57.6394397 103.478211,57.5950232 L86.114106,57.5950232 C85.88156,57.5596635 85.6498914,57.663955 85.5221887,57.8614897 C85.394486,58.0590244 85.394486,58.3130855 85.5221887,58.5106202 C85.6498914,58.708155 85.88156,58.8124464 86.114106,58.7770867 L86.114106,58.7770867 Z" id="Path" fill="#FAFAFA"></path>
                <path d="M120,176.752455 C120.006261,178.86421 119.60968,180.957788 118.831449,182.920924 L1.4946663,182.920924 C0.504507183,181.016061 -0.00836980908,178.899278 0,176.752455 C0,169.248597 6.08318192,163.165519 13.5870397,163.165519 C13.8995392,163.165519 14.2256257,163.165519 14.5381252,163.165519 C17.7344863,157.128068 24.0110963,153.356872 30.8424489,153.369338 L31.2636439,153.369338 C31.2586086,150.33878 33.0339068,147.587854 35.7974313,146.343975 C38.5609558,145.100095 41.7973292,145.595237 44.0625379,147.608477 C49.7282904,127.323181 54.3206749,82.0786826 56.1956721,78.8993395 C56.8121422,78.1353408 57.7411451,77.6912341 58.7228423,77.6912341 C59.7045395,77.6912341 60.6335423,78.1353408 61.2500124,78.8993395 C63.1250097,82.0786826 67.7309811,127.513398 73.4782552,147.730759 L73.8315155,147.730759 C76.8453854,147.723397 79.5837014,149.483363 80.8287877,152.228035 C84.0442816,150.564596 87.8722025,150.588955 91.0662669,152.293179 C94.2603313,153.997404 96.4119525,157.16349 96.8206118,160.760631 C102.068475,158.753692 107.967728,159.45625 112.597473,162.639539 C117.227218,165.822828 119.995129,171.079581 120,176.698107 L120,176.752455 Z" id="Path" fill="#52AEDE"></path>
                <path d="M90.9782292,164.2253 C89.7715356,164.957327 88.7229969,165.922722 87.8939946,167.06497 C87.6296468,164.648248 86.4179309,162.434913 84.5244344,160.910087 C83.3195459,159.911275 81.8867941,159.225234 80.353245,158.912808 C78.8075437,158.613013 77.2138966,158.668767 75.6929258,159.075851 C72.6216028,159.94206 70.1635507,162.248068 69.1032617,165.257907 C68.6015724,166.710235 68.4525434,168.261068 68.6684797,169.782357 C68.8973644,171.262945 69.4902822,172.663538 70.3940206,173.858438 C69.1665473,171.291726 69.1071131,168.320014 70.2309774,165.706276 C71.3226161,163.19775 73.4830581,161.312042 76.1161235,160.569518 C78.7491889,159.826993 81.5765224,160.306149 83.8179137,161.87476 C85.7208973,163.212969 87.0804673,165.189649 87.6494298,167.445404 C87.6100903,167.497614 87.5737981,167.552053 87.5407343,167.608447 C86.6607239,168.980868 86.1118547,170.539099 85.9374758,172.160071 C85.7479663,173.746251 85.9823786,175.354319 86.6168226,176.82039 C86.6009248,175.319886 86.7697663,173.823129 87.1195393,172.363875 C87.4832002,170.971898 88.0656358,169.646513 88.8450802,168.43725 C90.4620938,165.965011 92.7870246,164.037828 95.5162659,162.907367 C93.9130599,162.933701 92.3461373,163.388765 90.9782292,164.2253 L90.9782292,164.2253 Z" id="Path" fill="#FAFAFA"></path>
                <path d="M58.1657779,148.96717 C56.385381,148.724844 54.5861787,149.25373 53.220133,150.420972 C52.0215174,151.443761 51.306844,152.922396 51.2500273,154.497053 C47.0694027,152.976257 42.4337917,155.0272 40.7473255,159.143786 C39.9660763,161.017605 39.9660763,163.125936 40.7473255,164.999755 C39.5171455,164.768646 38.2546848,164.768646 37.0245049,164.999755 C35.480087,165.311927 34.0374217,166.002912 32.8261416,167.010622 C31.0404992,168.445814 29.8536963,170.494865 29.4973421,172.757896 C29.420937,172.158205 29.2890307,171.566901 29.103321,170.991594 C28.0524439,167.857966 25.5929371,165.398459 22.4593091,164.347582 C20.9492765,163.823611 19.3279019,163.70646 17.7582291,164.007909 C20.666439,164.538048 23.3521185,165.918714 25.475609,167.975294 C26.4924368,168.994238 27.3408785,170.168297 27.9891922,171.45355 C28.6486596,172.7944 29.1327121,174.214592 29.4294075,175.679087 C29.5387802,175.151702 29.5934176,174.614435 29.5924507,174.075829 C30.0705919,171.603363 31.4876012,169.412112 33.5462492,167.961707 C35.7890645,166.398167 38.614513,165.921973 41.2459071,166.664027 C43.8773012,167.40608 46.0376832,169.288278 47.1331856,171.793223 C48.2624337,174.405907 48.202953,177.379943 46.9701423,179.945385 C47.8783984,178.753101 48.4718212,177.351315 48.6956832,175.869304 C49.3892198,171.039699 46.3776555,166.44954 41.6712371,165.162798 C41.4298131,165.098642 41.1848255,165.048737 40.9375426,165.013342 C40.6403995,163.153917 40.9500733,161.248232 41.8206934,159.578568 C43.7359361,156.021554 48.0179307,154.471378 51.7663309,155.978029 C53.6629121,156.759998 55.2287087,158.1769 56.1956721,159.986176 C55.7133019,157.783309 54.2736854,155.910313 52.2690475,154.877488 C51.9837218,154.728031 51.6983962,154.605749 51.3994836,154.483466 C51.9009844,153.19582 52.7884529,152.09479 53.9402407,151.331297 C56.3925638,149.758166 59.6247334,150.201797 61.562512,152.377491 C62.5519553,153.51466 63.1350939,154.948607 63.2201182,156.453572 C63.7547739,154.821304 63.4986034,153.033133 62.5271845,151.616623 C61.5165672,150.153154 59.9303277,149.18955 58.1657779,148.96717 Z" id="Path" fill="#FAFAFA"></path>
                <path d="M83.6141097,105.747126 L81.1412873,98.3965931 L81.1412873,71.4129375 C81.1412873,58.8450214 68.7500013,36.5352719 58.3831689,31.6847356 L58.3831689,31.6847356 C48.0163364,36.5352719 35.6250505,58.8586083 35.6250505,71.4129375 L35.6250505,97.1330081 L32.731033,105.747126 L83.6141097,105.747126 Z" id="Path" fill="#D4313C"></path>
                <circle id="Oval" fill="#FAFAFA" cx="58.3831689" cy="63.3694712" r="10.6249842"></circle>
                <path d="M36.2228757,97.8531157 L26.7120202,97.8531157 C26.7120202,97.8531157 23.4783293,82.9074857 35.720159,73.9944554 L37.4864607,73.9944554 L36.2228757,97.8531157 Z" id="Path" fill="#D4313C"></path>
                <path d="M81.1412873,97.8531157 L90.7200774,97.8531157 C90.7200774,97.8531157 93.9673552,82.9074857 81.7391125,73.9944554 L79.9592238,73.9944554 L81.1412873,97.8531157 Z" id="Path" fill="#D4313C"></path>
                <circle id="Oval" fill="#E2EAF2" cx="47.7853585" cy="12.2961774" r="12.2961774"></circle>
                <polygon id="Path" fill="#52AEDE" points="50.231007 9.1168343 57.1875185 13.1929152 50.231007 17.6358434 50.231007 14.7554129 52.5136124 13.3831323 50.231007 12.1195472"></polygon>
                <polygon id="Path" fill="#52AEDE" points="45.0815582 6.95651142 38.1250467 11.0325923 45.0815582 15.4755205 45.0815582 12.59509 42.7989529 11.2228094 45.0815582 9.95922435"></polygon>
                <polygon id="Path" fill="#52AEDE" points="48.0706842 6.95651142 45.6793834 17.6358434 47.3505765 17.6358434 49.9320944 6.95651142"></polygon>
                <path d="M107.921139,18.573342 L84.823347,18.573342 C80.3222822,18.5093729 76.4628133,21.7731643 75.7783249,26.2223386 C75.0938366,30.6715129 77.793809,34.944449 82.1059598,36.2363593 C82.1502998,36.3328588 82.1866534,36.4328312 82.2146552,36.5352719 C82.4017001,37.1040826 82.4665199,37.7059806 82.4048724,38.3015736 C82.3247817,38.9871906 82.0825965,39.643885 81.6983517,40.2173316 C81.4858342,40.545263 81.2399605,40.8503285 80.9646571,41.1276564 C80.6793314,41.426569 80.353245,41.6711338 80.0271585,41.9564595 L80.0271585,41.9564595 C79.9560118,42.0382626 79.9560118,42.1599821 80.0271585,42.2417852 C80.0661831,42.283094 80.1198317,42.3074797 80.1766148,42.3097198 C80.6113968,42.3097198 81.0733526,42.3097198 81.5353084,42.3097198 C83.0965049,42.2522997 84.6033507,41.7215868 85.8559542,40.787983 C86.7956647,40.0851788 87.5972026,39.2145428 88.2200811,38.220052 L88.66845,37.4455966 C88.7907324,37.1738579 88.9401887,36.9021192 89.0488842,36.6167935 L89.0488842,36.6167935 L108.070595,36.6167935 C112.920716,36.4286077 116.755599,32.4420445 116.755599,27.5882743 C116.755599,22.7345041 112.920716,18.7479408 108.070595,18.5597551 L107.921139,18.573342 Z" id="Path" fill="#D4313C"></path>
                <circle id="Oval" fill="#FFFFFF" cx="109.755375" cy="27.0515903" r="3.4374949"></circle>
                <circle id="Oval" fill="#FAFAFA" cx="85.8151934" cy="27.0515903" r="3.4374949"></circle>
                <circle id="Oval" fill="#FFFFFF" cx="97.7852843" cy="27.0515903" r="3.4374949"></circle>
                <path d="M34.5516825,46.8069958 L34.5516825,46.8069958 C34.2935307,46.7118872 34.0489658,46.6439525 33.8179879,46.535257 C33.5914841,46.4328879 33.3772648,46.3052679 33.1794019,46.1548228 C32.8183343,45.913308 32.5276813,45.5804635 32.3370119,45.1901503 C32.1643042,44.8568482 32.0625275,44.4913775 32.0380993,44.1167824 L32.0380993,43.7499351 C33.5961627,41.9342143 34.1095665,39.4442056 33.3967929,37.160271 L33.3967929,37.160271 C32.2734227,33.4877361 28.3909606,31.4158745 24.7147405,32.5271257 L7.69030929,37.6901615 C4.01412223,38.8015913 1.93411068,42.6818468 3.04357705,46.3586269 L3.04357705,46.3586269 C3.57716857,48.1271574 4.79226352,49.6108377 6.42093915,50.4825232 C8.04961478,51.3542088 9.95811679,51.5423127 11.7256294,51.0053591 L28.3288656,45.9646057 L28.4783219,46.114062 L28.9131039,46.4809093 C29.5006923,46.9277378 30.1699353,47.2554361 30.8832097,47.4455818 C31.5308777,47.6371939 32.2128385,47.6835858 32.8804893,47.5814511 C33.1798868,47.5374411 33.4752336,47.4692842 33.7636402,47.3776471 C34.0318263,47.2776481 34.2948364,47.1642816 34.5516825,47.0379737 C34.5516825,47.0379737 34.5516825,47.0379737 34.5516825,46.9564521 C34.5856697,46.91243 34.5856697,46.8510179 34.5516825,46.8069958 L34.5516825,46.8069958 Z" id="Path" fill="#E2EAF2"></path>
                <circle id="Oval" fill="#52AEDE" cx="9.27998084" cy="44.0352608" r="2.64945259"></circle>
                <circle id="Oval" fill="#FAFAFA" cx="26.956585" cy="38.6820078" r="2.64945259"></circle>
                <circle id="Oval" fill="#52AEDE" cx="18.1250764" cy="41.3586343" r="2.64945259"></circle>
            </g>
        </g>
    </g>
</svg>