<?xml version="1.0" encoding="UTF-8"?>
<svg width="221px" height="158px" viewBox="0 0 221 158" version="1.1" xmlns="http://www.w3.org/2000/svg" xmlns:xlink="http://www.w3.org/1999/xlink">
    <title>769D272B-FB14-4131-ABFB-CA6EEE097254</title>
    <g id="Page-1" stroke="none" stroke-width="1" fill="none" fill-rule="evenodd">
        <g id="Alt-Home" transform="translate(-293.000000, -3156.000000)" fill-rule="nonzero">
            <g id="Online-shopping-60b6" transform="translate(293.067206, 3156.884074)">
                <rect id="Rectangle" fill="#E2EAF2" x="14.7681908" y="23.1543028" width="53.5294376" height="68.3529741" rx="19.64"></rect>
                <path d="M53.4576551,42.42286 C52.0806363,37.7795594 49.1888968,36.1009319 47.9495799,35.5865137 C47.6133976,35.4409409 47.2219756,35.4989248 46.9443562,35.7354242 C45.3371544,37.1691376 43.2848312,38.0276977 41.1195667,38.1721417 C38.9568044,38.0342118 36.9067431,37.1745657 35.3085474,35.7354242 C35.0294941,35.5020023 34.6399538,35.444297 34.3033237,35.5865137 C31.5120278,36.9314459 29.487873,39.4437252 28.7952486,42.42286 C28.7000741,42.7575064 28.8625094,43.1111019 29.1808138,43.2621738 L33.5597336,45.4146075 C32.6040681,49.6344207 31.4041092,53.7971515 29.9657145,57.8824786 C29.9657145,57.8824786 31.4804352,61.036674 41.1195667,61.036674 C50.7586982,61.036674 52.2871891,57.8824786 52.2871891,57.8824786 C50.8487945,53.7971515 49.6488355,49.6344207 48.6931701,45.4146075 L53.08586,43.2080245 C53.3746156,43.0576427 53.5264978,42.7368947 53.4576551,42.42286 L53.4576551,42.42286 Z" id="Path" fill="#52AEDE"></path>
                <path d="M49.7085896,75.0289588 L33.6340332,75.0289588 C33.0913454,75.0894575 32.565784,74.7909007 32.2780884,74.2586845 C31.9903929,73.7264683 31.9903929,73.052774 32.2780884,72.5205578 C32.565784,71.9883416 33.0913454,71.6897848 33.6340332,71.7502834 L49.7085896,71.7502834 C50.4431316,71.8321699 51.0035024,72.5415898 51.0035024,73.3896211 C51.0035024,74.2376525 50.4431316,74.9470724 49.7085896,75.0289588 L49.7085896,75.0289588 Z" id="Path" fill="#52AEDE"></path>
                <path d="M55.789734,80.8013894 L27.2760852,80.8013894 C26.7356872,80.8013894 26.2976081,80.4326826 26.2976081,79.9778596 C26.2976081,79.5230367 26.7356872,79.1543298 27.2760852,79.1543298 L55.789734,79.1543298 C56.3301319,79.1543298 56.768211,79.5230367 56.768211,79.9778596 C56.768211,80.4326826 56.3301319,80.8013894 55.789734,80.8013894 Z" id="Path" fill="#52AEDE"></path>
                <rect id="Rectangle" fill="#E2EAF2" x="139.121192" y="23.1543028" width="53.5294376" height="68.3529741" rx="19.64"></rect>
                <path d="M173.784787,75.0289588 L157.710231,75.0289588 C156.975689,74.9470724 156.415318,74.2376525 156.415318,73.3896211 C156.415318,72.5415898 156.975689,71.8321699 157.710231,71.7502834 L173.784787,71.7502834 C174.327475,71.6897848 174.853036,71.9883416 175.140732,72.5205578 C175.428427,73.052774 175.428427,73.7264683 175.140732,74.2586845 C174.853036,74.7909007 174.327475,75.0894575 173.784787,75.0289588 L173.784787,75.0289588 Z" id="Path" fill="#52AEDE"></path>
                <path d="M180.142735,80.8013894 L151.629086,80.8013894 C151.088688,80.8013894 150.650609,80.4326826 150.650609,79.9778596 C150.650609,79.5230367 151.088688,79.1543298 151.629086,79.1543298 L180.142735,79.1543298 C180.683133,79.1543298 181.121212,79.5230367 181.121212,79.9778596 C181.121212,80.4326826 180.683133,80.8013894 180.142735,80.8013894 Z" id="Path" fill="#52AEDE"></path>
                <path d="M177.827093,55.8866575 C177.827093,55.8866575 176.196897,59.3896144 165.885911,59.3896144 C155.574924,59.3896144 153.944728,55.8866575 153.944728,55.8866575 C155.482248,51.3671497 156.765828,46.7626876 157.789273,42.0954884 C160.547264,42.532737 163.327692,42.8090142 166.116855,42.9229586 C168.758307,42.9340996 171.393944,42.6706943 173.982548,42.1368619 C174.999886,46.7920479 176.283577,51.383095 177.827093,55.8866575 L177.827093,55.8866575 Z" id="Path" fill="#52AEDE"></path>
                <ellipse id="Oval" fill="#D4313C" cx="166.297676" cy="42.5072533" rx="8.23529809" ry="1.23529471"></ellipse>
                <rect id="Rectangle" fill="#E2EAF2" x="76.5329265" y="23.1543028" width="53.5294376" height="68.3529741" rx="19.64"></rect>
                <path d="M111.454121,75.0366808 L95.1411696,75.0366808 C94.3957338,74.9544086 93.8270524,74.241647 93.8270524,73.3896211 C93.8270524,72.5375952 94.3957338,71.8248337 95.1411696,71.7425615 L111.454121,71.7425615 C112.199557,71.8248337 112.768238,72.5375952 112.768238,73.3896211 C112.768238,74.241647 112.199557,74.9544086 111.454121,75.0366808 L111.454121,75.0366808 Z" id="Path" fill="#52AEDE"></path>
                <path d="M118.377999,80.8013894 L89.8643507,80.8013894 C89.3239527,80.8013894 88.8858736,80.4326826 88.8858736,79.9778596 C88.8858736,79.5230367 89.3239527,79.1543298 89.8643507,79.1543298 L118.377999,79.1543298 C118.918397,79.1543298 119.356477,79.5230367 119.356477,79.9778596 C119.356477,80.4326826 118.918397,80.8013894 118.377999,80.8013894 Z" id="Path" fill="#52AEDE"></path>
                <path d="M116.03856,42.4212104 C115.353728,39.4383358 113.328536,36.9230409 110.533782,35.5842583 C110.197353,35.442029 109.808046,35.4997393 109.52916,35.733182 C108.00862,37.289574 105.909051,38.1692193 103.714737,38.1692193 C101.520424,38.1692193 99.4208549,37.289574 97.900315,35.733182 C97.6214287,35.4997393 97.2321215,35.442029 96.8956929,35.5842583 C94.1009391,36.9230409 92.075747,39.4383358 91.3909143,42.4212104 C91.2813019,42.7531805 91.4407679,43.1134167 91.7624868,43.2605985 L96.1387858,45.4132231 C95.1836924,49.6334102 93.9844516,53.7965099 92.5469178,57.8821991 C92.5469178,57.8821991 94.0607319,61.036674 103.694094,61.036674 C113.327457,61.036674 114.855033,57.8821991 114.855033,57.8821991 C113.417499,53.7965099 112.218258,49.6334102 111.263165,45.4132231 L115.694512,43.2064445 C115.979965,43.0544514 116.122241,42.7297296 116.03856,42.4212104 L116.03856,42.4212104 Z" id="Path" fill="#D4313C"></path>
                <path d="M200.364365,52.3045548 L203.84564,55.7168011 C204.291516,56.1583203 204.291516,56.8694201 203.84564,57.3109393 L200.364365,60.7100109 C200.037662,61.0291325 199.547237,61.1244083 199.12105,60.951552 C198.694864,60.7786957 198.416516,60.3716148 198.415338,59.9195292 L198.415338,53.1082112 C198.411048,52.6537259 198.687393,52.2417458 199.11481,52.065501 C199.542228,51.8892563 200.035933,51.9837076 200.364365,52.3045548 Z" id="Path" fill="#E2EAF2"></path>
                <path d="M7.04291129,52.2989266 L3.57843298,55.7081389 C3.36110811,55.9183738 3.23877348,56.2051976 3.23877348,56.5044993 C3.23877348,56.803801 3.36110811,57.0906248 3.57843298,57.3008597 L7.04291129,60.696909 C7.36795063,61.0252888 7.86421004,61.1265768 8.29594342,60.9526566 C8.72767681,60.7787363 9.00787464,60.3646589 9.00348214,59.9071301 L9.00348214,53.1018685 C9.00014948,52.6482022 8.72087738,52.2402765 8.29383306,52.065378 C7.86678875,51.8904795 7.37447047,51.9823959 7.04291129,52.2989266 L7.04291129,52.2989266 Z" id="Path" fill="#E2EAF2"></path>
                <circle id="Oval" fill="#000000" cx="211.18005" cy="86.977863" r="5.35294376"></circle>
                <path d="M152.915509,155.742602 C152.915509,155.742602 144.100182,145.798969 145.969686,137.526305 C147.839191,129.253641 152.915509,127.55528 160.038731,128.67839 C167.161952,129.8015 171.474093,130.938306 181.21735,121.89864 C190.960606,112.858975 199.571244,106.106618 208.509385,109.859449 C217.447527,113.61228 216.314907,144.607377 199.816872,155.742602 L152.915509,155.742602 Z" id="Path" fill="#52AEDE"></path>
                <path d="M96.2976419,136.801416 L88.7100168,154.761684 C88.4630684,155.356768 87.8725385,155.74496 87.2178308,155.742602 L87.2178308,155.742602 C86.7266698,155.740556 86.2625305,155.521658 85.9540401,155.146561 C85.6455498,154.771464 85.5254794,154.280014 85.6271042,153.808409 L89.3294148,136.856679 L96.2976419,136.801416 Z" id="Path" fill="#E2EAF2"></path>
                <path d="M106.18,136.801416 L113.753547,154.761694 C114.00862,155.356462 114.602289,155.74307 115.259811,155.742602 L115.259811,155.742602 C115.750972,155.740566 116.215111,155.521668 116.523601,155.146571 C116.832092,154.771474 116.952162,154.280024 116.850537,153.808418 L113.091918,136.801416 L106.18,136.801416 Z" id="Path" fill="#E2EAF2"></path>
                <rect id="Rectangle" fill="#52AEDE" x="83.9446947" y="128.566118" width="33.7647222" height="9.8823577" rx="3.66"></rect>
                <path d="M187.646362,86.3393739 C185.73289,91.8017799 184.149803,96.1307366 184.452654,99.8724847 C184.755506,103.614233 191.335645,104.269722 191.335645,104.269722 L189.559833,109.977936 C189.559833,109.977936 193.689627,112.995915 195.286481,109.814064 C196.883335,106.632212 197.37891,103.778105 200.035744,99.3535562 C202.692579,94.9290073 204.165539,89.8899378 199.553935,85.6975412 C194.942332,81.5051446 188.403491,83.4306427 187.646362,86.3393739 Z" id="Path" fill="#EAA88E"></path>
                <path d="M192.309463,80.1329954 C190.322566,81.9097553 187.457108,80.3500043 186.186575,82.4387143 C184.916043,84.5274244 184.497037,87.6333633 187.686886,89.5050645 C190.876734,91.3767657 192.377045,91.959977 192.147267,93.5739802 C191.91749,95.1879834 191.931006,95.5948749 193.498898,95.9339512 C193.498898,95.9339512 194.499105,94.2928219 195.566893,94.577646 C196.204527,94.7805028 196.664773,95.3391386 196.743437,96.0057076 C196.822101,96.6722766 196.504614,97.3233309 195.931834,97.6700219 C194.390974,98.4973681 193.769224,97.1410629 192.850115,98.0362243 C191.931006,98.9313858 192.255398,104.343044 197.580823,105.957047 C202.906248,107.57105 206.136646,103.746269 207.434212,98.5516203 C208.731777,93.3569713 210.542962,90.8071175 207.285532,86.5754452 C204.028102,82.343773 202.392629,83.8628348 200.230019,81.1502244 C198.179044,78.9402439 194.848989,78.5125684 192.309463,80.1329954 Z" id="Path" fill="#000000"></path>
                <path d="M190.064471,106.330813 C186.066432,106.803467 181.587529,106.803467 179.293121,109.861816 C176.998714,112.920164 167.944735,116.701395 167.944735,116.701395 C167.944735,116.701395 172.478594,124.375069 176.188115,126.919059 C179.900471,124.539261 183.473966,121.944617 186.89077,119.148074 C192.303923,114.699567 195.944749,110.807123 195.944749,108.207527 L190.064471,106.330813 Z" id="Path" fill="#52AEDE"></path>
                <path d="M114.415298,124.441957 L114.415298,124.441957 C114.474778,123.376017 115.330298,122.524953 116.40182,122.465783 L121.20147,122.001581 C123.214657,121.802637 125.121185,122.876933 125.121185,124.441957 L125.121185,124.441957 C125.121185,126.006982 123.214657,127.094541 121.20147,126.895597 L116.40182,126.418132 C115.327623,126.364937 114.468771,125.510559 114.415298,124.441957 L114.415298,124.441957 Z" id="Path" fill="#EAA88E"></path>
                <path d="M111.922452,117.19178 L116.427851,117.19178 C118.599426,117.19178 120.359835,118.95219 120.359835,121.123765 L120.359835,123.936226 L105.178006,123.936226 L105.178006,123.936226 C105.178006,120.203831 108.20371,117.178128 111.936105,117.178128 L111.922452,117.19178 Z" id="Path" fill="#000000" transform="translate(112.768921, 120.557177) rotate(83.520000) translate(-112.768921, -120.557177) "></path>
                <path d="M120.180006,121.770808 L120.180006,127.758062 C120.180006,127.758062 120.9292,128.050463 128.039734,128.245397 C135.150268,128.44033 137.683907,127.187184 142.546858,126.853012 C147.543506,126.645818 152.545042,127.113993 157.421768,128.245397 C161.047382,129.096922 164.763867,129.475878 168.482598,129.373228 C171.206941,129.178294 175.756593,126.142896 177.827093,122.53662 L174.0675,117.036701 C174.0675,117.036701 165.485822,117.426569 158.361666,117.997446 C151.23751,118.568324 147.968299,117.899979 144.508385,118.958192 C141.04847,120.016404 120.180006,121.770808 120.180006,121.770808 Z" id="Path" fill="#D4313C"></path>
                <path d="M133.692209,148.995609 L133.692209,148.995609 C132.685757,148.479845 132.262462,147.342526 132.711725,146.361226 L134.487964,141.895947 C135.22688,139.999191 137.159427,138.787375 138.665678,139.459143 L138.665678,139.459143 C140.171928,140.144083 140.342447,142.291105 139.205654,144.003453 L136.519981,148.073575 C135.969169,149.004607 134.75053,149.401961 133.692209,148.995609 L133.692209,148.995609 Z" id="Path" fill="#EAA88E"></path>
                <path d="M127.596214,147.507304 L131.991333,147.507304 C134.109753,147.507304 135.827073,149.226941 135.827073,151.34822 L135.827073,154.095542 L121.003536,154.095542 L121.003536,154.095542 C121.010881,150.454803 123.960373,147.507304 127.596214,147.507304 Z" id="Path" fill="#000000"></path>
                <path d="M132.532953,144.132729 L137.944867,147.507304 C140.263554,145.244902 142.249983,142.659344 143.843852,139.829122 C145.748571,135.668003 147.279083,131.342442 148.416919,126.904637 C150.335306,126.896457 152.249161,127.09338 154.126487,127.492114 C156.507729,128.106915 164.219705,129.869345 168.27864,129.363842 C172.337575,128.858339 176.180033,122.683004 176.180033,122.683004 L173.054653,117.860231 L146.46863,119.226455 C146.46863,119.226455 143.302661,119.390402 141.056717,123.325129 C138.810773,127.259856 132.532953,144.132729 132.532953,144.132729 Z" id="Path" fill="#D4313C"></path>
                <polygon id="Path" fill="#52AEDE" points="163.827086 116.213171 148.648301 116.213171 143.238841 102.077533 145.015082 101.389635 149.967026 114.297846 163.827086 114.297846"></polygon>
                <path d="M191.115578,107.694227 C189.023924,106.562478 187.597167,107.121535 184.078756,110.216799 C180.560345,113.312064 178.939659,114.307457 176.848005,115.930085 C174.756351,117.552712 174.188419,124.111401 179.70152,121.275211 C185.214621,118.439022 189.591857,114.811972 191.115578,112.084866 C192.064274,110.770292 192.064274,109.008801 191.115578,107.694227 L191.115578,107.694227 Z" id="Path" fill="#EAA88E"></path>
                <path d="M168.716819,111.90445 C169.6765,112.306445 170.556209,112.791611 171.049379,112.999539 C173.501899,114.066904 175.874445,115.314474 178.353623,116.298668 C180.153026,117.005624 180.033066,122.938512 176.154352,121.843423 C172.275639,120.748334 166.464232,114.759999 166.290957,114.593656 C165.664498,113.942147 164.158331,113.346086 164.811447,112.12624 C165.464564,110.906394 166.877429,111.142046 168.716819,111.90445 Z" id="Path" fill="#EAA88E"></path>
                <path d="M164.448945,114.034648 C163.319743,113.375823 161.964349,113.375823 160.835147,114.034648 C160.259021,114.366912 159.620322,114.54882 158.969112,114.566112 L160.953416,112.670078 L159.376486,113.417 C158.920968,113.587126 158.416807,113.4714 158.062378,113.115358 L161.24252,111.549694 C161.24252,111.549694 160.467196,111.291144 159.626167,111.061322 C158.785137,110.8315 158.653726,109.624933 158.653726,109.624933 C159.847097,110.100974 161.079129,110.452071 162.33323,110.673497 C163.841064,110.966977 165.32931,111.37006 166.788059,111.880064 C166.788059,111.880064 167.77364,114.594839 166.354403,114.551748 C165.68533,114.602375 165.018659,114.421455 164.448945,114.034648 L164.448945,114.034648 Z" id="Path" fill="#EAA88E"></path>
                <path d="M218.626316,156.566132 L1.14545188,156.566132 C0.482269627,156.566132 -0.0553457555,156.013071 -0.0553457555,155.330837 C-0.0553457555,154.648603 0.482269627,154.095542 1.14545188,154.095542 L218.626316,154.095542 C219.289498,154.095542 219.827113,154.648603 219.827113,155.330837 C219.827113,156.013071 219.289498,156.566132 218.626316,156.566132 Z" id="Path" fill="#E2EAF2"></path>
                <path d="M203.068825,6.23594471 C201.166461,6.22579147 199.484078,4.99082035 198.892507,3.17027455 C198.31055,1.33849491 196.619501,0.0954681635 194.709454,0.0954681635 C192.799407,0.0954681635 191.108358,1.33849491 190.526401,3.17027455 C190.244621,4.06302284 189.681881,4.83915128 188.923234,5.38135524 C188.173116,5.93572957 187.2671,6.2350665 186.336611,6.23594471 C183.967128,6.22008203 182.017823,8.11058324 181.944742,10.4953272 L181.944742,25.1183026 C181.944742,32.2151346 187.654504,37.9703533 194.702718,37.9778394 L194.702718,37.9778394 C201.756194,37.9778394 207.474166,32.2204286 207.474166,25.1183026 L207.474166,10.4953272 C207.400982,8.10526902 205.443526,6.21266833 203.068825,6.23594471 Z M194.702718,6.6971934 C193.475056,6.6971934 192.479839,5.69507075 192.479839,4.45894121 C192.479839,3.22281167 193.475056,2.22073069 194.702718,2.22073069 C195.93038,2.22073069 196.925638,3.22281167 196.925638,4.45894121 C196.929209,5.05365921 196.696174,5.62507273 196.278518,6.04560973 C195.860861,6.46614673 195.293362,6.70078925 194.702718,6.6971934 L194.702718,6.6971934 Z" id="Shape" fill="#D4313C"></path>
                <path d="M192.08278,27.4539953 L199.708607,27.4539953 L200.885928,23.0948601 L190.61113,23.0948601 L189.902062,21.07876 C189.810263,20.8436489 189.58861,20.6878156 189.340159,20.6837134 L186.062391,20.6837134 L186.651051,21.8960979 L188.925421,21.8960979 L191.601149,29.3474946 C191.684986,29.5829226 191.903735,29.7404651 192.149674,29.7425413 L200.444432,29.7425413 L200.76552,28.5301568 L192.57779,28.5301568 L192.08278,27.4539953 Z" id="Path" fill="#E2EAF2"></path>
                <circle id="Oval" fill="#E2EAF2" cx="193.885924" cy="31.8013658" r="1.23529471"></circle>
                <circle id="Oval" fill="#E2EAF2" cx="198.003573" cy="31.8013658" r="1.23529471"></circle>
                <circle id="Oval" fill="#52AEDE" cx="207.885931" cy="15.3307696" r="6.17647357"></circle>
                <path d="M206.349587,12.8732939 C206.67873,12.5776896 207.088009,12.4278478 207.503892,12.4506891 C207.788474,12.4450636 208.070612,12.5124073 208.330132,12.6479047 C208.543082,12.7678565 208.723738,12.9529464 208.852607,13.1832041 C208.970401,13.412926 209.0294,13.6767559 209.022716,13.9438927 C209.034245,14.2353046 208.961551,14.5228416 208.816156,14.7609286 C208.689791,14.9740431 208.506047,15.1325727 208.29368,15.2117071 L208.29368,15.2117071 C208.535558,15.2986409 208.747964,15.4710181 208.90121,15.704746 C209.055778,15.9754775 209.132348,16.2960437 209.11992,16.6203898 C209.124906,16.906954 209.061857,17.1895942 208.937661,17.4374257 C208.809659,17.685911 208.618745,17.8826552 208.390885,18.0008988 C208.12608,18.1493577 207.834369,18.2218284 207.540344,18.2122011 C207.104798,18.2265616 206.677452,18.0729735 206.325286,17.7755095 C206.007281,17.4457555 205.825999,16.9741533 205.827106,16.4795215 L206.738405,16.4795215 C206.736501,16.7076781 206.815586,16.9267088 206.957116,17.085255 C207.117328,17.2387556 207.320475,17.3189324 207.528194,17.3106443 C207.722592,17.3292893 207.914067,17.2466894 208.050669,17.085255 C208.320158,16.7226009 208.287645,16.1760315 207.977765,15.8597011 C207.740041,15.7094504 207.47025,15.6410293 207.200128,15.6624855 L207.005718,15.6624855 L207.005718,14.7750155 L207.200128,14.7750155 C207.831958,14.7750155 208.147873,14.5355394 208.147873,14.0425005 C208.1581,13.8527098 208.095904,13.6672904 207.977765,13.5353747 C207.843641,13.3996611 207.669591,13.3290363 207.491742,13.3381592 C207.313323,13.3243698 207.137778,13.3956012 207.005718,13.5353747 C206.890986,13.6722559 206.822064,13.8520432 206.811309,14.0425005 L205.900015,14.0425005 C205.905065,13.5977373 206.067632,13.174947 206.349587,12.8732939 Z" id="Path" fill="#FAFAFA"></path>
            </g>
        </g>
    </g>
</svg>