<?xml version="1.0" encoding="UTF-8"?>
<svg width="140px" height="150px" viewBox="0 0 140 150" version="1.1" xmlns="http://www.w3.org/2000/svg" xmlns:xlink="http://www.w3.org/1999/xlink">
    <title>F9709C9F-143D-48E7-9CF1-3AFB478B870A</title>
    <g id="Page-1" stroke="none" stroke-width="1" fill="none" fill-rule="evenodd">
        <g id="Alt-Home" transform="translate(-372.000000, -2314.000000)" fill-rule="nonzero">
            <g id="Texting-60b6" transform="translate(372.000000, 2314.000000)">
                <path d="M12.2053921,102.713634 C18.6869922,118.664006 37.376545,130.375976 61.8037229,120.749391 C86.2309008,111.122806 94.4935318,122.575511 98.3148577,133.148973 C102.136184,143.722436 127.724413,149.178252 137.621535,111.167895 C147.518656,73.1575378 118.221824,47.2987718 101.279485,45.3486556 C84.3371463,43.3985394 79.7718454,50.4324845 71.2950398,60.656504 C62.8182342,70.8805236 49.4717743,73.258989 33.9159342,70.440902 C18.3600941,67.622815 5.61106863,86.5039977 12.2053921,102.713634 Z" id="Path" fill="#E2EAF2"></path>
                <path d="M51.0273583,108.620344 C51.1964435,116.860431 47.0707642,142.617746 47.0707642,142.617746 C47.0707642,142.617746 51.0273583,150.688747 65.9632193,149.832048 C80.8990802,148.97535 83.5142649,142.583929 83.5142649,142.583929 C83.5142649,142.583929 82.1390385,127.817153 81.9699533,122.834775 C81.800868,117.852397 81.0118037,116.725162 82.6913835,113.816897 C84.3709634,110.908631 88.6206385,87.5974155 88.6206385,87.5974155 L96.8269078,77.5424812 C96.8269078,77.5424812 97.8076021,73.518253 94.662617,73.1688102 C91.5176319,72.8193674 85.8927303,77.5424812 82.3644854,81.3187177 C82.3644854,81.3187177 78.9827811,81.3187177 83.8524354,76.8097785 C90.2664013,70.8917959 95.6771283,70.733983 95.8574859,64.1960213 C96.0265711,58.0864087 88.1810169,62.3699009 84.3822357,64.6130981 C82.6913835,65.6163371 81.4626976,64.0720254 84.3822357,61.7837388 C87.3017738,59.4954522 85.656011,60.7804998 88.8122684,57.1846209 C91.9685258,53.5887419 92.1939728,49.8914118 89.770418,48.3358278 C87.3468632,46.7802438 83.3902691,51.8640727 79.8958412,55.0992365 C77.1566607,57.6693318 79.9972924,56.3730118 83.3902691,50.5902973 C86.7832458,44.8075829 88.0570211,43.4549011 87.1214162,39.46449 C86.1858114,35.4740788 83.5706267,33.5915967 79.3322239,40.7382653 C75.093821,47.8849339 59.1321764,67.7919002 52.9436574,73.4280742 C46.7551384,79.0642481 51.0273583,108.620344 51.0273583,108.620344 Z" id="Path" fill="#EAA88E"></path>
                <path d="M52.7334969,31.2340205 L88.3120989,31.2340205 C89.9579074,31.2340205 91.2920989,32.568212 91.2920989,34.2140205 L91.2920989,103.992926 C91.2920989,105.638735 89.9579074,106.972926 88.3120989,106.972926 L52.7334969,106.972926 C51.0876883,106.972926 49.7534969,105.638735 49.7534969,103.992926 L49.7534969,34.2140205 C49.7534969,32.568212 51.0876883,31.2340205 52.7334969,31.2340205 Z" id="Rectangle" fill="#52AEDE" transform="translate(70.522798, 69.103473) rotate(-15.970000) translate(-70.522798, -69.103473) "></path>
                <path d="M76.0294259,26.0165789 C69.6190628,27.8578069 64.8112905,29.2387278 61.6061089,30.1593418 C57.4767494,31.3454044 51.2827102,33.1244983 43.0239913,35.4966235 C41.857375,35.8212156 40.8703517,36.6014145 40.2851542,37.6615548 C39.6999568,38.7216951 39.565776,39.9726631 39.9128233,41.1327975 L59.312534,108.913425 C59.637126,110.080042 60.417325,111.067065 61.4774653,111.652262 C62.5376056,112.23746 63.7885736,112.371641 64.9487079,112.024593 L97.9541426,102.578366 C99.1207588,102.253774 100.107782,101.473575 100.69298,100.413435 C101.278177,99.3532943 101.412358,98.1023262 101.065311,96.9421919 L81.6430552,29.1390193 C81.3205454,27.9754846 80.5448545,26.989907 79.4896931,26.403 C78.4345316,25.8160929 77.1880633,25.6768951 76.0294259,26.0165789 Z M98.7657516,96.1080381 C99.06751,97.1634292 98.9362477,98.2955627 98.4010115,99.2539106 C97.8657752,100.212258 96.9706971,100.917802 95.9138476,101.214412 L65.9181299,109.803941 C64.8657749,110.106529 63.7362968,109.978356 62.7785026,109.447658 C61.8207085,108.916959 61.1131732,108.027272 60.8117563,106.974582 L42.3589228,42.4629345 C42.0563351,41.4105795 42.1845076,40.2811014 42.7152059,39.3233073 C43.2459042,38.3655131 44.1355912,37.6579779 45.1882821,37.3565609 L48.8968845,36.2856879 L50.9033625,37.8074548 C51.9034292,38.5753467 53.2089294,38.8222202 54.420335,38.4725234 L68.5333146,34.4370228 C69.7494954,34.0906466 70.7286353,33.1868251 71.171044,32.0021957 L72.0615595,29.6575473 L75.1952722,28.7670318 C77.3860571,28.1435633 79.668684,29.4083301 80.3016458,31.5963911 L98.7657516,96.1080381 Z" id="Shape" fill="#D4313C"></path>
                <circle id="Oval" fill="#E2EAF2" cx="53.0000192" cy="57.2297103" r="1.76975862"></circle>
                <circle id="Oval" fill="#FAFAFA" cx="48.49108" cy="41.4822402" r="1.97266088"></circle>
                <path d="M57.8991428,45.6879532 L72.3882963,45.6879532 C73.8408052,45.6879532 75.0182963,46.8654444 75.0182963,48.3179532 L75.0182963,48.9984806 C75.0182963,50.4509895 73.8408052,51.6284806 72.3882963,51.6284806 L57.8991428,51.6284806 C56.4466339,51.6284806 55.2691428,50.4509895 55.2691428,48.9984806 L55.2691428,48.3179532 C55.2691428,46.8654444 56.4466339,45.6879532 57.8991428,45.6879532 Z" id="Rectangle" fill="#FAFAFA" transform="translate(65.143720, 48.658217) rotate(-16.260205) translate(-65.143720, -48.658217) "></path>
                <polygon id="Path" fill="#FAFAFA" points="58.1289375 53.4647461 58.5121973 55.6628539 61.4317354 52.5178688"></polygon>
                <path d="M59.4252575,52.6305923 C59.1957274,52.6460104 58.993124,52.4818663 58.9605904,52.2541311 C58.9280568,52.0263959 59.0765957,51.8120886 59.3012616,51.7626215 L69.6380047,48.8092664 C69.7516301,48.7745857 69.8744545,48.7873677 69.9785043,48.8447013 C70.0825541,48.9020348 70.1589706,48.9990386 70.1903497,49.1136198 C70.2553327,49.3470313 70.1192145,49.5890192 69.8859963,49.6546925 L59.5492533,52.61932 L59.4252575,52.6305923 Z" id="Path" fill="#52AEDE"></path>
                <circle id="Oval" fill="#FAFAFA" cx="61.4430077" cy="86.7181723" r="1.76975862"></circle>
                <path d="M66.7262431,78.8630033 L73.0371816,78.8630033 C74.036817,78.8630033 74.8471816,79.6733679 74.8471816,80.6730033 L74.8471816,81.1335932 C74.8471816,82.1332286 74.036817,82.9435932 73.0371816,82.9435932 L66.7262431,82.9435932 C65.7266077,82.9435932 64.9162431,82.1332286 64.9162431,81.1335932 L64.9162431,80.6730033 C64.9162431,79.6733679 65.7266077,78.8630033 66.7262431,78.8630033 Z" id="Rectangle" fill="#FAFAFA" transform="translate(69.881712, 80.903298) rotate(-15.970000) translate(-69.881712, -80.903298) "></path>
                <polygon id="Path" fill="#FAFAFA" points="66.571926 82.9419358 66.9439135 85.1400436 69.874724 81.9950586"></polygon>
                <path d="M67.0679093,82.7615782 C66.8698038,82.7557289 66.6974812,82.6242195 66.6395601,82.4346801 C66.6050949,82.3225182 66.6181498,82.2011283 66.6756759,82.0988595 C66.7332021,81.9965908 66.8301626,81.9223978 66.9439135,81.8936074 L70.7314224,80.7663727 C70.8450479,80.731692 70.9678722,80.744474 71.071922,80.8018076 C71.1759718,80.8591411 71.2523883,80.9561449 71.2837675,81.0707261 C71.3493612,81.3069672 71.2141638,81.5523253 70.9794141,81.6230711 L67.1919052,82.7503059 L67.0679093,82.7615782 Z" id="Path" fill="#52AEDE"></path>
                <path d="M79.5125814,95.2400674 C78.4001401,95.2365456 77.4248599,94.4958847 77.1228437,93.4252193 C76.941868,92.7929334 77.0231285,92.1144079 77.3482906,91.5427372 C77.6794281,90.9883429 78.2129042,90.5841944 78.8362405,90.4155025 L84.4724145,88.8148291 C85.5229873,88.5152364 86.6458649,88.9384071 87.2374051,89.8568511 C87.8289452,90.775295 87.7497972,91.9726517 87.0425098,92.8052402 L87.4821314,93.8761133 C87.5417239,94.0330656 87.5115172,94.2099905 87.4032249,94.3382795 C87.2933935,94.4693167 87.1161558,94.522488 86.952331,94.4735477 L84.7767679,93.8873856 L80.211467,95.194978 C79.9813941,95.2398497 79.7465129,95.2550034 79.5125814,95.2400674 Z M85.1487554,89.6038934 C84.9959637,89.604333 84.8440578,89.6271189 84.6978615,89.6715275 L79.0616875,91.2722009 C78.6563887,91.3845127 78.3144278,91.6572672 78.1148103,92.0274482 C77.9050921,92.3973164 77.8523126,92.8357919 77.9682698,93.2448618 C78.2093784,94.1004441 79.0937982,94.6029553 79.952203,94.3720966 L84.6414997,92.9855978 C84.72262,92.9630055 84.8083711,92.9630055 84.8894914,92.9855978 L86.2985349,93.3688576 L86.0956326,92.861602 C86.0306725,92.688606 86.0750048,92.4935438 86.2083561,92.3656186 C86.6987125,91.9261368 86.8672977,91.2297987 86.6322587,90.6146968 C86.3972198,89.9995948 85.8072335,89.5931174 85.1487554,89.5926211 L85.1487554,89.6038934 Z" id="Shape" fill="#FAFAFA"></path>
                <path d="M81.4626976,92.9855978 C81.2331675,93.0010158 81.0305641,92.8368718 80.9980305,92.6091366 C80.9654969,92.3814013 81.1140359,92.1670941 81.3387018,92.117627 L85.137483,90.9903922 C85.3708945,90.9254092 85.6128824,91.0615274 85.6785557,91.2947456 C85.7441494,91.5309867 85.6089521,91.7763449 85.3742023,91.8470906 L81.5866934,92.9743254 L81.4626976,92.9855978 Z" id="Path" fill="#FAFAFA"></path>
                <path d="M64.5879928,69.5503865 C62.8090551,69.6845814 61.231845,68.4137883 60.9845568,66.6470183 C60.7372686,64.8802483 61.904968,63.2252605 63.6523879,62.8658842 L76.9312138,59.067103 C77.238638,58.976464 77.5575848,58.9308586 77.878091,58.9318348 C79.3381869,58.8968862 80.6557403,59.8032521 81.1451783,61.179316 C81.6346163,62.55538 81.1853338,64.0901735 80.0311094,64.9850856 L80.4256416,65.9206905 C80.4852341,66.0776428 80.4550274,66.2545677 80.3467352,66.3828567 C80.2337715,66.5090524 80.0596158,66.5612991 79.8958412,66.5181249 L77.7202781,65.9319628 L65.53487,69.4151183 C65.2274458,69.5057573 64.908499,69.5513211 64.5879928,69.5503865 L64.5879928,69.5503865 Z M77.878091,59.8223503 C77.6423275,59.8238589 77.4076298,59.8541425 77.1792054,59.9125291 L63.9003796,63.6774933 C62.5628899,64.0647331 61.7913236,65.4616212 62.1757104,66.7999336 C62.4791389,67.8808409 63.4653051,68.6273779 64.5879928,68.6260557 C64.8237563,68.6245454 65.058454,68.5942618 65.2868784,68.5358752 L77.5962823,65.0076303 C77.6735327,64.984768 77.7557512,64.984768 77.8330016,65.0076303 L79.2533174,65.3908901 L79.0842322,64.9625409 C78.9940616,64.7681011 79.0614824,64.5369441 79.2420451,64.4214682 C80.1382859,63.8002292 80.5344408,62.6738158 80.2243813,61.6283261 C79.9143219,60.5828364 78.968114,59.8545257 77.878091,59.8223503 L77.878091,59.8223503 Z" id="Shape" fill="#FAFAFA"></path>
                <path d="M64.9148909,67.4875468 C64.7203137,67.4892827 64.5490128,67.3596495 64.497814,67.1719211 C64.431246,66.9389671 64.5606719,66.6950491 64.7908951,66.6195761 L65.0727038,66.5406696 C65.2237246,66.4963702 65.3869071,66.5360045 65.5007819,66.6446426 C65.6146568,66.7532808 65.6619237,66.9144181 65.6247777,67.0673557 C65.5876318,67.2202932 65.4717162,67.3417963 65.3206954,67.3860957 L65.0388867,67.4762745 L64.9148909,67.4875468 Z" id="Path" fill="#FAFAFA"></path>
                <path d="M67.3046286,66.7999336 C67.0750986,66.8153517 66.8724951,66.6512076 66.8399615,66.4234724 C66.8074279,66.1957372 66.9559669,65.9814299 67.1806328,65.9319628 L67.4624415,65.8530564 C67.6986827,65.7874627 67.9440408,65.92266 68.0147866,66.1574098 C68.0797696,66.3908213 67.9436514,66.6328092 67.7104332,66.6984825 L67.4286245,66.7886613 L67.3046286,66.7999336 Z" id="Path" fill="#FAFAFA"></path>
                <path d="M69.7620005,66.1123204 C69.5324704,66.1277384 69.329867,65.9635944 69.2973334,65.7358592 C69.2647998,65.508124 69.4133388,65.2938167 69.6380047,65.2443496 L69.9198134,65.1654432 C70.1532249,65.1004602 70.3952128,65.2365784 70.4608861,65.4697966 C70.5264798,65.7060377 70.3912824,65.9513958 70.1565327,66.0221416 L69.874724,66.1010481 L69.7620005,66.1123204 Z" id="Path" fill="#FAFAFA"></path>
                <path d="M72.241917,65.4021625 C72.044448,65.4051104 71.8692484,65.276016 71.8135678,65.0865367 C71.7479741,64.8502956 71.8831714,64.6049375 72.1179212,64.5341917 L72.3997299,64.4552853 C72.6331414,64.3903022 72.8751293,64.5264204 72.9408026,64.7596387 C73.0063963,64.9958798 72.871199,65.2412379 72.6364492,65.3119837 L72.3546405,65.3908901 L72.241917,65.4021625 Z" id="Path" fill="#FAFAFA"></path>
                <path d="M75.0036423,64.545464 C74.7741122,64.5608821 74.5715088,64.396738 74.5389752,64.1690028 C74.5064416,63.9412676 74.6549805,63.7269603 74.8796464,63.6774933 L75.1614551,63.5985868 C75.2750806,63.5639062 75.397905,63.5766882 75.5019548,63.6340217 C75.6060046,63.6913553 75.682421,63.788359 75.7138002,63.9029402 C75.7787832,64.1363517 75.642665,64.3783396 75.4094468,64.4440129 L75.1276381,64.5341917 L75.0036423,64.545464 Z" id="Path" fill="#FAFAFA"></path>
                <path d="M73.3691518,35.0231849 C73.2060619,34.9051515 73.0062043,34.8491914 72.8055344,34.865372 C72.7153556,34.865372 72.6815386,34.9330061 72.6589939,35.0006402 L72.5913598,35.090819 C72.5913598,35.1584531 72.3095511,35.090819 72.1179212,35.0006402 C71.9262913,34.9104614 71.7572061,34.7188315 71.7910231,34.6511974 C71.7847166,34.6138876 71.7847166,34.5757838 71.7910231,34.5384739 C71.8252545,34.4791834 71.8252545,34.4061345 71.7910231,34.346844 C71.6966869,34.1667522 71.5406129,34.0266858 71.3514015,33.9523119 C71.2613513,33.9141 71.1596431,33.9141 71.0695928,33.9523119 C71.021714,33.9743372 70.9850194,34.0151089 70.9681417,34.0650353 C70.8804399,34.323209 70.9409932,34.6086743 71.1259546,34.8090103 C71.3232458,35.0464285 71.569284,35.2386458 71.8473849,35.3726277 C72.1074129,35.5351869 72.3997782,35.6390536 72.7040833,35.6769811 C72.8262539,35.7070687 72.9539001,35.7070687 73.0760708,35.6769811 C73.2103776,35.6345706 73.3284216,35.5519398 73.4142412,35.4402618 C73.4384045,35.3984097 73.4384045,35.3468457 73.4142412,35.3049936 C73.4385912,35.2088532 73.4222832,35.1069283 73.3691518,35.0231849 L73.3691518,35.0231849 Z" id="Path" fill="#FAFAFA"></path>
                <path d="M74.806613,32.7366935 L76.2025337,32.7366935 C76.4676304,32.7366935 76.6825337,32.9515969 76.6825337,33.2166935 L76.6825337,34.3646226 C76.6825337,34.6297193 76.4676304,34.8446226 76.2025337,34.8446226 L74.806613,34.8446226 C74.5415163,34.8446226 74.326613,34.6297193 74.326613,34.3646226 L74.326613,33.2166935 C74.326613,32.9515969 74.5415163,32.7366935 74.806613,32.7366935 Z" id="Rectangle" fill="#FAFAFA" transform="translate(75.504573, 33.790658) rotate(-15.970000) translate(-75.504573, -33.790658) "></path>
                <polygon id="Path" fill="#FAFAFA" points="77.8330016 33.7719543 76.9988478 33.7155926 76.7959456 33.0279793 77.4835588 32.531996"></polygon>
                <circle id="Oval" fill="#FAFAFA" cx="78.8926023" cy="32.8138047" r="1"></circle>
                <path d="M77.5553017,99.3495725 L92.3725303,99.3495725 C93.1181147,99.3495725 93.7225303,99.9539881 93.7225303,100.699573 L93.7225303,101.606724 C93.7225303,102.352308 93.1181147,102.956724 92.3725303,102.956724 L77.5553017,102.956724 C76.8097173,102.956724 76.2053017,102.352308 76.2053017,101.606724 L76.2053017,100.699573 C76.2053017,99.9539881 76.8097173,99.3495725 77.5553017,99.3495725 Z" id="Rectangle" fill="#FAFAFA" transform="translate(84.963916, 101.153148) rotate(-15.970000) translate(-84.963916, -101.153148) "></path>
                <circle id="Oval" fill="#52AEDE" cx="91.3598191" cy="99.3206573" r="1"></circle>
                <circle id="Oval" fill="#FAFAFA" cx="65.3319678" cy="106.771679" r="1.76975862"></circle>
                <polygon id="Rectangle" fill="#52AEDE" transform="translate(65.313255, 106.778680) rotate(-15.970000) translate(-65.313255, -106.778680) " points="64.1972929 106.502508 66.4292178 106.502508 66.4292178 107.054853 64.1972929 107.054853"></polygon>
                <polygon id="Rectangle" fill="#52AEDE" transform="translate(65.317123, 106.771711) rotate(-15.970000) translate(-65.317123, -106.771711) " points="65.0409508 105.655749 65.5932959 105.655749 65.5932959 107.887673 65.0409508 107.887673"></polygon>
                <polygon id="Rectangle" fill="#FAFAFA" transform="translate(70.003232, 105.491451) rotate(-15.970000) translate(-70.003232, -105.491451) " points="67.7431258 103.772418 72.2633373 103.772418 72.2633373 107.210484 67.7431258 107.210484"></polygon>
                <path d="M68.8602127,106.805496 L71.9262913,105.926253 C71.6126296,105.372614 71.0179864,105.038399 70.3819796,105.058282 C69.3449236,105.182278 68.8602127,106.805496 68.8602127,106.805496 Z" id="Path" fill="#52AEDE"></path>
                <circle id="Oval" fill="#52AEDE" cx="68.9616638" cy="105.080827" r="1"></circle>
                <path d="M73.3691518,104.697567 L73.278973,104.359397 L72.9971643,104.438303 L72.9295302,104.179039 L73.2000666,104.100133 L73.0986155,103.761962 L72.8280791,103.840869 L72.8280791,103.75069 C72.7656062,103.544375 72.789001,103.321583 72.8929676,103.132746 C72.9969342,102.943908 73.1726809,102.804995 73.3804242,102.747451 C73.8098678,102.624007 74.2583146,102.870904 74.3836631,103.299796 L74.6992889,104.427031 C74.815337,104.859051 74.5650039,105.304644 74.1356715,105.43027 C73.92788,105.489144 73.7051924,105.462772 73.5169008,105.35699 C73.3286093,105.251208 73.1902441,105.074742 73.1324325,104.866652 L73.1324325,104.866652 L73.3691518,104.697567 Z" id="Path" fill="#FAFAFA"></path>
                <path d="M74.6992889,105.520449 L74.1920332,105.666989 L74.1920332,105.666989 L73.6847776,105.81353 C73.4809142,105.87851 73.3625305,106.090614 73.4142412,106.298241 L74.2934843,106.050249 L74.2934843,106.050249 L75.1727275,105.802257 C75.1126342,105.599168 74.9064612,105.476446 74.6992889,105.520449 L74.6992889,105.520449 Z" id="Path" fill="#FAFAFA"></path>
                <polygon id="Rectangle" fill="#FAFAFA" transform="translate(74.135233, 105.480904) rotate(-15.970000) translate(-74.135233, -105.480904) " points="73.9605113 105.092008 74.3099541 105.092008 74.3099541 105.8698 73.9605113 105.8698"></polygon>
                <path d="M97.7512403,97.4945369 C97.8188744,97.9228862 97.4919763,98.6217717 96.477465,98.9712145 C95.8037797,99.2614768 95.019066,99.01745 94.6287999,98.3963248 C95.7080766,98.2498703 96.7600662,97.9460466 97.7512403,97.4945369 L97.7512403,97.4945369 Z" id="Path" fill="#FAFAFA"></path>
                <path d="M94.5949829,98.080699 C94.6851617,97.5396263 95.1586003,96.784379 95.9476646,97.1563665 C96.4211033,96.3334851 97.2439847,96.7956514 97.5821551,97.2240006 C96.6322965,97.6503289 95.6264159,97.9388078 94.5949829,98.080699 Z" id="Path" fill="#FAFAFA"></path>
                <path d="M52.9098404,53.8480059 C50.0371859,59.5969515 47.5150846,65.5144787 45.3573673,71.5681368 C43.8130556,75.851629 45.6955377,85.2978565 46.7325937,89.7617063 C47.7696497,94.225556 50.3397451,106.591322 51.0273583,108.654161 C51.7149715,110.717001 56.5169917,117.581861 69.2209278,111.404614 L65.4446912,109.150145 C65.4446912,109.150145 65.9632193,102.104927 63.0436811,97.302907 C60.124143,92.5008868 57.0017027,87.5072367 57.0017027,87.5072367 C57.0017027,87.5072367 55.8744679,78.410452 55.1417653,76.2348888 C54.4090627,74.0593257 55.5926592,73.8338787 57.0017027,68.1638877 C58.4107462,62.4938967 56.5169917,55.0428748 52.9098404,53.8480059 Z" id="Path" fill="#EAA88E"></path>
                <path d="M78.1486273,48.3471001 C80.5609098,50.3873951 82.9619199,49.3841561 85.7123728,45.94609 C88.4628256,42.5080239 88.4515533,38.7317874 87.4257696,37.0183905 C86.6127568,35.8606167 85.4810287,34.9638494 84.1680611,34.4370228 C82.5761279,35.9687938 81.1893589,37.7003605 80.0423818,39.5884858 C78.3289849,42.5080239 75.9167024,46.464618 78.1486273,48.3471001 Z" id="Path" fill="#EAA88E"></path>
                <path d="M78.2613508,58.7063878 C78.02618,59.4561549 78.3101572,60.2714442 78.9602364,60.7128658 C81.4401529,62.3699009 84.9345808,60.9834021 87.6399443,58.2780386 C90.7285676,55.1894153 91.551449,54.3552615 91.2020062,51.4357234 C90.8525634,48.5161853 89.1504389,47.1522312 86.8959693,48.6965429 C84.47225,50.638329 82.2447045,52.8130175 80.245284,55.1894153 C79.3436108,56.2088966 78.6675327,57.4073986 78.2613508,58.7063878 L78.2613508,58.7063878 Z" id="Path" fill="#EAA88E"></path>
                <path d="M86.0956326,78.7824394 C87.2228674,82.0514203 90.773657,80.518381 92.9154031,79.7180443 C95.0571492,78.9177076 98.7206622,77.7228387 98.2134066,74.2396832 C97.7061509,70.7565277 93.7044674,72.4361076 91.6303554,73.2251719 C89.5562434,74.0142363 84.9683978,75.3556457 86.0956326,78.7824394 Z" id="Path" fill="#EAA88E"></path>
                <path d="M81.6317828,67.7693555 C82.3644854,70.6776213 85.9829091,70.993247 89.6351498,69.7645611 C93.2873905,68.5358752 96.9058142,67.1606488 96.1392946,63.4633186 C95.3727749,59.7659885 91.4838149,60.0816143 87.730123,62.1444539 C83.9764312,64.2072936 80.6623609,63.9254849 81.6317828,67.7693555 Z" id="Path" fill="#EAA88E"></path>
                <path d="M69.4915043,7.225575 C69.4915043,3.23500012 66.256464,-4.00474246e-15 62.2658891,-4.00474246e-15 L43.7454216,-4.00474246e-15 C39.7548467,-4.00474246e-15 36.5198466,3.23500012 36.5198466,7.225575 C36.5198466,11.2161499 39.7548467,14.45115 43.7454216,14.45115 L58.9405465,14.45115 L66.6057431,21.8683549 C66.6637999,21.9166233 66.7457775,21.9236214 66.8111756,21.8858917 C66.8765736,21.8481621 66.9115497,21.7736907 66.8988241,21.6992697 L65.1290655,13.8762603 C67.7843005,12.7335528 69.5010783,10.1162429 69.4915043,7.225575 L69.4915043,7.225575 Z" id="Path" fill="#52AEDE"></path>
                <path d="M54.8937736,6.01943378 L42.2011099,6.01943378 C41.5785553,6.01943378 41.0738751,5.51475357 41.0738751,4.89219899 C41.0738751,4.2696444 41.5785553,3.7649642 42.2011099,3.7649642 L54.8937736,3.7649642 C55.5163282,3.7649642 56.0210084,4.2696444 56.0210084,4.89219899 C56.0210084,5.51475357 55.5163282,6.01943378 54.8937736,6.01943378 Z" id="Path" fill="#FAFAFA"></path>
                <path d="M64.1821883,10.6974582 L42.2011099,10.6974582 C41.7839983,10.6974582 41.4458626,10.3593224 41.4458626,9.94221084 C41.4458626,9.52509927 41.7839983,9.18696353 42.2011099,9.18696353 L64.1821883,9.18696353 C64.5992999,9.18696353 64.9374356,9.52509927 64.9374356,9.94221084 C64.9374356,10.3593224 64.5992999,10.6974582 64.1821883,10.6974582 L64.1821883,10.6974582 Z" id="Path" fill="#FAFAFA"></path>
                <path d="M129.595623,7.00012804 L103.037971,7.00012804 C98.1595007,7.01203586 93.950442,10.4260553 92.9321521,15.197083 C91.9138622,19.9681106 94.3623273,24.8030586 98.810841,26.8056433 L96.3534692,37.7510931 C96.3279749,37.8289016 96.3618941,37.9137965 96.4339859,37.9526152 C96.5060777,37.9914338 96.5956244,37.9728368 96.6465502,37.908906 L107.096017,27.7637929 L129.640713,27.7637929 C135.361989,27.7637927 140,23.1257817 140,17.4045051 C140,11.6832286 135.361989,7.04521755 129.640713,7.04521743 L129.595623,7.00012804 Z" id="Path" fill="#D4313C"></path>
                <circle id="Oval" fill="#52AEDE" cx="130.057789" cy="17.3594158" r="3.94532176"></circle>
                <circle id="Oval" fill="#FAFAFA" cx="102.575805" cy="17.3594158" r="3.94532176"></circle>
                <circle id="Oval" fill="#52AEDE" cx="116.316797" cy="17.3594158" r="3.94532176"></circle>
                <path d="M29.0800969,44.2552378 C32.0618263,42.3951029 33.2624886,38.6524454 31.9193376,35.4048683 C30.5761866,32.1572912 27.0826611,30.356082 23.6580976,31.1454972 L5.62234097,35.2035425 C1.7407132,36.0782317 -0.696892135,39.9339885 0.177797046,43.8156162 C1.05248623,47.697244 4.90824293,50.1348494 8.78987073,49.2601603 L23.6919146,45.8784559 L31.5825582,50.6692038 C31.6945669,50.7405892 31.8405795,50.7277245 31.9383805,50.6378534 C32.0361814,50.5479822 32.0613174,50.4035753 31.999635,50.285944 L29.0800969,44.2552378 Z" id="Path" fill="#E2EAF2"></path>
                <circle id="Oval" fill="#52AEDE" cx="25.5518521" cy="38.1005359" r="2.75045289"></circle>
                <circle id="Oval" fill="#52AEDE" cx="16.2408927" cy="40.1971926" r="2.75045289"></circle>
                <circle id="Oval" fill="#D4313C" cx="6.91866098" cy="42.3051216" r="2.75045289"></circle>
            </g>
        </g>
    </g>
</svg>