<?xml version="1.0" encoding="UTF-8"?>
<svg width="231px" height="143px" viewBox="0 0 231 143" version="1.1" xmlns="http://www.w3.org/2000/svg" xmlns:xlink="http://www.w3.org/1999/xlink">
    <title>C1162EAD-6D21-4C0E-9BB0-5D114973F375</title>
    <g id="Page-1" stroke="none" stroke-width="1" fill="none" fill-rule="evenodd">
        <g id="Alt-Home" transform="translate(-286.000000, -1509.000000)" fill-rule="nonzero">
            <g id="Design-tools-60b6" transform="translate(401.131434, 1580.134021) scale(-1, 1) translate(-401.131434, -1580.134021) translate(286.131434, 1509.000000)">
                <circle id="Oval" fill="#52AEDE" cx="17.3883162" cy="2.37113402" r="2.37113402"></circle>
                <circle id="Oval" fill="#52AEDE" cx="10.2749141" cy="10.2749141" r="2.37113402"></circle>
                <circle id="Oval" fill="#52AEDE" cx="2.37113402" cy="18.1786942" r="2.37113402"></circle>
                <circle id="Oval" fill="#52AEDE" cx="25.2920962" cy="10.2749141" r="2.37113402"></circle>
                <circle id="Oval" fill="#52AEDE" cx="17.3883162" cy="17.3883162" r="2.37113402"></circle>
                <circle id="Oval" fill="#52AEDE" cx="9.48453608" cy="25.2920962" r="2.37113402"></circle>
                <circle id="Oval" fill="#52AEDE" cx="32.4054983" cy="17.3883162" r="2.37113402"></circle>
                <circle id="Oval" fill="#E2EAF2" cx="24.5017182" cy="25.2920962" r="2.37113402"></circle>
                <path d="M201.891898,124.879725 C201.047289,124.879725 200.190258,124.879725 199.333228,124.767392 L199.755533,120.02442 C201.189511,120.149271 202.631547,120.149271 204.065525,120.02442 L204.50025,124.767392 C203.64736,124.842281 202.77791,124.879725 201.891898,124.879725 Z M194.253152,123.781353 C192.587626,123.311249 190.969914,122.6844 189.421489,121.909127 L191.533013,117.652935 C192.820353,118.291141 194.163288,118.809218 195.544907,119.200641 L194.253152,123.781353 Z M209.605168,123.781353 L208.363096,119.200641 C209.739893,118.801492 211.078388,118.279348 212.36257,117.640453 L214.486514,121.896646 C212.917964,122.678352 211.279429,123.309392 209.592748,123.781353 L209.605168,123.781353 Z M185.024552,119.18816 C183.642876,118.146646 182.362012,116.976526 181.198969,115.693339 L184.689193,112.473111 C185.659354,113.541734 186.728181,114.51549 187.881319,115.381301 L185.024552,119.18816 Z M218.833768,119.18816 L215.96458,115.443709 C217.111323,114.570142 218.175705,113.592469 219.144286,112.523037 L222.64693,115.730783 C221.4819,116.996931 220.201079,118.150297 218.821347,119.175678 L218.833768,119.18816 Z M178.106208,111.574443 C177.186954,110.100026 176.409232,108.54115 175.783533,106.918842 L180.205311,105.183913 C180.726401,106.530807 181.370909,107.82613 182.130523,109.053179 L178.106208,111.574443 Z M225.801795,111.574443 L221.77748,109.078142 C222.537094,107.851093 223.181602,106.55577 223.702692,105.208876 L228.12447,106.931323 C227.474083,108.531585 226.680018,110.068999 225.752112,111.524517 L225.801795,111.574443 Z M174.355149,101.963685 C174.041892,100.259229 173.883909,98.5296242 173.883162,96.7963428 L178.615458,96.7963428 C178.614628,98.2415899 178.751886,99.6835787 179.025342,101.102461 L174.355149,101.963685 Z M229.528012,101.963685 L224.87024,101.08998 C225.133445,99.6698349 225.26649,98.2284259 225.267704,96.7838613 L230,96.6715278 L230,96.7838613 C229.982808,98.4897527 229.80817,100.190363 229.47833,101.863833 L229.528012,101.963685 Z M179.0005,92.5276687 L174.342728,91.666445 C174.653452,89.9616306 175.123377,88.2900389 175.74627,86.6738437 L180.168049,88.3838097 C179.637417,89.6906186 179.22989,91.0445466 178.950818,92.4278167 L179.0005,92.5276687 Z M224.85782,92.3778907 C224.569609,90.9616359 224.153874,89.574642 223.615747,88.2340316 L228.025105,86.4866212 C228.660069,88.1017503 229.142462,89.7733112 229.465909,91.4792225 L224.85782,92.3778907 Z M182.08084,84.4895807 L178.044105,81.99328 C178.952929,80.5169886 179.992186,79.1259257 181.149286,77.8369394 L184.664351,81.0446858 C183.683046,82.0732655 182.801342,83.1933256 182.031158,84.3897286 L182.08084,84.4895807 Z M221.727797,84.3772471 C220.966003,83.1505204 220.092826,81.9973009 219.119444,80.9323522 L222.559985,77.5997909 C223.728695,78.8793836 224.780419,80.2620879 225.702429,81.7311684 L221.727797,84.3772471 Z M187.831636,78.1364955 L184.962449,74.3920446 C186.341236,73.3432319 187.813078,72.4240516 189.359386,71.6461138 L191.48333,75.9023064 C190.186482,76.4873149 188.947237,77.193547 187.781954,78.0116805 L187.831636,78.1364955 Z M215.927318,78.049125 C214.776885,77.1856238 213.550427,76.4294367 212.263204,75.7899729 L214.312624,71.3590393 C215.861764,72.1341033 217.337617,73.0490144 218.721981,74.0924885 L215.927318,78.049125 Z M195.495224,74.304674 L194.178627,69.7239623 C195.843075,69.2467945 197.547809,68.9250705 199.271125,68.7628866 L199.718271,73.5058578 C198.293616,73.5902377 196.879852,73.8075185 195.495224,74.154896 L195.495224,74.304674 Z M208.251309,74.304674 C206.866259,73.9160094 205.448393,73.6569543 204.015842,73.5308208 L204.438147,68.7753681 C206.159578,68.9374686 207.863583,69.250702 209.530644,69.7114808 L208.251309,74.304674 Z" id="Shape" fill="#52AEDE"></path>
                <path d="M26.4223714,22.1305842 L196.464226,22.1305842 C198.834515,22.1305842 200.756014,24.0439137 200.756014,26.4041253 L200.756014,140.687285 L22.1305842,140.687285 L22.1305842,26.4041253 C22.1305842,24.0439137 24.0520828,22.1305842 26.4223714,22.1305842 Z" id="Path" fill="#E2EAF2"></path>
                <rect id="Rectangle" fill="#E2EAF2" x="57.6975945" y="41.8900344" width="109.862543" height="92.4742268"></rect>
                <path d="M60.5101154,36.3573883 L164.722727,36.3573883 C166.289786,36.3573883 167.560137,37.6769383 167.560137,39.3046857 L167.560137,41.8900344 L57.6975945,41.8900344 L57.6975945,39.3046857 C57.6975945,37.6869815 58.9527855,36.3715787 60.5101154,36.3573883 Z" id="Path" fill="#D4313C"></path>
                <circle id="Oval" fill="#FAFAFA" cx="60.8591065" cy="38.7285223" r="1"></circle>
                <circle id="Oval" fill="#FAFAFA" cx="64.0206186" cy="38.7285223" r="1"></circle>
                <circle id="Oval" fill="#FAFAFA" cx="67.1821306" cy="38.7285223" r="1"></circle>
                <rect id="Rectangle" fill="#FAFAFA" x="79.0378007" y="55.3264605" width="65.6013746" height="65.6013746"></rect>
                <path d="M9.48453608,134.364261 L215.773196,134.364261 L215.773196,134.364261 C215.773196,138.729398 212.216876,142.268041 207.829933,142.268041 L17.4277993,142.268041 C13.0408562,142.268041 9.48453608,138.729398 9.48453608,134.364261 L9.48453608,134.364261 L9.48453608,134.364261 Z" id="Path" fill="#52AEDE"></path>
                <rect id="Rectangle" fill="#FAFAFA" x="38.7285223" y="51.3745704" width="29.2439863" height="82.9896907"></rect>
                <path d="M41.9268896,48.2130584 L64.7617445,48.2130584 C66.5350006,48.2130584 67.9725086,49.7124588 67.9725086,51.562063 L67.9725086,54.5360825 L38.7285223,54.5360825 L38.7285223,51.5491325 C38.7353185,49.7096139 40.1633029,48.2201472 41.9268896,48.2130584 L41.9268896,48.2130584 Z" id="Path" fill="#D4313C"></path>
                <rect id="Rectangle" fill="#E2EAF2" x="41.8900344" y="57.6975945" width="9.48453608" height="9.48453608"></rect>
                <rect id="Rectangle" fill="#E2EAF2" x="55.3264605" y="57.6975945" width="9.48453608" height="9.48453608"></rect>
                <rect id="Rectangle" fill="#E2EAF2" x="41.8900344" y="68.7628866" width="9.48453608" height="9.48453608"></rect>
                <rect id="Rectangle" fill="#E2EAF2" x="55.3264605" y="68.7628866" width="9.48453608" height="9.48453608"></rect>
                <rect id="Rectangle" fill="#E2EAF2" x="41.8900344" y="80.6185567" width="9.48453608" height="9.48453608"></rect>
                <rect id="Rectangle" fill="#E2EAF2" x="55.3264605" y="80.6185567" width="9.48453608" height="9.48453608"></rect>
                <rect id="Rectangle" fill="#E2EAF2" x="41.8900344" y="91.6838488" width="9.48453608" height="9.48453608"></rect>
                <rect id="Rectangle" fill="#E2EAF2" x="55.3264605" y="91.6838488" width="9.48453608" height="9.48453608"></rect>
                <rect id="Rectangle" fill="#E2EAF2" x="41.8900344" y="102.749141" width="9.48453608" height="9.48453608"></rect>
                <rect id="Rectangle" fill="#E2EAF2" x="55.3264605" y="102.749141" width="9.48453608" height="9.48453608"></rect>
                <rect id="Rectangle" fill="#52AEDE" x="44.2611684" y="120.927835" width="9.48453608" height="9.48453608"></rect>
                <polygon id="Path" fill="#52AEDE" points="51.3745704 125.670103 51.3745704 134.364261 54.0318758 134.364261 54.0318758 128.362072 60.5729352 128.362072 60.5729352 134.364261 63.2302405 134.364261 63.2302405 125.670103"></polygon>
                <circle id="Oval" fill="#FAFAFA" cx="64.8109966" cy="51.3745704" r="1"></circle>
                <path d="M151.841495,48.2130584 L182.488402,48.2130584 C184.283565,48.2130584 185.738832,49.7124588 185.738832,51.562063 L185.738832,54.5360825 L148.591065,54.5360825 L148.591065,51.5491325 C148.597978,49.70458 150.051222,48.2130584 151.841495,48.2130584 L151.841495,48.2130584 Z" id="Path" fill="#D4313C"></path>
                <path d="M148.591065,54.5360825 L185.738832,54.5360825 L185.738832,71.409663 C185.738832,72.5669711 184.7724,73.5051546 183.580245,73.5051546 L150.762202,73.5051546 C149.570047,73.5051546 148.603615,72.5669711 148.603615,71.409663 L148.603615,54.5360825 L148.591065,54.5360825 Z" id="Path" fill="#FAFAFA"></path>
                <circle id="Oval" fill="#FAFAFA" cx="182.57732" cy="51.3745704" r="1"></circle>
                <path d="M151.841495,82.1993127 L182.488402,82.1993127 C184.283565,82.1993127 185.738832,83.6956531 185.738832,85.5414826 L185.738832,88.5223368 L148.591065,88.5223368 L148.591065,85.5414826 C148.591065,83.6956531 150.046332,82.1993127 151.841495,82.1993127 L151.841495,82.1993127 Z" id="Path" fill="#D4313C"></path>
                <path d="M148.591065,88.5223368 L185.738832,88.5223368 L185.738832,105.395917 C185.738832,106.553225 184.7724,107.491409 183.580245,107.491409 L150.762202,107.491409 C149.570047,107.491409 148.603615,106.553225 148.603615,105.395917 L148.603615,88.5223368 L148.591065,88.5223368 Z" id="Path" fill="#FAFAFA"></path>
                <circle id="Oval" fill="#FAFAFA" cx="182.57732" cy="85.3608247" r="1"></circle>
                <path d="M123.013905,75.6272295 C125.055183,76.9691277 124.121672,80.1164889 120.798373,82.4221139 C118.226473,84.3159481 115.942436,86.5586318 114.01486,89.0828085 C112.907093,90.4369058 112.496349,85.5450769 114.01486,81.3363963 C115.533371,77.1277156 120.113798,73.7241739 123.013905,75.6272295 Z" id="Path" fill="#D4313C"></path>
                <path d="M109.443866,91.7024438 C110.971325,87.5366492 111.138391,84.5889232 109.443866,81.7508234 C107.74934,78.9127236 103.262428,79.1076146 104.563155,83.0663375 C105.863882,87.0250604 106.508279,86.8301694 107.474875,90.7888924 C108.44147,94.7476153 108.918801,93.1032227 109.443866,91.7024438 Z" id="Path" fill="#D4313C"></path>
                <path d="M107.136031,99.4668108 C107.916194,95.1167139 107.487104,92.2367329 105.094605,89.8267069 C102.702105,87.4166809 97.9561145,88.4529921 100.153573,92.0559809 C102.351032,95.6589698 103.001168,95.3336163 104.847553,98.9848057 C106.693939,102.635995 106.875977,100.924877 107.136031,99.4668108 Z" id="Path" fill="#D4313C"></path>
                <path d="M113.00623,93.8228928 C115.42988,89.9865364 117.683874,88.0621101 120.980038,87.7497032 C124.276202,87.4372964 126.821034,91.3361341 122.870485,92.6607392 C118.919936,93.9853444 118.677571,93.3230418 114.920913,94.922565 C111.164256,96.5220882 112.194307,95.1100091 113.00623,93.8228928 Z" id="Path" fill="#D4313C"></path>
                <path d="M109.247222,100.070741 C112.161623,96.4178631 114.691571,94.7218839 118.077237,94.8523438 C121.462903,94.9828038 123.583595,99.3401656 119.40422,100.201201 C115.224844,101.062237 115.076024,100.318615 111.070272,101.505801 C107.064521,102.692986 108.267487,101.310111 109.247222,100.070741 Z" id="Path" fill="#D4313C"></path>
                <path d="M196.11933,94.8450013 C195.661798,94.8450013 195.228998,94.8450013 194.820929,94.7698944 L194.623078,94.7698944 C194.035749,94.7215007 193.59838,94.2002898 193.646186,93.6057375 C193.693991,93.0111851 194.208869,92.5684361 194.796198,92.6168299 L195.006415,92.6168299 C197.604223,92.9344751 200.177566,91.8573645 201.795195,89.7752854 C202.78616,88.4701467 204.112172,87.465571 205.628568,86.8711519 C206.47043,86.5006469 207.362451,86.2601301 208.274832,86.1576363 C208.555861,86.1262189 208.837543,86.210739 209.056266,86.3921096 C209.27499,86.5734803 209.412307,86.8364051 209.437209,87.1215082 C209.482868,87.4166217 209.406778,87.7177657 209.226751,87.9544432 C209.046723,88.1911207 208.778564,88.3425529 208.485049,88.3732899 C207.781576,88.4526874 207.093825,88.6383433 206.444705,88.9240739 C205.243352,89.3925264 204.197358,90.1953501 203.42747,91.23987 C202.441686,92.5450251 201.1196,93.5498687 199.606462,94.1440036 C198.503887,94.6173227 197.3169,94.8559355 196.11933,94.8450013 L196.11933,94.8450013 Z" id="Path" fill="#52AEDE"></path>
                <path d="M198.497433,101.168385 C198.027486,101.168385 197.607008,101.168385 197.198896,101.093368 L196.988657,101.093368 C196.401267,101.041579 195.966621,100.518191 196.017846,99.924348 C196.069072,99.330505 196.586773,98.8910831 197.174162,98.9428717 L197.384402,98.9428717 C198.666706,99.1249927 199.973823,98.938686 201.156341,98.4052477 C202.356956,97.9419883 203.403198,97.1443507 204.173893,96.1047172 C205.161744,94.8001843 206.483014,93.7929411 207.995301,93.1915454 C208.843978,92.8285652 209.739129,92.588639 210.654209,92.478881 C211.034184,92.4431462 211.404152,92.615067 211.62475,92.9298825 C211.845349,93.244698 211.883063,93.6545802 211.723686,94.0051305 C211.56431,94.3556808 211.232056,94.5936422 210.852082,94.629377 C210.147487,94.710576 209.459335,94.9003158 208.811524,95.1920067 C207.61091,95.6552661 206.564667,96.4529037 205.793972,97.4925372 C204.016181,99.7430153 201.345354,101.083947 198.497433,101.155882 L198.497433,101.168385 Z" id="Path" fill="#52AEDE"></path>
                <path d="M200.862845,106.701031 C200.393981,106.701031 199.962133,106.701031 199.554962,106.701031 L199.357545,106.701031 C198.771509,106.649164 198.337863,106.124989 198.388971,105.530253 C198.440079,104.935517 198.956587,104.495434 199.542623,104.5473 L199.74004,104.5473 C202.354677,104.854148 204.937315,103.752579 206.550906,101.642268 C207.542799,100.339924 208.864934,99.335766 210.375849,98.7372365 C211.215436,98.3630238 212.105412,98.1182348 213.016293,98.0109785 C213.603444,97.9597784 214.123649,98.3932347 214.188453,98.9876703 C214.238598,99.5810262 213.809942,100.10528 213.226048,100.164709 C212.523616,100.248859 211.837461,100.43877 211.190192,100.728185 C209.992672,101.192745 208.948992,101.991466 208.179591,103.032176 C206.405895,105.286039 203.741221,106.628988 200.899861,106.701031 L200.862845,106.701031 Z" id="Path" fill="#52AEDE"></path>
            </g>
        </g>
    </g>
</svg>