<?xml version="1.0" encoding="UTF-8"?>
<svg width="191px" height="154px" viewBox="0 0 191 154" version="1.1" xmlns="http://www.w3.org/2000/svg" xmlns:xlink="http://www.w3.org/1999/xlink">
    <title>63E4CDDC-F91F-4CC1-98F5-DCA33ACF68C7</title>
    <g id="Page-1" stroke="none" stroke-width="1" fill="none" fill-rule="evenodd">
        <g id="Alt-Home" transform="translate(-352.000000, -4002.000000)">
            <g id="Task-manager-60b6" transform="translate(352.851476, 4002.977626)">
                <path d="M158.015658,69.7288452 C157.360093,69.7288452 156.704528,69.7288452 156.035851,69.6367619 L156.363634,65.953432 C157.475926,66.0520798 158.594725,66.0520798 159.707017,65.953432 L160.047911,69.6367619 C159.392346,69.7288452 158.697446,69.7288452 158.015658,69.7288452 Z M152.063124,68.9000959 C150.772448,68.5315865 149.517442,68.0472926 148.31329,67.4530735 L149.952204,64.1380766 C150.954317,64.6340419 151.998643,65.0390684 153.072695,65.3483135 L152.063124,68.9000959 Z M164.020638,68.9000959 L162.997956,65.3483135 C164.072377,65.0346276 165.116697,64.6252008 166.118447,64.1249218 L167.770472,67.4399187 C166.569561,68.055339 165.314212,68.5573808 164.020638,68.9395602 L164.020638,68.9000959 Z M144.878127,65.3351588 C143.803549,64.5226169 142.807116,63.6109647 141.90186,62.6121256 L144.629012,60.1258779 C145.385136,60.9497347 146.214585,61.7026748 147.10705,62.3753401 L144.878127,65.3351588 Z M171.192524,65.3351588 L169.016046,62.4016496 C169.906289,61.7166125 170.735429,60.9551498 171.494084,60.1258779 L174.221236,62.6252804 C173.295969,63.62314 172.282229,64.5345663 171.192524,65.3483135 L171.192524,65.3351588 Z M139.463157,59.4286762 C138.755471,58.2804372 138.154204,57.0695168 137.666908,55.8111201 L141.10207,54.4956451 C141.507482,55.5393195 142.007824,56.5433196 142.59676,57.494928 L139.463157,59.4286762 Z M176.594383,59.4286762 L173.46078,57.4817733 C174.045591,56.5252937 174.541537,55.5169058 174.942358,54.4693356 L178.390632,55.7848106 C177.903335,57.0432073 177.302069,58.2541277 176.594383,59.4023667 L176.594383,59.4286762 Z M136.552446,51.9699332 C136.312132,50.641618 136.189282,49.2945945 136.18533,47.9445798 L139.869607,47.9445798 C139.863939,49.0741528 139.96491,50.2017259 140.171167,51.3121957 L136.552446,51.9699332 Z M179.491982,51.9699332 L175.860149,51.2990409 C176.066285,50.1929867 176.167258,49.0697903 176.161709,47.9445798 L179.859098,47.8656513 L179.859098,47.9445798 C179.85548,49.2678699 179.737031,50.5883313 179.505093,51.8910047 L179.491982,51.9699332 Z M140.158056,44.6427376 L136.526224,43.9718454 C136.77348,42.6270264 137.137617,41.3065094 137.614462,40.0254205 L141.062736,41.3408954 C140.663105,42.3839896 140.364537,43.4632772 140.171167,44.5638091 L140.158056,44.6427376 Z M175.833927,44.5243449 C175.622022,43.4238574 175.310428,42.3450763 174.903024,41.3014312 L178.338187,39.9859562 C178.833851,41.2639615 179.211299,42.5850015 179.465759,43.9323811 L175.833927,44.5243449 Z M142.544314,38.4073863 L139.410712,36.4604833 C140.120048,35.3104236 140.931905,34.2272957 141.836304,33.2244149 L144.563456,35.7238173 C143.818632,36.530215 143.147274,37.4019093 142.557426,38.3284578 L142.544314,38.4073863 Z M173.408335,38.3021483 C172.81265,37.3645739 172.132374,36.4838895 171.376082,35.6711983 L174.090123,33.1717959 C174.998285,34.1653629 175.814545,35.2397034 176.528826,36.3815548 L173.408335,38.3021483 Z M147.028382,33.4480457 L144.799459,30.5013817 C145.867647,29.6830017 147.008794,28.9652199 148.2084,28.3571575 L149.886647,31.5800712 C148.884056,32.0848925 147.931411,32.6839198 147.041493,33.3691172 L147.028382,33.4480457 Z M168.884933,33.4480457 C168.00274,32.7358024 167.054367,32.1102689 166.052891,31.5800712 L167.704915,28.2256101 C168.909139,28.8225928 170.054848,29.5316749 171.126967,30.3435247 L168.884933,33.4480457 Z M152.980916,30.5145365 L151.971345,26.8048971 C153.257402,26.4370759 154.573842,26.1861235 155.904738,26.0550764 L156.245632,29.7384063 C155.145281,29.8519616 154.057144,30.0632664 152.994027,30.3698342 L152.980916,30.5145365 Z M162.919288,30.5145365 C161.84196,30.2197578 160.740646,30.0216568 159.628349,29.9225728 L159.943021,26.2260881 C161.272769,26.3510089 162.588978,26.5931135 163.876413,26.9495993 L162.919288,30.5145365 Z" id="Shape" fill="#E2EAF2" fill-rule="nonzero"></path>
                <path d="M79.0998773,9.25747297 L153.822813,9.25747297 L153.822813,76.4876461 C153.819317,77.8170878 153.286117,79.0906942 152.340511,80.0282841 C151.394905,80.965874 150.114354,81.4906441 148.780566,81.4871675 L84.1025258,81.4871675 C81.3250595,81.4871675 79.0734781,79.2429056 79.0734781,76.4744895 L79.0734781,9.25747297 L79.0998773,9.25747297 Z" id="Path" fill="#E2EAF2" fill-rule="nonzero"></path>
                <path d="M79.0998773,0.0187911091 L153.822813,0.0187911091 L153.822813,5.11765983 C153.786642,7.88370177 151.537601,10.1048329 148.780566,10.0973531 L84.1025258,10.0973531 C82.7687394,10.0973531 81.4895815,9.56571482 80.5464521,8.61942623 C79.6033227,7.67313765 79.0734781,6.3896949 79.0734781,5.05144075 L79.0734781,0.0187911091 L79.0998773,0.0187911091 Z" id="Path" fill="#52AEDE" fill-rule="nonzero" transform="translate(116.448146, 5.058072) rotate(180.000000) translate(-116.448146, -5.058072) "></path>
                <circle id="Oval" fill="#FAFAFA" fill-rule="nonzero" cx="85.3725794" cy="4.63813204" r="2.09970042"></circle>
                <circle id="Oval" fill="#FAFAFA" fill-rule="nonzero" cx="92.0916208" cy="4.63813204" r="2.09970042"></circle>
                <circle id="Oval" fill="#FAFAFA" fill-rule="nonzero" cx="98.8106621" cy="4.63813204" r="2.09970042"></circle>
                <rect id="Rectangle" fill="#FAFAFA" fill-rule="nonzero" x="84.1127592" y="17.6562747" width="64.670773" height="20.1571241" rx="1.72"></rect>
                <rect id="Rectangle" fill="#FAFAFA" fill-rule="nonzero" x="84.1127592" y="42.0127996" width="64.670773" height="20.1571241" rx="1.72"></rect>
                <path d="M148.783532,68.5880161 L148.783532,81.4871675 L84.1127592,81.4871675 L84.1127592,68.5880161 C84.1200186,67.3606037 85.1401521,66.3693245 86.3960334,66.3693245 L146.500258,66.3693245 C147.104603,66.3659279 147.685402,66.5981614 148.113983,67.0146126 C148.542563,67.4310637 148.783532,67.9973507 148.783532,68.5880161 Z" id="Path" fill="#FAFAFA" fill-rule="nonzero"></path>
                <polygon id="Path" fill="#52AEDE" fill-rule="nonzero" points="0.124742219 152.037102 0.124742219 141.129738 41.0381547 141.129738 41.0381547 125.949115 80.5539449 125.949115 80.5539449 110.043093 108.598685 110.043093 108.598685 125.949115 149.156099 125.949115 149.156099 141.129738 189.937661 141.129738 189.937661 152.037102"></polygon>
                <path d="M22.2192364,136.901534 L22.2192364,136.901534 C20.9816089,136.662854 20.1454047,135.555293 20.3003179,134.359908 L20.962966,126.616509 C21.1562384,124.298757 22.8266638,122.402414 24.648946,122.665795 L24.648946,122.665795 C26.4712283,122.942345 27.4099798,125.299604 26.8301627,127.512004 L24.8698287,135.136882 C24.5896438,136.28532 23.4459101,137.046769 22.2192364,136.901534 L22.2192364,136.901534 Z" id="Path" fill="#EAA88E" fill-rule="nonzero"></path>
                <path d="M17.7622258,135.294348 L32.0401887,135.294348 L32.0401887,138.036814 C32.0401887,139.07692 31.6490756,140.074426 30.9528898,140.809893 C30.2567041,141.545359 29.3124736,141.95854 28.3279183,141.95854 L24.1224092,141.95854 C20.6097769,141.95854 17.7622258,138.950322 17.7622258,135.239498 L17.7622258,135.239498 L17.7622258,135.294348 Z" id="Path" fill="#0A0D16" fill-rule="nonzero" transform="translate(24.901207, 138.599019) rotate(-180.000000) translate(-24.901207, -138.599019) "></path>
                <path d="M34.9111023,68.888965 C30.8637213,77.1598981 26.3317026,92.5865823 24.917084,100.419408 C24.917084,100.419408 22.546288,109.22138 20.9875879,117.17369 C20.0338217,122.301282 19.5167174,127.502486 19.4419861,132.719858 L25.6243933,132.719858 C25.6243933,132.719858 30.6148533,120.187336 33.8239417,113.562624 C37.0330302,106.937912 42.0496868,93.3831408 44.5383677,87.6479192 C47.0270485,81.9126975 47.1580317,69.420004 47.1580317,69.420004 L34.9111023,68.888965 Z" id="Path" fill="#D4313C" fill-rule="nonzero"></path>
                <path d="M54.9735346,121.785799 L54.9735346,121.785799 C53.7395044,121.541388 52.9061436,120.437668 53.0542034,119.243797 L53.716994,111.499253 C53.9241161,109.181159 55.5810926,107.284536 57.4037668,107.547955 L57.4037668,107.547955 C59.226441,107.824546 60.1653944,110.182154 59.5854526,112.394881 L57.6385052,119.928689 C57.394636,121.116395 56.2339001,121.925265 54.9735346,121.785799 L54.9735346,121.785799 Z" id="Path" fill="#EAA88E" fill-rule="nonzero"></path>
                <path d="M51.3962665,119.336624 L65.6353954,119.336624 L65.6353954,122.07909 C65.6353954,124.245 63.9778759,126.000817 61.9332219,126.000817 L57.7003172,126.000817 C56.0180796,126.000817 54.4047421,125.29292 53.2152205,124.032855 C52.0256988,122.77279 51.3574326,121.063776 51.3574326,119.281775 L51.3574326,119.281775 L51.3962665,119.336624 Z" id="Path" fill="#0A0D16" fill-rule="nonzero" transform="translate(58.496414, 122.641296) rotate(-180.000000) translate(-58.496414, -122.641296) "></path>
                <path d="M37.9193498,75.9976391 C39.9816419,82.7637487 53.4534977,98.2459684 53.4534977,98.2459684 C52.9437708,101.105356 52.7462541,104.009567 52.8642714,106.90973 C52.984795,112.380201 53.4534977,117.602015 53.4534977,117.602015 L58.9440155,117.602015 C58.9440155,117.602015 66.7244809,102.289929 65.5058538,96.8194579 C64.2872267,91.3489863 51.2840736,71.8358928 51.2840736,71.8358928 L49.7038758,69.7288452 L40.7181748,69.7288452 L37.9193498,75.9976391 Z" id="Path" fill="#D4313C" fill-rule="nonzero"></path>
                <path d="M37.8789718,36.1336384 C34.4385199,37.6387339 30.2438151,42.1140622 30.3629077,54.2081042 C30.4820003,66.3021461 31.0377656,73.8409432 31.0377656,73.8409432 C31.0377656,73.8409432 34.4649849,75.479233 43.9394601,74.4003593 C53.4139353,73.3214855 53.8770731,72.0161814 53.8770731,72.0161814 C52.7131025,66.575601 51.9567223,61.0547096 51.6143143,55.5000888 C51.4952218,48.9336101 45.3685709,41.4347713 43.3307648,38.4112608 C43.3307648,38.3713025 38.0642269,39.3436209 37.8789718,36.1336384 Z" id="Path" fill="#52AEDE" fill-rule="nonzero"></path>
                <path d="M51.1637502,18.9338499 C51.4058101,24.3853144 51.6613177,28.7673529 50.3165406,32.0799653 C48.9717634,35.3925778 42.7454452,34.2057757 42.7454452,34.2057757 L42.7454452,38.4704381 C42.7454452,38.4704381 37.8101131,39.5920313 37.2049634,36.2794189 C36.5998136,32.9668065 37.2049634,32.0799653 36.0350072,27.3457988 C34.8650511,22.6116322 34.81126,17.6296718 40.2979508,15.1517333 C45.7846416,12.6737949 51.2847801,16.0907416 51.1637502,18.9338499 Z" id="Path" fill="#EAA88E" fill-rule="nonzero"></path>
                <path d="M47.7954219,12.1632221 C49.1097547,14.3475485 52.2115801,13.715936 52.8161732,15.979214 C53.4207662,18.2424919 52.9344631,21.242651 49.4646245,22.0716424 C45.9947859,22.9006337 44.4570166,23.0322196 44.2072933,24.5849336 C43.9575701,26.1376475 43.8524235,26.4929295 42.3015108,26.3745022 C42.3015108,26.3745022 41.8152076,24.5849336 40.7505981,24.5849336 C40.1224324,24.6106938 39.5640307,24.9930923 39.3123324,25.5698708 C39.0606341,26.1466494 39.1597791,26.8166592 39.5676986,27.2956037 C40.7637414,28.479877 41.710061,27.414031 42.3146541,28.479877 C42.9192472,29.545723 41.1186113,34.4538781 35.7429901,34.4538781 C30.367369,34.4538781 28.4747297,30.0720667 28.6981663,24.9402156 C28.9216029,19.8083644 27.9884266,16.9397912 32.1548616,13.9527907 C36.3212965,10.9657902 37.4121928,12.8737861 40.146005,10.9657902 C42.6480052,9.45258524 45.8742113,9.95761224 47.7954219,12.1632221 Z" id="Path" fill="#0A0D16" fill-rule="nonzero"></path>
                <circle id="Oval" fill="#0A0D16" fill-rule="nonzero" cx="28.680668" cy="13.4568738" r="5.03928102"></circle>
                <path d="M22.0560505,53.7929604 L69.784814,53.7929604 C70.5635355,53.7929604 71.194814,54.4242389 71.194814,55.2029604 L71.194814,71.4938245 C71.194814,72.272546 70.5635355,72.9038245 69.784814,72.9038245 L22.0560505,72.9038245 C21.277329,72.9038245 20.6460505,72.272546 20.6460505,71.4938245 L20.6460505,55.2029604 C20.6460505,54.4242389 21.277329,53.7929604 22.0560505,53.7929604 Z" id="Rectangle" fill="#E2EAF2" fill-rule="nonzero" transform="translate(45.920432, 63.348392) rotate(-14.230000) translate(-45.920432, -63.348392) "></path>
                <path d="M25.881934,60.7517173 L35.8772993,60.7517173 C36.6560208,60.7517173 37.2872993,61.3829958 37.2872993,62.1617173 L37.2872993,72.1570827 C37.2872993,72.9358042 36.6560208,73.5670827 35.8772993,73.5670827 L25.881934,73.5670827 C25.1032125,73.5670827 24.471934,72.9358042 24.471934,72.1570827 L24.471934,62.1617173 C24.471934,61.3829958 25.1032125,60.7517173 25.881934,60.7517173 Z" id="Rectangle" fill="#52AEDE" fill-rule="nonzero" transform="translate(30.879617, 67.159400) rotate(-14.230000) translate(-30.879617, -67.159400) "></path>
                <path d="M55.6393982,59.0585956 L40.4157154,62.986692 C39.6889435,63.1206997 38.9842467,62.6593096 38.8026459,61.9305581 C38.6210452,61.2018066 39.0244897,60.4542914 39.7261409,60.2194763 L54.9498237,56.2913798 C55.6049722,56.2718863 56.1864071,56.7158687 56.3513351,57.3615709 C56.5162631,58.0072731 56.2209069,58.6833051 55.6393982,58.9911025 L55.6393982,59.0585956 Z" id="Path" fill="#FAFAFA" fill-rule="nonzero"></path>
                <path d="M68.3872245,62.2865576 L42.4249889,68.8598143 C42.1075615,68.9420082 41.770665,68.8475702 41.541205,68.6120741 C41.3117449,68.376578 41.2245818,68.0358012 41.3125492,67.7181112 C41.4005165,67.4004211 41.6502499,67.1540824 41.9676772,67.0718885 L67.9429789,60.4986318 C68.4119853,60.4349333 68.85346,60.736663 68.9674533,61.1988179 C69.0814467,61.6609728 68.8314099,62.1353754 68.3872245,62.2997042 L68.3872245,62.2865576 Z" id="Path" fill="#FAFAFA" fill-rule="nonzero"></path>
                <polyline id="Path" stroke="#FAFAFA" stroke-width="0.96" stroke-linecap="round" stroke-linejoin="round" points="32.8800688 64.6895642 30.4721365 68.888965 27.8407878 67.2708472"></polyline>
                <path d="M40.0812161,40.446357 C36.8490714,41.6339071 36.5206014,46.3841077 37.7162322,50.1335638 C38.8113183,53.9537702 40.2040484,57.6794064 41.8812316,61.2751861 C43.3133608,63.9438381 47.4914991,63.4634808 47.1367515,60.3144714 C46.7820039,57.165462 45.5863731,47.9586124 44.3907424,44.6895137 C43.1951116,41.420415 41.6053168,39.88594 40.0812161,40.446357 Z" id="Path" fill="#EAA88E" fill-rule="nonzero"></path>
                <path d="M44.4949529,59.8150957 C43.0327945,60.8550411 41.9328221,62.329394 44.4949529,64.7252175 C47.4283224,67.2985013 50.7045862,69.4684717 54.2337332,71.1755116 C56.1788064,71.8863604 58.3787512,70.9385621 56.5544067,68.7796881 C54.7300622,66.6208142 50.1021295,63.408831 48.639971,61.8554949 C47.1778125,60.3021587 45.3400537,59.2227218 44.4949529,59.8150957 Z" id="Path" fill="#EAA88E" fill-rule="nonzero"></path>
                <path d="M55.9481166,69.5685568 C57.5817969,68.3949301 59.2797954,68.975295 61.0935664,69.5685568 C62.9073375,70.1618187 62.4957015,70.4455527 61.7367477,70.6132136 C61.0196359,70.7102539 60.2927705,70.7102539 59.5756587,70.6132136 C59.5756587,70.6132136 60.0387492,71.1419905 62.1483836,71.3225485 C64.2580181,71.5031065 62.4957015,72.8959822 60.8620212,73.0765402 C59.3578688,73.1628546 57.8644897,72.7750118 56.5912978,71.9673984 C55.7168707,71.4982567 54.8097658,71.0930952 53.8770731,70.7550806 L55.9481166,69.5685568 Z" id="Path" fill="#EAA88E" fill-rule="nonzero"></path>
                <circle id="Oval" fill="#52AEDE" fill-rule="nonzero" cx="177.339458" cy="47.8919608" r="10.078562"></circle>
                <path d="M183.218619,47.8919608 L183.218619,47.8919608 C183.209479,48.2972019 182.957498,48.6571743 182.579863,48.8044692 C180.584342,49.5612559 179.008753,51.136845 178.251966,53.1323661 C178.104672,53.5100011 177.744699,53.7619817 177.339458,53.771122 L177.339458,53.771122 C176.933062,53.7655336 176.571302,53.5123022 176.42695,53.1323661 C175.670163,51.136845 174.094574,49.5612559 172.099053,48.8044692 C171.721418,48.6571743 171.469437,48.2972019 171.460297,47.8919608 L171.460297,47.8919608 C171.469437,47.4867196 171.721418,47.1267472 172.099053,46.9794524 C174.094574,46.2226656 175.670163,44.6470765 176.42695,42.6515555 C176.571302,42.2716193 176.933062,42.0183879 177.339458,42.0127996 L177.339458,42.0127996 C177.744699,42.0219398 178.104672,42.2739205 178.251966,42.6515555 C179.008753,44.6470765 180.584342,46.2226656 182.579863,46.9794524 C182.957498,47.1267472 183.209479,47.4867196 183.218619,47.8919608 Z" id="Path" fill="#FAFAFA" fill-rule="nonzero"></path>
            </g>
        </g>
    </g>
</svg>