<?xml version="1.0" encoding="UTF-8"?>
<svg width="161px" height="151px" viewBox="0 0 161 151" version="1.1" xmlns="http://www.w3.org/2000/svg" xmlns:xlink="http://www.w3.org/1999/xlink">
    <title>23AF4DCC-D734-45EC-8FC7-8C85004F6778</title>
    <g id="Page-1" stroke="none" stroke-width="1" fill="none" fill-rule="evenodd">
        <g id="Alt-Home" transform="translate(-619.000000, -1903.000000)" fill-rule="nonzero">
            <g id="Microchip-60b6" transform="translate(699.362035, 1978.306855) scale(-1, 1) translate(-699.362035, -1978.306855) translate(619.362035, 1903.052618)">
                <path d="M22.2044961,74.5762712 C21.548632,74.5762712 21.0169492,74.0407972 21.0169492,73.3802565 L21.0169492,57.4613008 C21.0486166,56.8242234 21.5711375,56.324289 22.2044961,56.3250868 L54.7314062,56.3250868 C55.2191053,56.1725362 55.7490324,56.3510851 56.0474061,56.7684879 C56.3457799,57.1858908 56.3457799,57.748671 56.0474061,58.1660738 C55.7490324,58.5834767 55.2191053,58.7620255 54.7314062,58.6094749 L23.3445411,58.6094749 L23.3445411,73.4280971 C23.320228,74.051792 22.8237753,74.5517847 22.2044961,74.5762712 L22.2044961,74.5762712 Z" id="Path" fill="#52AEDE"></path>
                <path d="M54.7265029,50.1083882 L15.7819717,50.1083882 C15.2927195,50.2813247 14.7611049,50.0789158 14.461781,49.6057341 C14.1624572,49.1325524 14.1624572,48.4945662 14.461781,48.0213845 C14.7611049,47.5482028 15.2927195,47.345794 15.7819717,47.5187304 L54.7265029,47.5187304 C55.215755,47.345794 55.7473697,47.5482028 56.0466935,48.0213845 C56.3460174,48.4945662 56.3460174,49.1325524 56.0466935,49.6057341 C55.7473697,50.0789158 55.215755,50.2813247 54.7265029,50.1083882 Z" id="Path" fill="#52AEDE"></path>
                <path d="M22.0458809,84.7457517 C19.4387497,84.7505553 17.0858781,83.1831262 16.0859468,80.7753692 C15.0860155,78.3676122 15.636287,75.5945201 17.4798103,73.7509968 C19.3233336,71.9074735 22.0964258,71.357202 24.5041828,72.3571332 C26.9119397,73.3570645 28.4793689,75.7099361 28.4745653,78.3170673 C28.4680025,81.8648082 25.5936218,84.7391889 22.0458809,84.7457517 Z M22.0458809,74.1622395 C20.3654099,74.1622395 18.8504089,75.1745308 18.2073205,76.7270836 C17.5642321,78.2796363 17.9197016,80.0667018 19.107974,81.2549742 C20.2962464,82.4432466 22.0833119,82.798716 23.6358646,82.1556276 C25.1884173,81.5125392 26.2007086,79.9975383 26.2007086,78.3170673 C26.1876119,76.0317231 24.3312626,74.1860119 22.0458809,74.1860494 L22.0458809,74.1622395 Z" id="Shape" fill="#52AEDE"></path>
                <circle id="Oval" fill="#D4313C" cx="11.5254237" cy="48.8135593" r="5.42372881"></circle>
                <path d="M82.3848639,12.8813449 C79.7777327,12.8861485 77.4248611,11.3187194 76.4249298,8.91096241 C75.4249986,6.50320542 75.9752701,3.73011327 77.8187934,1.88658998 C79.6623167,0.0430666851 82.4354088,-0.507204822 84.8431658,0.492726453 C87.2509228,1.49265773 88.8183519,3.84552933 88.8135483,6.45266053 C88.8069855,10.0004014 85.9326048,12.8747822 82.3848639,12.8813449 L82.3848639,12.8813449 Z M82.3848639,2.29783276 C80.0902159,2.29783276 78.2300362,4.15801251 78.2300362,6.45266053 C78.2300362,8.74730854 80.0902159,10.6074883 82.3848639,10.6074883 C84.6795119,10.6074883 86.5396917,8.74730854 86.5396917,6.45266053 C86.5396917,4.15801251 84.6795119,2.29783276 82.3848639,2.29783276 Z" id="Shape" fill="#52AEDE"></path>
                <path d="M17.9661017,40.6779661 C14.4090135,40.6779661 11.5254237,37.7943764 11.5254237,34.2372881 C11.5254237,30.6801999 14.4090135,27.7966102 17.9661017,27.7966102 C21.5231899,27.7966102 24.4067797,30.6801999 24.4067797,34.2372881 C24.4067797,37.7943764 21.5231899,40.6779661 17.9661017,40.6779661 L17.9661017,40.6779661 Z M17.9661017,30.0823961 C16.2856047,30.0823961 14.7705803,31.094703 14.127482,32.6472798 C13.4843836,34.1998565 13.8398585,35.9869497 15.0281493,37.1752405 C16.2164401,38.3635313 18.0035333,38.7190062 19.5561101,38.0759079 C21.1086868,37.4328095 22.1209938,35.9177851 22.1209938,34.2372881 C22.1144546,31.9453187 20.2580711,30.0889352 17.9661017,30.0823961 Z" id="Shape" fill="#52AEDE"></path>
                <path d="M135.126019,50.1694915 L102.529577,50.1694915 C102.033191,50.0172998 101.694915,49.5639109 101.694915,49.0507997 C101.694915,48.5376885 102.033191,48.0842997 102.529577,47.9321079 L133.951266,47.9321079 L133.951266,33.3832573 C133.799914,32.9021874 133.97706,32.3794633 134.391184,32.0851453 C134.805308,31.7908273 135.363667,31.7908273 135.777791,32.0851453 C136.191915,32.3794633 136.369062,32.9021874 136.217709,33.3832573 L136.217709,48.9980865 C136.219696,49.6101383 135.744037,50.1205303 135.126019,50.1694915 Z" id="Path" fill="#52AEDE"></path>
                <path d="M150.422093,58.3050847 L102.554807,58.3050847 C102.045241,58.173258 101.694915,57.7589454 101.694915,57.2881356 C101.694915,56.8173258 102.045241,56.4030132 102.554807,56.2711864 L150.326549,56.2711864 C150.836115,56.4030132 151.186441,56.8173258 151.186441,57.2881356 C151.186441,57.7589454 150.836115,58.173258 150.326549,58.3050847 L150.422093,58.3050847 Z" id="Path" fill="#52AEDE"></path>
                <path d="M135.254237,34.5762712 C131.697149,34.5762712 128.813559,31.6926814 128.813559,28.1355932 C128.813559,24.578505 131.697149,21.6949153 135.254237,21.6949153 C138.811326,21.6949153 141.694915,24.578505 141.694915,28.1355932 C141.694915,31.6926814 138.811326,34.5762712 135.254237,34.5762712 Z M135.254237,23.9807011 C132.965936,24.0069298 131.12965,25.8785918 131.147086,28.1669768 C131.164522,30.4553617 133.029115,32.2988256 135.31755,32.290213 C137.605985,32.2815399 139.4566,30.4240446 139.45675,28.1355932 C139.453621,27.0263388 139.008325,25.9641167 138.219504,25.1842342 C137.430683,24.4043518 136.363455,23.9711888 135.254237,23.9807011 L135.254237,23.9807011 Z" id="Shape" fill="#52AEDE"></path>
                <path d="M138.656066,93.7224303 C136.050015,93.7272363 133.697893,92.1610978 132.697261,89.7548041 C131.696629,87.3485105 132.244715,84.5763529 134.085769,82.7318913 C135.926823,80.8874298 138.697965,80.3342158 141.106109,81.3303932 C143.514252,82.3265707 145.084746,84.6757887 145.084746,87.2818416 C145.084746,90.8342304 142.208453,93.7158528 138.656066,93.7224303 L138.656066,93.7224303 Z M138.656066,83.1270142 C136.975594,83.1270142 135.460591,84.1393054 134.817502,85.691858 C134.174413,87.2444105 134.529883,89.0314759 135.718157,90.2197481 C136.90643,91.4080204 138.693497,91.7634898 140.246052,91.1204015 C141.798606,90.4773132 142.810898,88.9623124 142.810898,87.2818416 C142.820424,86.1737378 142.386892,85.1077428 141.606676,84.32082 C140.826459,83.5338971 139.764212,83.0912994 138.656066,83.0912994 L138.656066,83.1270142 Z" id="Shape" fill="#52AEDE"></path>
                <path d="M74.2373664,109.152542 C71.6313135,109.152542 69.2820955,107.582049 68.2859181,105.173905 C67.2897406,102.765762 67.8429546,99.9946201 69.6874161,98.1535659 C71.5318777,96.3125118 74.3040353,95.7644251 76.710329,96.7650573 C79.1166226,97.7656896 80.6827611,100.117812 80.6779551,102.723863 C80.6713777,106.276249 77.7897552,109.152542 74.2373664,109.152542 L74.2373664,109.152542 Z M74.2373664,98.5690311 C71.9427186,98.5690311 70.082539,100.429213 70.082539,102.723863 C70.082539,105.018513 71.9427186,106.878695 74.2373664,106.878695 C76.5320141,106.878695 78.3921937,105.018513 78.3921937,102.723863 C78.3921937,100.429213 76.5320141,98.5690311 74.2373664,98.5690311 L74.2373664,98.5690311 Z" id="Shape" fill="#52AEDE"></path>
                <circle id="Oval" fill="#D4313C" cx="154.576271" cy="57.6271186" r="5.42372881"></circle>
                <path d="M73.9525389,98.3050847 C73.2037263,98.3050847 72.5966937,97.7662639 72.5966937,97.1015946 L72.5966937,75.4387724 C72.4350526,74.9468493 72.6420549,74.4180227 73.1125024,74.1210412 C73.5829499,73.8240597 74.2136603,73.8240597 74.6841077,74.1210412 C75.1545552,74.4180227 75.3615575,74.9468493 75.1999165,75.4387724 L75.1999165,97.1015946 C75.2021868,97.7304106 74.6586928,98.2547824 73.9525389,98.3050847 Z" id="Path" fill="#52AEDE"></path>
                <path d="M82.4208004,34.5762712 C81.8326899,34.5762712 81.3559322,34.0492831 81.3559322,33.3992103 L81.3559322,12.3533615 C81.4942824,11.8609744 81.9064365,11.5254237 82.3728814,11.5254237 C82.8393262,11.5254237 83.2514803,11.8609744 83.3898305,12.3533615 L83.3898305,33.4462927 C83.3705135,34.0390234 82.955236,34.5232753 82.4208004,34.5762712 Z" id="Path" fill="#52AEDE"></path>
                <path d="M74.0112994,34.5752779 C73.351246,34.5752779 72.8161669,34.0409063 72.8161669,33.3817256 L72.8161669,13.091336 L57.398957,13.091336 L57.398957,19.3216792 C57.398957,19.9808599 56.8638779,20.5152315 56.2038244,20.5152315 L32.0382442,20.5152315 C31.5497373,20.6575243 31.024583,20.4752999 30.7296639,20.0611644 C30.4347448,19.6470288 30.4347448,19.0918137 30.7296639,18.6776781 C31.024583,18.2635426 31.5497373,18.0813182 32.0382442,18.223611 L55.1043025,18.223611 L55.1043025,12.04101 C55.1043025,11.3818292 55.6393815,10.8474576 56.299435,10.8474576 L74.0591047,10.8474576 C74.7191582,10.8474576 75.2542373,11.3818292 75.2542373,12.04101 L75.2542373,33.4294677 C75.2418091,33.7461051 75.1038098,34.0448103 74.8706565,34.2597442 C74.6375032,34.474678 74.3283358,34.5881963 74.0112994,34.5752779 Z" id="Path" fill="#52AEDE"></path>
                <path d="M41.5571971,35.9322034 L23.2388818,35.9322034 C22.7256964,35.7812332 22.3728814,35.3067554 22.3728814,34.7675761 C22.3728814,34.2283969 22.7256964,33.7539191 23.2388818,33.6029489 L40.4025298,33.6029489 L40.4025298,19.1785552 C40.5522089,18.6609431 41.0226289,18.3050847 41.5571971,18.3050847 C42.0917653,18.3050847 42.5621853,18.6609431 42.7118644,19.1785552 L42.7118644,34.7675761 C42.6872394,35.4002085 42.1844192,35.907366 41.5571971,35.9322034 L41.5571971,35.9322034 Z" id="Path" fill="#52AEDE"></path>
                <path d="M138.555993,82.8749837 C137.892636,82.8749837 137.354879,82.3483869 137.354879,81.6987969 L137.354879,73.2302524 L128.706862,73.2302524 C128.043506,73.2302524 127.505749,72.7036556 127.505749,72.0540656 L127.505749,57.9398247 C127.362554,57.4590618 127.545933,56.9422326 127.962692,56.6519886 C128.379451,56.3617447 128.938184,56.3617447 129.354943,56.6519886 C129.771702,56.9422326 129.955081,57.4590618 129.811887,57.9398247 L129.811887,71.1131162 L138.459903,71.1131162 C139.12326,71.1131162 139.661017,71.639713 139.661017,72.289303 L139.661017,81.8752249 C139.577822,82.421079 139.118244,82.8368777 138.555993,82.8749837 Z" id="Path" fill="#52AEDE"></path>
                <circle id="Oval" fill="#D4313C" cx="74.2372881" cy="102.711864" r="3.05084746"></circle>
                <circle id="Oval" fill="#D4313C" cx="135.254237" cy="28.1355932" r="3.05084746"></circle>
                <circle id="Oval" fill="#D4313C" cx="29.4915254" cy="18.6440678" r="3.72881356"></circle>
                <path d="M156.095475,150.508475 L1.19266102,150.508475 C0.533972528,150.508475 0,149.901403 0,149.152542 C0,148.403682 0.533972528,147.79661 1.19266102,147.79661 L156.095475,147.79661 C156.754163,147.79661 157.288136,148.403682 157.288136,149.152542 C157.288136,149.901403 156.754163,150.508475 156.095475,150.508475 Z" id="Path" fill="#E2EAF2"></path>
                <path d="M122.728442,135.059282 L122.728442,135.059282 C117.546654,137.780729 111.536726,135.712905 109.549191,130.911749 L91.649544,87.5706258 C91.0461851,86.0851198 92.7024644,83.8033826 95.3170196,82.424833 L95.3170196,82.424833 C97.9434054,81.0462834 100.75908,80.9868632 101.622712,82.3297606 L126.809988,121.7848 C129.602001,126.193782 127.862908,132.325951 122.728442,135.059282 Z" id="Path" fill="#52AEDE"></path>
                <path d="M108.011455,93.8912173 L96.9491125,99.5497408 C96.7697809,99.6568486 96.5537126,99.6882839 96.3502674,99.6368656 C96.1468221,99.5854473 95.9733802,99.455568 95.8695638,99.276898 L90.9206212,87.9361255 C90.7375953,87.5394175 90.9093501,87.0722405 91.3087735,86.8803423 L100.588041,82.1352492 C100.974548,81.9256016 101.461333,82.0511582 101.691849,82.4199548 L108.399607,92.8710223 C108.489486,93.0562436 108.498948,93.2691414 108.425841,93.461291 C108.352734,93.6534406 108.203273,93.8085062 108.011455,93.8912173 Z" id="Path" fill="#000000"></path>
                <path d="M78.2085265,25.4369191 C92.31393,25.4429498 104.192466,35.9742311 105.87626,49.9665986 C107.560054,63.9589662 98.5185299,77.0033203 84.8165537,80.3497799 C71.1145775,83.6962394 57.0697445,76.2903099 52.1030363,63.0997347 C47.1363281,49.9091595 52.8127916,35.0903875 65.3247732,28.5835425 C69.2998427,26.5006775 73.7199857,25.4088701 78.2085265,25.401162 M78.2085265,16.2711864 L78.2085265,16.2711864 C62.8849221,16.3250625 49.1819195,25.8156118 43.7546571,40.1335586 C38.3273948,54.4515054 42.3002744,70.6305061 53.7437873,80.8129041 C65.1873002,90.995302 81.7306182,93.0715427 95.3391466,86.033258 C110.47108,78.1666409 118.254627,60.9796583 114.18017,44.4300755 C110.105712,27.8804926 95.2304298,16.2623483 78.1727383,16.3069435 L78.2085265,16.2711864 Z" id="Shape" fill="#52AEDE"></path>
                <path d="M94.6757689,56.0267387 L89.2327999,56.0267387 L89.2327999,50.2300804 L94.7235143,50.2300804 C95.213713,50.3806626 95.7463562,50.2044176 96.0462592,49.7924006 C96.3461622,49.3803836 96.3461622,48.8248652 96.0462592,48.4128482 C95.7463562,48.0008312 95.213713,47.8245863 94.7235143,47.9751685 L89.2327999,47.9751685 L89.2327999,44.763985 C89.2333425,44.1460866 88.9788244,43.5547495 88.5281525,43.1268351 C88.0774805,42.6989206 87.4697198,42.4715213 86.8455328,42.4972673 L83.2646322,42.4972673 L83.2646322,38.1409192 C83.4168791,37.6560803 83.2386857,37.1292612 82.8221138,36.8326373 C82.405542,36.5360135 81.8438822,36.5360135 81.4273104,36.8326373 C81.0107385,37.1292612 80.8325452,37.6560803 80.9847921,38.1409192 L80.9847921,42.4972673 L75.0882423,42.4972673 L75.0882423,38.1409192 C75.2305448,37.6583596 75.048308,37.139599 74.6341443,36.8482704 C74.2199806,36.5569419 73.6647276,36.5569419 73.2505639,36.8482704 C72.8364002,37.139599 72.6541634,37.6583596 72.7964659,38.1409192 L72.7964659,42.4972673 L69.704955,42.4972673 C68.4392418,42.4972673 67.4131786,43.5121114 67.4131786,44.763985 L67.4131786,47.939751 L61.8866552,47.939751 C61.3964565,47.7891688 60.8638133,47.9654138 60.5639103,48.3774307 C60.2640073,48.7894477 60.2640073,49.3449662 60.5639103,49.7569832 C60.8638133,50.1690001 61.3964565,50.3452451 61.8866552,50.1946629 L67.4131786,50.1946629 L67.4131786,56.0267387 L61.8866552,56.0267387 C61.398761,55.8859922 60.8742654,56.0662364 60.5797162,56.4758716 C60.285167,56.8855067 60.285167,57.4346884 60.5797162,57.8443236 C60.8742654,58.2539588 61.398761,58.434203 61.8866552,58.2934565 L67.4131786,58.2934565 L67.4131786,61.7289505 C67.4197466,62.9762112 68.4438886,63.9838793 69.704955,63.9838624 L72.7964659,63.9838624 L72.7964659,68.9777249 C72.6541634,69.4602845 72.8364002,69.9790451 73.2505639,70.2703736 C73.6647276,70.5617022 74.2199806,70.5617022 74.6341443,70.2703736 C75.048308,69.9790451 75.2305448,69.4602845 75.0882423,68.9777249 L75.0882423,63.9838624 L80.9847921,63.9838624 L80.9847921,68.9777249 C80.8325452,69.4625637 81.0107385,69.9893829 81.4273104,70.2860067 C81.8438822,70.5826305 82.405542,70.5826305 82.8221138,70.2860067 C83.2386857,69.9893829 83.4168791,69.4625637 83.2646322,68.9777249 L83.2646322,63.9838624 L86.8455328,63.9838624 C87.4676528,64.0095287 88.0735522,63.783722 88.5238553,63.3583847 C88.9741583,62.9330474 89.2300979,62.3447974 89.2327999,61.7289505 L89.2327999,58.2934565 L94.7235143,58.2934565 C95.2114085,58.434203 95.7359041,58.2539588 96.0304533,57.8443236 C96.3250025,57.4346884 96.3250025,56.8855067 96.0304533,56.4758716 C95.7359041,56.0662364 95.2114085,55.8859922 94.7235143,56.0267387 L94.6757689,56.0267387 Z" id="Path" fill="#D4313C"></path>
                <circle id="Oval" fill="#D4313C" cx="56.2711864" cy="106.440678" r="4.74576271"></circle>
                <circle id="Oval" fill="#D4313C" cx="56.9491525" cy="96.2711864" r="2.03389831"></circle>
                <path d="M9.49152542,147.79661 C10.6868823,135.445426 9.49152542,128.044281 16.8907843,127.470364 C24.2900433,126.896446 22.4491937,139.199804 25.8440072,137.6574 C29.2388206,136.114997 29.8484526,132.719318 27.9956495,123.77577 C26.1428464,114.832221 23.6804113,96.622296 38.4908827,96.2755541 C53.3013541,95.9288123 47.1213592,116.326798 44.3481313,122.04206 C41.5749034,127.757323 47.1213592,134.536724 50.8269654,126.202963 C54.5325716,117.869202 56.9950068,115.717011 61.3221986,117.833332 C65.6493904,119.949653 65.9482296,123.70403 62.8642089,130.794303 C59.7801882,137.884576 61.6688521,140.670467 64.9082691,136.354129 C68.1476862,132.037791 74.2679133,132.95845 76.1207164,135.732385 C77.9735195,138.50632 73.9690741,147.772697 73.9690741,147.772697 L9.49152542,147.79661 Z" id="Path" fill="#D4313C"></path>
            </g>
        </g>
    </g>
</svg>