<?xml version="1.0" standalone="no"?>
<!DOCTYPE svg PUBLIC "-//W3C//DTD SVG 20010904//EN"
 "http://www.w3.org/TR/2001/REC-SVG-20010904/DTD/svg10.dtd">
<svg version="1.0" xmlns="http://www.w3.org/2000/svg"
 width="260.000000pt" height="260.000000pt" viewBox="0 0 260.000000 260.000000"
 preserveAspectRatio="xMidYMid meet">
<metadata>
Created by potrace 1.14, written by Peter Selinger 2001-2017
</metadata>
<g transform="translate(0.000000,260.000000) scale(0.100000,-0.100000)"
fill="#000000" stroke="none">
<path d="M1187 2437 c4 -6 0 -8 -10 -4 -10 4 -17 2 -17 -5 0 -7 -4 -7 -14 1
-11 9 -16 9 -23 -1 -4 -8 -17 -14 -28 -14 -12 0 -19 -6 -17 -14 3 -11 0 -11
-12 0 -11 8 -16 9 -16 1 0 -6 -9 -11 -21 -11 -13 0 -18 -4 -13 -12 5 -7 2 -9
-9 -5 -9 3 -18 -1 -21 -10 -4 -9 -9 -13 -12 -10 -4 3 -12 1 -19 -6 -7 -7 -24
-20 -39 -31 -14 -10 -23 -23 -20 -28 3 -4 2 -7 -3 -6 -4 2 -23 -12 -41 -30
-18 -17 -30 -32 -27 -32 3 0 -3 -10 -15 -22 -22 -24 -27 -44 -8 -32 7 4 8 3 4
-5 -4 -6 -12 -9 -17 -6 -9 6 -12 -3 -12 -37 0 -10 -3 -15 -8 -13 -11 8 -20
-11 -21 -45 -1 -17 -5 -33 -10 -36 -5 -3 -3 -13 4 -22 10 -12 10 -14 1 -8 -8
4 -13 1 -13 -8 0 -9 6 -16 13 -16 8 0 8 -3 1 -8 -12 -8 -12 -71 1 -91 5 -9 4
-12 -1 -8 -6 3 -11 -4 -11 -16 -2 -17 0 -19 7 -7 8 12 10 10 10 -8 0 -13 -4
-20 -10 -17 -6 4 -1 -10 10 -30 11 -20 15 -33 8 -29 -10 6 -11 4 0 -7 15 -16
16 -33 0 -23 -7 5 -8 3 -4 -5 5 -7 14 -10 22 -7 12 5 12 2 3 -15 -8 -15 -8
-19 0 -15 10 6 15 -6 12 -26 0 -5 6 -8 14 -8 8 0 15 -6 15 -13 0 -7 8 -20 18
-28 36 -33 80 -87 75 -93 -4 -3 -1 -6 6 -6 7 0 9 -5 5 -12 -6 -10 -5 -10 8 -1
18 15 32 5 17 -13 -8 -9 -5 -11 11 -7 15 4 19 2 14 -10 -4 -12 0 -14 18 -10
23 5 23 5 3 -10 -15 -11 -16 -15 -5 -15 36 2 60 -3 60 -13 0 -5 -4 -7 -10 -4
-16 10 -11 -1 7 -16 11 -10 14 -10 9 -1 -10 17 0 15 24 -5 11 -10 24 -18 29
-18 4 0 15 -8 25 -17 10 -10 22 -18 27 -18 5 0 9 -8 9 -17 0 -15 2 -16 10 -3
7 11 10 11 10 2 0 -8 5 -10 13 -6 7 5 6 0 -3 -11 -14 -17 -14 -18 9 -6 15 8
21 9 17 2 -4 -6 -2 -11 4 -11 6 0 8 -4 5 -10 -3 -5 -1 -10 4 -10 6 0 11 6 11
13 1 6 6 2 13 -11 10 -18 15 -20 26 -10 10 11 12 10 9 -2 -2 -8 2 -14 7 -13 6
1 22 -8 35 -19 l25 -20 -30 16 -30 17 24 -20 c12 -12 28 -18 34 -14 5 3 16 -3
24 -13 8 -10 17 -18 21 -16 4 1 7 -2 7 -7 0 -6 6 -16 13 -23 11 -11 12 -10 6
6 -5 13 -4 17 4 12 7 -4 12 -14 12 -22 0 -8 9 -14 21 -14 11 0 17 -4 14 -10
-3 -5 -1 -10 5 -10 7 0 10 -7 7 -15 -4 -8 -1 -17 5 -21 7 -5 8 -2 3 6 -6 10
-4 12 8 7 10 -4 16 -2 14 6 -1 7 3 11 10 10 6 -1 10 5 8 15 -1 9 3 23 9 31 8
11 8 13 -1 7 -9 -5 -11 -2 -7 8 3 9 9 14 13 11 4 -2 8 2 8 10 0 8 -4 12 -8 9
-4 -2 -6 8 -5 23 2 18 10 29 22 32 16 3 15 5 -5 16 -20 10 -21 13 -7 18 11 5
15 3 10 -5 -4 -6 -3 -8 4 -4 5 3 9 21 7 39 -2 17 -1 24 1 14 3 -9 10 -14 16
-11 7 4 8 2 4 -5 -5 -7 3 -20 19 -33 16 -12 24 -26 20 -36 -5 -13 -3 -13 12
-1 10 8 14 9 10 2 -5 -7 1 -16 13 -23 11 -6 20 -17 20 -25 0 -9 6 -12 18 -8 9
3 14 3 10 -2 -4 -4 -1 -14 7 -22 17 -17 20 -53 4 -53 -5 0 -7 5 -3 12 4 7 3 8
-5 4 -6 -4 -8 -13 -4 -19 13 -22 10 -47 -6 -47 -14 0 -14 -2 -1 -10 11 -7 11
-10 2 -10 -7 0 -10 -4 -7 -10 3 -5 2 -10 -3 -10 -6 0 -13 -7 -16 -16 -6 -15
-4 -15 11 -3 17 13 17 12 0 -14 -10 -15 -15 -32 -12 -37 3 -6 2 -10 -4 -10 -5
0 -8 -9 -6 -20 2 -11 -1 -20 -7 -20 -5 0 -7 -7 -4 -16 4 -10 2 -13 -6 -8 -7 5
-9 2 -6 -8 4 -8 2 -21 -3 -29 -6 -10 -9 -10 -9 -1 0 6 -5 12 -11 12 -5 0 -7
-5 -3 -12 5 -7 3 -8 -5 -4 -7 5 -10 14 -7 21 3 9 -2 12 -15 10 -11 -2 -17 0
-14 4 3 5 -2 12 -11 15 -8 3 -12 11 -8 17 4 8 3 9 -5 5 -6 -4 -19 1 -29 11 -9
11 -12 12 -7 3 9 -13 8 -13 -7 -1 -10 7 -18 19 -18 26 0 25 -25 36 -46 20 -10
-8 -27 -15 -38 -15 -12 0 -16 -5 -13 -14 4 -10 0 -13 -14 -11 -11 2 -29 -5
-40 -16 -11 -11 -24 -17 -29 -14 -6 4 -10 -2 -10 -12 0 -14 -2 -15 -9 -4 -5 8
-14 10 -21 6 -9 -6 -11 -4 -5 5 6 10 4 12 -9 7 -11 -5 -15 -3 -10 5 5 8 2 9
-9 5 -10 -4 -16 -2 -14 5 1 7 -3 12 -10 13 -7 0 -17 5 -24 12 -6 6 -18 9 -27
6 -10 -4 -13 -2 -8 5 9 16 -11 25 -40 18 -15 -4 -22 -11 -18 -18 5 -8 1 -9
-12 -4 -10 4 -15 4 -11 0 9 -10 -33 -45 -46 -37 -6 4 -7 1 -2 -7 6 -10 4 -12
-8 -7 -11 4 -14 2 -11 -8 3 -8 -3 -16 -15 -20 -12 -3 -19 -10 -16 -15 8 -13
-19 -18 -32 -5 -6 7 -13 23 -15 36 -1 13 -10 30 -18 37 -13 12 -12 13 4 7 19
-6 19 -5 2 14 -13 15 -14 20 -4 24 8 3 6 6 -6 6 -14 1 -17 7 -14 30 2 17 0 29
-6 28 -5 -1 -11 7 -13 18 -3 11 -7 27 -10 35 -6 14 -8 22 -13 45 -5 23 1 37
14 32 11 -4 13 -1 9 10 -5 13 -2 15 12 10 14 -6 16 -5 6 6 -9 11 -8 17 3 27 9
6 20 9 26 5 5 -3 10 1 10 10 0 8 10 20 23 25 12 5 17 9 10 9 -6 1 -10 12 -8
26 2 20 0 23 -11 14 -11 -9 -14 -8 -14 5 0 10 -4 14 -10 11 -5 -3 -10 -1 -10
5 0 6 -4 8 -10 5 -5 -3 -10 1 -10 9 0 8 -5 18 -12 22 -7 5 -8 2 -3 -7 6 -11 5
-11 -5 -2 -9 8 -17 6 -31 -8 -10 -10 -18 -20 -16 -22 1 -2 -11 -15 -27 -30
-16 -15 -23 -27 -16 -27 9 0 7 -6 -6 -16 -10 -8 -12 -13 -4 -9 8 4 4 -3 -10
-14 -21 -18 -22 -20 -5 -15 18 5 18 4 4 -8 -9 -7 -14 -19 -11 -27 3 -8 0 -11
-6 -7 -6 3 -14 1 -18 -5 -4 -8 -3 -9 4 -5 7 4 12 1 12 -8 0 -9 -4 -16 -9 -16
-5 0 -7 -10 -3 -22 3 -12 1 -19 -5 -15 -5 3 -10 0 -10 -8 0 -8 5 -15 10 -15 5
0 4 -7 -3 -15 -8 -10 -9 -15 -2 -15 6 0 9 -7 6 -15 -4 -8 -10 -12 -15 -9 -5 3
-6 -2 -3 -10 3 -9 11 -16 18 -16 7 0 7 -3 1 -8 -12 -9 -16 -52 -4 -52 4 0 6
-12 3 -26 -3 -17 -1 -23 7 -19 8 5 7 0 -1 -15 -11 -20 -10 -22 5 -16 15 5 16
4 5 -9 -10 -12 -10 -15 3 -15 9 0 14 -7 13 -18 -2 -9 1 -20 6 -23 5 -3 10 -15
11 -26 0 -13 6 -19 14 -16 8 3 13 2 12 -3 -4 -21 2 -34 15 -34 9 0 13 -7 11
-20 -3 -18 6 -25 28 -21 5 1 6 -3 2 -9 -3 -5 0 -10 7 -10 9 0 9 -3 -2 -10 -12
-8 -11 -10 6 -10 12 0 24 -7 28 -15 3 -9 12 -12 23 -9 14 5 15 4 4 -4 -12 -9
-12 -13 -2 -26 7 -8 19 -12 28 -9 12 5 14 1 8 -18 -7 -22 -6 -23 7 -6 13 17
15 17 27 3 8 -9 20 -16 27 -16 8 0 14 -6 14 -14 0 -8 5 -18 12 -22 6 -4 8 -3
4 4 -4 7 1 10 14 9 24 -2 25 -5 3 -31 -18 -21 -18 -21 3 -4 11 10 25 18 31 18
18 0 23 -29 8 -44 -9 -9 -11 -16 -4 -18 6 -2 12 -16 13 -31 3 -22 0 -27 -12
-22 -12 4 -13 3 -3 -9 7 -8 9 -21 5 -27 -5 -9 -2 -10 9 -6 10 3 17 4 17 1 0
-2 -10 -9 -22 -14 l-23 -9 23 0 c15 -1 22 -7 22 -20 0 -10 6 -24 14 -30 12
-10 14 -8 12 13 -3 23 -1 24 18 14 19 -10 20 -10 6 7 -20 24 -20 87 0 80 8 -4
11 -3 7 1 -8 8 11 34 25 34 5 0 6 -5 2 -12 -4 -6 -7 -34 -7 -62 1 -28 -4 -57
-10 -65 -9 -11 -9 -13 -1 -8 7 4 15 0 18 -9 3 -8 2 -13 -3 -10 -5 3 -11 -1
-15 -9 -3 -8 0 -17 6 -21 7 -5 8 -2 3 6 -5 9 -4 11 4 6 9 -6 9 -11 0 -22 -9
-11 -9 -14 0 -14 7 0 9 -5 5 -12 -5 -8 -2 -9 10 -5 14 5 17 3 13 -8 -4 -8 -2
-17 3 -20 5 -3 11 4 15 15 3 11 11 20 16 20 6 0 7 4 4 10 -10 17 -14 51 -6 45
5 -3 12 2 15 11 3 8 2 12 -4 9 -6 -3 -10 0 -11 7 -1 7 -2 25 -3 41 -2 15 1 27
6 27 5 0 7 4 4 8 -11 18 -14 62 -4 62 5 0 8 -6 5 -13 -3 -8 -2 -19 2 -26 5 -7
8 0 9 18 0 22 -4 31 -16 32 -11 0 -13 2 -4 6 10 4 10 8 1 19 -7 9 -7 14 -1 14
6 0 7 13 2 35 -7 33 2 50 13 23 3 -8 6 -6 6 5 1 10 -6 17 -16 18 -11 0 -13 3
-5 6 6 2 10 8 8 12 -3 4 -7 20 -10 34 -3 19 -1 25 7 20 7 -4 6 0 -2 10 -8 11
-9 17 -2 17 7 0 8 8 0 27 -5 14 -6 29 -2 32 5 3 8 16 7 29 -1 18 3 22 20 20
15 -2 20 -9 18 -23 -2 -11 -9 -23 -14 -26 -6 -4 -5 -8 3 -11 8 -3 11 -9 7 -13
-4 -4 -15 -2 -25 6 -16 13 -16 13 -1 -10 9 -13 14 -31 11 -40 -4 -13 -3 -14 5
-1 6 8 8 18 6 22 -3 4 0 8 6 8 12 0 5 -36 -12 -57 -6 -7 -5 -14 3 -19 8 -5 10
-3 4 7 -5 8 -4 10 0 6 16 -14 14 -37 -3 -37 -11 0 -13 -3 -6 -8 16 -11 25 -67
12 -80 -14 -14 -20 -44 -7 -36 5 3 6 11 3 17 -4 7 -4 9 1 5 11 -10 12 -87 1
-80 -6 3 -6 -3 -2 -14 5 -10 9 -36 10 -56 2 -29 -1 -35 -11 -26 -18 15 -16 3
2 -16 13 -13 13 -17 1 -28 -11 -11 -11 -15 3 -25 14 -11 14 -12 -4 -13 -14 0
-16 -3 -7 -9 7 -4 12 -12 11 -17 -4 -21 2 -24 22 -14 12 7 18 18 15 26 -3 7
-2 13 2 13 4 -1 14 -1 22 0 13 1 13 2 0 11 -8 5 -10 10 -4 10 14 0 13 32 -1
42 -6 5 -4 8 5 8 13 0 13 1 0 10 -13 9 -13 11 0 20 13 9 13 10 0 10 -13 0 -13
2 -1 9 8 5 21 7 30 4 14 -4 14 -3 1 5 -8 6 -17 9 -21 6 -4 -2 -9 5 -12 16 -3
11 -1 20 3 20 4 0 6 9 3 20 -3 11 -10 20 -17 20 -8 0 -8 2 0 8 14 9 30 57 17
49 -10 -6 -9 50 1 60 3 3 1 14 -5 24 -7 13 -6 19 1 19 7 0 8 6 2 17 -6 9 -6
29 -1 46 7 25 6 28 -9 23 -16 -6 -16 -5 0 7 12 10 14 17 6 32 -9 15 -8 17 8
12 16 -6 17 -5 4 6 -29 24 -20 38 10 16 27 -21 42 -38 21 -25 -5 3 -12 -1 -15
-10 -3 -8 -2 -13 3 -10 5 3 11 -3 14 -14 3 -11 0 -23 -5 -27 -6 -3 -8 -1 -4 5
3 6 3 13 -2 16 -4 2 -8 -11 -8 -30 0 -19 4 -34 9 -34 5 0 3 -8 -4 -17 -8 -9
-9 -14 -3 -10 7 4 15 0 18 -9 3 -8 2 -13 -2 -10 -5 3 -8 -14 -7 -37 0 -23 -3
-53 -7 -66 -7 -18 -5 -22 6 -18 11 5 13 0 6 -24 -5 -17 -5 -31 1 -35 6 -4 6
-11 -2 -20 -9 -11 -8 -15 5 -20 15 -6 15 -8 -3 -20 -19 -14 -22 -37 -6 -51 4
-4 5 -2 0 6 -6 11 -3 13 14 8 18 -4 20 -3 10 9 -10 12 -9 13 6 8 11 -5 16 -3
12 2 -3 6 3 17 14 24 18 14 28 37 11 26 -5 -3 -9 1 -9 9 0 8 4 12 9 9 13 -9 9
4 -8 20 -14 15 -13 16 6 16 12 0 18 4 15 10 -4 6 -11 8 -16 5 -10 -7 -1 24 13
42 7 8 3 10 -14 7 -21 -5 -20 -3 5 11 31 18 36 27 10 19 -15 -5 -15 -4 -4 4
10 7 21 7 34 0 14 -7 17 -7 13 1 -4 6 -2 11 4 11 6 0 8 5 4 13 -5 8 -2 8 9 -2
11 -9 17 -10 17 -2 0 6 6 10 13 9 6 -2 11 2 10 8 -1 6 13 10 32 9 19 -1 34 1
33 4 0 3 0 13 1 21 1 13 2 13 12 0 9 -12 10 -11 6 8 -3 12 -2 20 3 17 4 -2 16
5 26 16 10 11 24 17 32 14 12 -4 13 -3 2 10 -10 12 -10 15 5 15 11 0 15 5 12
14 -4 10 0 13 14 11 11 -2 17 0 13 6 -3 6 2 17 12 25 11 9 14 13 7 10 -6 -4
-15 -2 -18 4 -4 6 -1 9 6 8 7 -2 13 3 14 10 0 8 8 19 17 26 10 7 19 25 20 40
2 18 7 25 17 21 11 -4 11 -3 2 9 -9 10 -9 16 -1 21 6 4 9 13 6 21 -3 7 -1 16
5 20 6 4 6 11 -2 20 -9 11 -8 14 2 14 9 0 10 3 4 8 -11 8 -15 52 -5 52 3 0 6
9 6 20 0 11 -3 20 -6 20 -3 0 -6 18 -7 40 -3 59 -5 70 -15 70 -4 0 -8 4 -8 10
0 5 8 6 17 3 15 -6 16 -5 3 9 -8 9 -18 14 -22 11 -4 -2 -5 3 -2 11 3 9 -2 23
-11 32 -9 9 -14 22 -12 28 6 14 -18 37 -29 28 -4 -4 -4 -2 -1 4 4 7 0 17 -8
24 -8 7 -15 17 -15 22 0 15 -27 38 -35 30 -5 -4 -5 1 -2 11 4 10 3 16 -2 13
-5 -3 -17 6 -27 19 -10 14 -25 25 -32 25 -7 0 -10 5 -7 10 3 6 -4 10 -17 10
-18 0 -20 2 -8 10 13 8 12 10 -2 10 -21 0 -59 30 -52 41 2 4 -5 6 -16 4 -13
-2 -20 1 -20 11 0 8 -4 12 -10 9 -5 -3 -10 -1 -10 4 0 6 -6 11 -13 11 -8 0
-19 10 -26 23 -6 12 -9 14 -6 4 4 -17 4 -17 -19 0 -13 10 -22 21 -19 26 2 4 1
6 -4 5 -4 -1 -19 2 -32 6 -19 6 -21 10 -10 18 10 7 8 8 -7 3 -15 -4 -24 0 -28
10 -3 9 -10 13 -16 10 -5 -3 -10 -1 -10 4 0 6 -4 11 -10 11 -13 0 -50 37 -43
43 3 3 -5 3 -18 0 -15 -4 -20 -3 -15 5 5 8 2 10 -8 6 -11 -4 -16 0 -16 12 0
13 -3 15 -8 7 -6 -9 -12 -7 -22 7 -8 11 -20 20 -27 20 -7 0 -13 5 -13 10 0 6
-7 10 -15 10 -8 0 -15 9 -15 21 0 11 -4 17 -10 14 -5 -3 -12 6 -16 20 -3 14
-13 25 -23 25 -14 0 -14 2 -1 10 8 5 10 10 4 10 -7 0 -12 15 -12 35 0 19 3 33
8 30 4 -2 12 7 19 21 6 15 7 23 1 19 -5 -3 -10 -2 -10 4 0 5 5 13 11 16 6 4 8
13 5 21 -3 8 1 17 9 20 8 4 12 10 9 15 -3 5 -1 9 5 9 5 0 8 9 6 21 -3 15 -1
18 8 11 9 -8 12 -3 12 20 0 19 6 33 15 35 13 4 13 3 0 -7 -12 -9 -12 -11 -1
-8 8 2 15 12 17 22 5 36 14 48 31 42 10 -4 14 -4 10 0 -4 4 -1 14 6 23 11 14
10 14 -5 2 -23 -18 -23 -10 1 17 20 24 37 30 25 10 -4 -8 -3 -10 2 -5 5 5 10
13 10 18 1 5 2 14 3 20 0 5 6 7 13 3 7 -5 9 -2 5 9 -3 9 0 18 9 21 9 4 12 2 8
-5 -4 -7 -1 -10 7 -7 16 5 39 -15 39 -35 0 -8 8 -21 18 -28 15 -13 16 -12 4 3
-9 11 -10 18 -2 23 6 4 10 3 9 -2 -3 -17 14 -53 22 -47 5 3 6 -1 3 -9 -3 -8 6
-21 21 -31 22 -15 24 -19 14 -39 -12 -21 -11 -21 6 -7 16 13 18 13 13 0 -3 -8
2 -21 11 -28 9 -8 10 -11 4 -7 -9 4 -11 1 -7 -9 3 -9 10 -14 14 -11 4 3 11 -2
14 -11 9 -23 8 -26 -6 -19 -7 4 -6 1 2 -7 22 -19 47 -53 34 -45 -7 4 -14 1
-17 -7 -3 -8 1 -13 11 -12 9 0 17 -4 17 -11 0 -6 3 -15 7 -18 4 -4 3 -16 -2
-26 -8 -13 -6 -20 7 -28 14 -8 15 -10 3 -11 -13 0 -13 -2 -1 -9 21 -14 23 -41
3 -34 -13 4 -12 2 2 -9 21 -17 29 -74 13 -96 -7 -9 -6 -11 6 -7 8 4 18 1 23
-6 4 -8 3 -10 -4 -5 -7 4 -12 4 -13 -1 -5 -55 -4 -61 13 -58 10 2 17 1 17 -3
-3 -18 2 -35 7 -29 4 3 14 -2 23 -11 9 -10 13 -13 9 -8 -14 18 -8 28 7 12 8
-8 15 -20 15 -26 0 -7 9 -9 23 -5 12 4 17 3 11 -2 -9 -6 -8 -11 2 -21 8 -7 14
-10 14 -6 0 3 6 2 13 -4 9 -8 17 -8 27 0 12 8 12 9 -3 4 -13 -4 -11 3 10 29
16 21 34 33 42 30 11 -5 12 -3 1 10 -11 13 -11 18 0 28 7 7 10 7 7 1 -3 -6 0
-11 7 -11 8 0 11 8 8 20 -3 12 2 23 12 29 13 8 15 13 5 24 -9 11 -9 14 0 14 8
0 10 8 6 23 -6 21 -6 21 9 3 19 -23 19 -22 7 22 -6 19 -6 30 0 27 5 -3 7 7 5
24 -2 17 2 32 8 35 7 3 6 5 -2 5 -10 1 -10 6 -1 22 9 17 8 20 -3 13 -11 -6
-11 -5 1 9 7 9 9 17 4 17 -5 0 -9 9 -10 20 -1 11 4 20 10 20 8 0 9 2 1 8 -6 4
-12 15 -13 25 -1 9 -2 26 -3 36 -1 11 -7 17 -12 14 -5 -4 -7 3 -4 15 4 12 2
22 -4 22 -5 0 -7 4 -4 9 4 5 1 11 -5 13 -6 2 -12 15 -12 30 -1 17 -6 23 -12
18 -7 -6 -16 0 -25 13 -12 21 -12 21 5 7 17 -14 17 -14 5 7 -8 12 -17 20 -21
17 -4 -2 -10 8 -14 23 -5 22 -8 24 -17 12 -7 -11 -9 -9 -5 8 3 12 2 22 -2 21
-20 -2 -31 4 -31 19 0 9 -3 14 -6 10 -5 -5 -35 16 -76 56 -12 11 -18 13 -18 5
0 -7 -5 -5 -11 5 -6 9 -14 15 -20 12 -5 -4 -9 -1 -9 5 0 6 -4 8 -10 5 -5 -3
-10 2 -11 12 0 11 -3 13 -6 5 -4 -10 -9 -9 -20 5 -8 10 -11 11 -7 3 7 -12 5
-13 -8 -3 -8 7 -18 10 -21 6 -4 -3 -7 0 -7 7 0 7 -3 10 -7 7 -3 -4 -13 -1 -21
6 -9 6 -13 7 -9 1 3 -6 0 -11 -8 -11 -8 0 -12 4 -9 8 2 4 0 10 -6 14 -5 3 -10
2 -10 -3 0 -5 -10 -8 -22 -6 -13 1 -23 3 -23 4 0 1 -17 3 -37 4 -21 1 -38 -1
-38 -6 0 -5 -9 -4 -20 2 -14 8 -20 8 -20 0 0 -6 -5 -8 -11 -5 -18 12 -59 13
-52 2z m407 -1073 c3 -8 2 -12 -4 -9 -6 3 -10 10 -10 16 0 14 7 11 14 -7z
m-60 -233 c3 -5 -2 -15 -12 -22 -15 -12 -16 -12 -5 2 7 9 10 19 6 22 -3 4 -4
7 0 7 3 0 8 -4 11 -9z m-312 -355 c3 2 8 -3 12 -12 5 -12 2 -15 -10 -10 -10 4
-14 2 -11 -6 2 -7 10 -12 16 -10 7 1 9 -3 6 -9 -10 -15 -9 -194 1 -210 5 -9 2
-11 -9 -6 -12 4 -14 1 -10 -16 2 -12 7 -32 10 -45 6 -24 -21 -63 -41 -61 -6 0
-5 3 2 6 10 4 9 10 -5 26 -10 12 -12 17 -4 12 11 -6 13 -4 7 10 -5 14 -4 16 7
7 10 -9 14 -8 14 3 0 8 -5 15 -11 15 -12 0 -13 243 -1 295 5 23 4 26 -4 15 -6
-8 -11 -10 -11 -4 0 20 14 25 26 10 6 -9 13 -13 16 -10z m212 -18 c-3 -4 -10
-5 -16 -2 -6 4 -8 1 -6 -7 3 -8 12 -13 19 -11 11 3 11 1 2 -9 -10 -10 -17 -9
-33 9 -24 26 -26 36 -4 28 11 -4 15 -2 11 8 -3 8 -3 17 1 21 9 8 33 -25 26
-37z m-464 -174 c0 -8 -19 -13 -24 -6 -3 5 1 9 9 9 8 0 15 -2 15 -3z m690 -28
c0 -3 -4 -8 -10 -11 -5 -3 -10 -1 -10 4 0 6 5 11 10 11 6 0 10 -2 10 -4z"/>
<path d="M1200 580 c-9 -6 -10 -10 -3 -10 6 0 15 5 18 10 8 12 4 12 -15 0z"/>
<path d="M1199 558 c-5 -18 -6 -38 -1 -34 7 8 12 36 6 36 -2 0 -4 -1 -5 -2z"/>
<path d="M1316 1941 c-3 -4 -17 -6 -31 -3 -18 3 -25 0 -25 -12 0 -9 -7 -16
-15 -16 -13 0 -20 -18 -16 -42 0 -4 -7 -5 -17 -1 -13 5 -14 3 -5 -7 6 -7 9
-19 6 -28 -5 -11 -3 -13 8 -7 12 8 12 6 0 -8 -11 -14 -11 -18 3 -23 9 -3 13
-10 10 -15 -3 -5 -11 -6 -17 -2 -7 4 -6 0 2 -10 15 -18 26 -23 16 -7 -3 6 1
10 9 10 10 0 13 -6 10 -15 -5 -11 -2 -13 12 -8 13 5 15 3 9 -7 -6 -10 -4 -11
6 -4 8 5 22 7 33 5 10 -1 15 2 12 7 -4 6 2 8 14 5 11 -3 17 -9 14 -14 -3 -5 2
-6 11 -2 13 5 14 7 3 14 -11 7 -10 11 2 18 8 5 18 7 22 5 4 -3 5 1 2 9 -3 8 0
18 6 22 8 5 7 11 -2 23 -10 12 -10 14 0 8 6 -4 12 -3 12 1 0 5 -6 15 -12 22
-8 9 -9 12 -1 7 8 -4 8 0 0 19 -7 14 -18 25 -25 25 -7 0 -10 5 -6 12 4 6 3 8
-4 4 -6 -3 -17 1 -26 9 -8 8 -17 11 -20 6z"/>
<path d="M1310 1718 c0 -4 4 -8 9 -8 6 0 12 4 15 8 3 5 -1 9 -9 9 -8 0 -15 -4
-15 -9z"/>
<path d="M1781 1587 c-13 -21 -12 -21 5 -5 10 10 16 20 13 22 -3 3 -11 -5 -18
-17z"/>
<path d="M866 1555 c4 -8 11 -15 16 -15 6 0 5 6 -2 15 -7 8 -14 15 -16 15 -2
0 -1 -7 2 -15z"/>
<path d="M1610 1271 c0 -5 7 -12 16 -15 14 -5 15 -4 4 9 -14 17 -20 19 -20 6z"/>
<path d="M915 1200 c-3 -5 -1 -10 4 -10 6 0 11 5 11 10 0 6 -2 10 -4 10 -3 0
-8 -4 -11 -10z"/>
<path d="M1673 1195 c0 -8 4 -12 9 -9 5 3 6 10 3 15 -9 13 -12 11 -12 -6z"/>
<path d="M1825 741 c-6 -11 13 -26 22 -17 4 3 0 6 -8 6 -11 0 -11 2 1 10 9 6
10 10 3 10 -6 0 -14 -4 -18 -9z"/>
<path d="M1310 715 c0 -8 2 -15 4 -15 2 0 6 7 10 15 3 8 1 15 -4 15 -6 0 -10
-7 -10 -15z"/>
<path d="M807 699 c7 -7 15 -10 18 -7 3 3 -2 9 -12 12 -14 6 -15 5 -6 -5z"/>
<path d="M1390 406 c0 -2 7 -7 16 -10 8 -3 12 -2 9 4 -6 10 -25 14 -25 6z"/>
<path d="M1200 340 c-9 -6 -10 -10 -3 -10 6 0 15 5 18 10 8 12 4 12 -15 0z"/>
<path d="M1310 319 c0 -5 5 -7 10 -4 6 3 10 8 10 11 0 2 -4 4 -10 4 -5 0 -10
-5 -10 -11z"/>
<path d="M1293 295 c0 -8 4 -12 9 -9 5 3 6 10 3 15 -9 13 -12 11 -12 -6z"/>
<path d="M1286 161 c-3 -5 0 -11 7 -14 8 -3 14 1 14 9 0 16 -13 19 -21 5z"/>
</g>
</svg>
