<?xml version="1.0" encoding="UTF-8"?>
<svg width="22px" height="23px" viewBox="0 0 22 23" version="1.1" xmlns="http://www.w3.org/2000/svg" xmlns:xlink="http://www.w3.org/1999/xlink">
    <title>DF49537D-815A-4CEC-8046-6DC1DAFA0DB9</title>
    <g id="Page-1" stroke="none" stroke-width="1" fill="none" fill-rule="evenodd">
        <g id="Alt-Home" transform="translate(-784.000000, -579.000000)" fill="#1589C6" fill-rule="nonzero">
            <path d="M795,601.375 C796.518229,601.375 797.943359,601.084961 799.275391,600.504883 C800.607422,599.924805 801.771159,599.137044 802.766602,598.141602 C803.762044,597.146159 804.549805,595.982422 805.129883,594.650391 C805.709961,593.318359 806,591.893229 806,590.375 C806,588.856771 805.709961,587.431641 805.129883,586.099609 C804.549805,584.767578 803.762044,583.603841 802.766602,582.608398 C801.771159,581.612956 800.607422,580.825195 799.275391,580.245117 C797.943359,579.665039 796.518229,579.375 795,579.375 C794.255208,579.375 793.52474,579.450195 792.808594,579.600586 C792.092448,579.750977 791.412109,579.96224 790.767578,580.234375 C790.738932,580.234375 790.713867,580.241536 790.692383,580.255859 C790.670898,580.270182 790.652995,580.284505 790.638672,580.298828 C789.664714,580.714193 788.769531,581.262044 787.953125,581.942383 C787.136719,582.622721 786.438477,583.39974 785.858398,584.273438 C785.27832,585.147135 784.823568,586.099609 784.494141,587.130859 C784.164714,588.162109 784,589.24349 784,590.375 C784,591.893229 784.290039,593.318359 784.870117,594.650391 C785.450195,595.982422 786.237956,597.146159 787.233398,598.141602 C788.228841,599.137044 789.392578,599.924805 790.724609,600.504883 C792.056641,601.084961 793.481771,601.375 795,601.375 Z M795.880859,587.087891 C795.451172,586.314453 795.05013,585.616211 794.677734,584.993164 C794.305339,584.370117 793.961589,583.818685 793.646484,583.338867 C793.33138,582.859049 793.044922,582.440104 792.787109,582.082031 C792.529297,581.723958 792.307292,581.430339 792.121094,581.201172 C792.579427,581.057943 793.048503,580.94694 793.52832,580.868164 C794.008138,580.789388 794.498698,580.75 795,580.75 C796.160156,580.75 797.263021,580.94694 798.308594,581.34082 C799.354167,581.734701 800.299479,582.275391 801.144531,582.962891 C800.972656,583.349609 800.525065,583.958333 799.801758,584.789062 C799.078451,585.619792 797.771484,586.386068 795.880859,587.087891 Z M786.857422,588.634766 C786.284505,588.620443 785.847656,588.598958 785.546875,588.570312 C785.690104,587.811198 785.919271,587.091471 786.234375,586.411133 C786.549479,585.730794 786.932617,585.097005 787.383789,584.509766 C787.834961,583.922526 788.347005,583.392578 788.919922,582.919922 C789.492839,582.447266 790.115885,582.053385 790.789062,581.738281 C791.075521,582.082031 791.548177,582.722982 792.207031,583.661133 C792.865885,584.599284 793.646484,585.891927 794.548828,587.539062 C793.474609,587.86849 792.457682,588.111979 791.498047,588.269531 C790.538411,588.427083 789.668294,588.530924 788.887695,588.581055 C788.107096,588.631185 787.430339,588.649089 786.857422,588.634766 Z M804.603516,590.611328 C804.345703,590.539714 803.98763,590.460938 803.529297,590.375 C803.070964,590.289062 802.541016,590.22819 801.939453,590.192383 C801.337891,590.156576 800.668294,590.156576 799.930664,590.192383 C799.193034,590.22819 798.416016,590.339193 797.599609,590.525391 C797.45638,590.195964 797.302409,589.859375 797.137695,589.515625 C796.972982,589.171875 796.797526,588.828125 796.611328,588.484375 C796.597005,588.455729 796.582682,588.427083 796.568359,588.398438 C796.554036,588.369792 796.539714,588.341146 796.525391,588.3125 C797.413411,587.96875 798.176107,587.603516 798.813477,587.216797 C799.450846,586.830078 799.991536,586.443359 800.435547,586.056641 C800.879557,585.669922 801.241211,585.297526 801.520508,584.939453 C801.799805,584.58138 802.018229,584.259115 802.175781,583.972656 C802.548177,584.402344 802.888346,584.860677 803.196289,585.347656 C803.504232,585.834635 803.762044,586.35026 803.969727,586.894531 C804.177409,587.438802 804.338542,588.000977 804.453125,588.581055 C804.567708,589.161133 804.625,589.759115 804.625,590.375 L804.625,590.493164 L804.625,590.493164 C804.625,590.528971 804.617839,590.568359 804.603516,590.611328 Z M788.039062,596.992188 C787.623698,596.5625 787.251302,596.097005 786.921875,595.595703 C786.592448,595.094401 786.313151,594.564453 786.083984,594.005859 C785.854818,593.447266 785.679362,592.863607 785.557617,592.254883 C785.435872,591.646159 785.375,591.019531 785.375,590.375 C785.375,590.303385 785.378581,590.231771 785.385742,590.160156 C785.392904,590.088542 785.396484,590.009766 785.396484,589.923828 C785.597005,589.952474 785.858398,589.977539 786.180664,589.999023 C786.50293,590.020508 786.871745,590.03125 787.287109,590.03125 C787.759766,590.03125 788.286133,590.013346 788.866211,589.977539 C789.446289,589.941732 790.069336,589.877279 790.735352,589.78418 C791.401367,589.691081 792.110352,589.562174 792.862305,589.397461 C793.614258,589.232747 794.398438,589.021484 795.214844,588.763672 L795.300781,588.935547 L795.300781,588.935547 C795.329427,588.992839 795.365234,589.057292 795.408203,589.128906 C795.551432,589.415365 795.694661,589.708984 795.837891,590.009766 C795.98112,590.310547 796.117188,590.604167 796.246094,590.890625 C795.959635,590.976562 795.666016,591.076823 795.365234,591.191406 C795.064453,591.30599 794.75651,591.434896 794.441406,591.578125 C793.467448,592.022135 792.615234,592.501953 791.884766,593.017578 C791.154297,593.533203 790.53125,594.038086 790.015625,594.532227 C789.5,595.026367 789.081055,595.491862 788.758789,595.928711 C788.436523,596.36556 788.196615,596.720052 788.039062,596.992188 Z M799.984375,598.603516 C799.927083,598.274089 799.855469,597.873047 799.769531,597.400391 C799.683594,596.927734 799.56543,596.404948 799.415039,595.832031 C799.264648,595.259115 799.085612,594.632487 798.87793,593.952148 C798.670247,593.27181 798.423177,592.559245 798.136719,591.814453 C798.924479,591.656901 799.669271,591.570964 800.371094,591.556641 C801.072917,591.542318 801.703125,591.560221 802.261719,591.610352 C802.820312,591.660482 803.289388,591.724935 803.668945,591.803711 C804.048503,591.882487 804.317057,591.943359 804.474609,591.986328 C804.360026,592.688151 804.170247,593.361328 803.905273,594.005859 C803.640299,594.650391 803.314453,595.255534 802.927734,595.821289 C802.541016,596.387044 802.097005,596.902669 801.595703,597.368164 C801.094401,597.833659 800.557292,598.245443 799.984375,598.603516 Z M795,600 C793.882812,600 792.819336,599.817383 791.80957,599.452148 C790.799805,599.086914 789.886719,598.582031 789.070312,597.9375 C789.15625,597.779948 789.328125,597.507812 789.585938,597.121094 C789.84375,596.734375 790.208984,596.297526 790.681641,595.810547 C791.154297,595.323568 791.745117,594.818685 792.454102,594.295898 C793.163086,593.773112 794.01888,593.282552 795.021484,592.824219 C795.322266,592.68099 795.619466,592.555664 795.913086,592.448242 C796.206706,592.34082 796.496745,592.244141 796.783203,592.158203 C797.11263,592.988932 797.388346,593.776693 797.610352,594.521484 C797.832357,595.266276 798.018555,595.946615 798.168945,596.5625 C798.319336,597.178385 798.433919,597.715495 798.512695,598.173828 C798.591471,598.632161 798.645182,598.997396 798.673828,599.269531 C798.115234,599.498698 797.524414,599.677734 796.901367,599.806641 C796.27832,599.935547 795.644531,600 795,600 Z" id="î€"></path>
        </g>
    </g>
</svg>