<?xml version="1.0" encoding="UTF-8"?>
<svg width="22px" height="21px" viewBox="0 0 22 21" version="1.1" xmlns="http://www.w3.org/2000/svg" xmlns:xlink="http://www.w3.org/1999/xlink">
    <title>B4F125A7-B3AE-484E-BAD7-EE2657C2D7EB</title>
    <g id="Page-1" stroke="none" stroke-width="1" fill="none" fill-rule="evenodd">
        <g id="Alt-Home" transform="translate(-605.000000, -580.000000)" fill="#1589C6" fill-rule="nonzero">
            <path d="M607.792969,596.648438 C607.821615,596.648438 607.85026,596.644857 607.878906,596.637695 C607.907552,596.630534 607.921875,596.626953 607.921875,596.626953 L607.943359,596.626953 L607.943359,596.626953 C608.38737,596.555339 608.863607,596.397786 609.37207,596.154297 C609.880534,595.910807 610.363932,595.638672 610.822266,595.337891 C611.280599,595.037109 611.67806,594.750651 612.014648,594.478516 C612.351237,594.20638 612.569661,594.013021 612.669922,593.898438 C612.870443,593.927083 613.045898,593.944987 613.196289,593.952148 C613.34668,593.95931 613.500651,593.962891 613.658203,593.962891 L614.130859,593.962891 L614.130859,593.962891 C615.36263,593.962891 616.515625,593.794596 617.589844,593.458008 C618.664062,593.121419 619.595052,592.645182 620.382812,592.029297 C621.170573,591.413411 621.786458,590.672201 622.230469,589.805664 C622.674479,588.939128 622.889323,587.983073 622.875,586.9375 C622.875,586.00651 622.642253,585.132812 622.176758,584.316406 C621.711263,583.5 621.077474,582.791016 620.275391,582.189453 C619.473307,581.587891 618.531576,581.111654 617.450195,580.760742 C616.368815,580.409831 615.21224,580.234375 613.980469,580.234375 C612.734375,580.234375 611.567057,580.409831 610.478516,580.760742 C609.389974,581.111654 608.4375,581.587891 607.621094,582.189453 C606.804688,582.791016 606.163737,583.5 605.698242,584.316406 C605.232747,585.132812 605,586.00651 605,586.9375 C605,587.510417 605.071615,588.090495 605.214844,588.677734 C605.358073,589.264974 605.572917,589.823568 605.859375,590.353516 C606.145833,590.883464 606.511068,591.370443 606.955078,591.814453 C607.399089,592.258464 607.914714,592.630859 608.501953,592.931641 L608.501953,592.974609 L608.501953,592.974609 C608.501953,593.475911 608.347982,594.023763 608.040039,594.618164 C607.732096,595.212565 607.492188,595.652995 607.320312,595.939453 L607.341797,595.939453 C607.327474,595.968099 607.316732,595.996745 607.30957,596.025391 C607.302409,596.054036 607.298828,596.089844 607.298828,596.132812 C607.298828,596.276042 607.345378,596.397786 607.438477,596.498047 C607.531576,596.598307 607.64974,596.648438 607.792969,596.648438 Z M609.361328,594.671875 C609.604818,594.013021 609.740885,593.558268 609.769531,593.307617 C609.798177,593.056966 609.8125,592.931641 609.8125,592.931641 L609.876953,592.09375 L609.125,591.707031 C608.179688,591.220052 607.485026,590.525391 607.041016,589.623047 C606.597005,588.720703 606.375,587.825521 606.375,586.9375 C606.375,586.192708 606.57194,585.498047 606.96582,584.853516 C607.359701,584.208984 607.903971,583.64681 608.598633,583.166992 C609.293294,582.687174 610.102539,582.307617 611.026367,582.02832 C611.950195,581.749023 612.934896,581.609375 613.980469,581.609375 C615.026042,581.609375 616.007161,581.749023 616.923828,582.02832 C617.840495,582.307617 618.635417,582.687174 619.308594,583.166992 C619.981771,583.64681 620.515299,584.208984 620.90918,584.853516 C621.30306,585.498047 621.5,586.192708 621.5,586.9375 C621.5,587.753906 621.313802,588.50944 620.941406,589.204102 C620.56901,589.898763 620.056966,590.500326 619.405273,591.008789 C618.753581,591.517253 617.980143,591.911133 617.084961,592.19043 C616.189779,592.469727 615.219401,592.609375 614.173828,592.609375 L613.765625,592.609375 L613.765625,592.609375 C613.49349,592.609375 613.192708,592.587891 612.863281,592.544922 L612.111328,592.480469 L611.230469,593.210938 C611.130208,593.339844 610.890299,593.558268 610.510742,593.866211 C610.131185,594.174154 609.748047,594.442708 609.361328,594.671875 Z M624.335938,600.515625 C624.464844,600.515625 624.572266,600.472656 624.658203,600.386719 C624.744141,600.300781 624.787109,600.193359 624.787109,600.064453 C624.787109,600.035807 624.783529,600.007161 624.776367,599.978516 C624.769206,599.94987 624.758464,599.921224 624.744141,599.892578 C624.600911,599.649089 624.443359,599.233724 624.271484,598.646484 C624.099609,598.059245 624.013672,597.54362 624.013672,597.099609 L624.013672,597.056641 L624.013672,597.056641 C625.030599,596.541016 625.782552,595.900065 626.269531,595.133789 C626.75651,594.367513 627,593.483073 627,592.480469 C627,591.549479 626.80306,590.725911 626.40918,590.009766 C626.015299,589.29362 625.367188,588.670573 624.464844,588.140625 C624.436198,588.384115 624.389648,588.634766 624.325195,588.892578 C624.260742,589.150391 624.192708,589.39388 624.121094,589.623047 C624.708333,590.038411 625.105794,590.468099 625.313477,590.912109 C625.521159,591.35612 625.625,591.878906 625.625,592.480469 C625.625,593.22526 625.445964,593.873372 625.087891,594.424805 C624.729818,594.976237 624.142578,595.459635 623.326172,595.875 L622.660156,596.197266 C622.660156,596.197266 622.674479,596.51237 622.703125,597.142578 C622.731771,597.772786 622.77474,598.195312 622.832031,598.410156 C622.158854,597.923177 621.689779,597.500651 621.424805,597.142578 C621.159831,596.784505 621.027344,596.605469 621.027344,596.605469 L620.296875,596.712891 C620.153646,596.741536 619.942383,596.755859 619.663086,596.755859 L619.244141,596.755859 L619.244141,596.755859 C618.313151,596.755859 617.489583,596.644857 616.773438,596.422852 C616.057292,596.200846 615.405599,595.860677 614.818359,595.402344 C614.975911,595.388021 614.693034,595.380859 613.969727,595.380859 C613.246419,595.380859 612.870443,595.395182 612.841797,595.423828 C613.185547,595.839193 613.579427,596.215169 614.023438,596.551758 C614.467448,596.888346 614.961589,597.174805 615.505859,597.411133 C616.05013,597.647461 616.633789,597.826497 617.256836,597.948242 C617.879883,598.069987 618.542318,598.130859 619.244141,598.130859 L619.652344,598.130859 L619.652344,598.130859 C619.795573,598.130859 619.931641,598.127279 620.060547,598.120117 C620.189453,598.112956 620.339844,598.102214 620.511719,598.087891 C620.669271,598.288411 621.134766,598.710938 621.908203,599.355469 C622.681641,600 623.447917,600.386719 624.207031,600.515625 L624.335938,600.515625 L624.335938,600.515625 Z" id="îŠ"></path>
        </g>
    </g>
</svg>