<?xml version="1.0" encoding="UTF-8"?>
<svg width="22px" height="23px" viewBox="0 0 22 23" version="1.1" xmlns="http://www.w3.org/2000/svg" xmlns:xlink="http://www.w3.org/1999/xlink">
    <title>C6F1F5BC-BA74-4E8A-ADFD-39ECED2F42BB</title>
    <g id="Page-1" stroke="none" stroke-width="1" fill="none" fill-rule="evenodd">
        <g id="Alt-Home" transform="translate(-977.000000, -579.000000)" fill="#1589C6" fill-rule="nonzero">
            <path d="M987.914062,601.375 C987.985677,601.375 988.057292,601.357096 988.128906,601.321289 C988.200521,601.285482 988.264974,601.231771 988.322266,601.160156 L998.806641,586.894531 C998.906901,586.736979 998.967773,586.54362 998.989258,586.314453 C999.010742,586.085286 998.978516,585.884766 998.892578,585.712891 L995.884766,579.976562 C995.798828,579.804688 995.655599,579.661458 995.455078,579.546875 C995.254557,579.432292 995.061198,579.375 994.875,579.375 L981.125,579.375 C980.938802,579.375 980.745443,579.432292 980.544922,579.546875 C980.344401,579.661458 980.201172,579.804688 980.115234,579.976562 L977.107422,585.605469 C977.021484,585.777344 976.985677,585.977865 977,586.207031 C977.014323,586.436198 977.078776,586.622396 977.193359,586.765625 L987.505859,601.160156 C987.563151,601.231771 987.627604,601.285482 987.699219,601.321289 C987.770833,601.357096 987.842448,601.375 987.914062,601.375 Z M992.404297,584.681641 L989.353516,580.75 L993.779297,580.75 L992.404297,584.681641 Z M983.746094,584.896484 L982.371094,580.75 L986.646484,580.75 L983.746094,584.896484 Z M982.521484,585.5625 L978.697266,585.5625 L981.039062,581.136719 L982.521484,585.5625 Z M991.351562,585.5625 L984.970703,585.5625 L987.978516,581.222656 L991.351562,585.5625 Z M997.238281,585.5625 L993.564453,585.5625 L995.046875,581.330078 L997.238281,585.5625 Z M987.935547,597.507812 L984.412109,586.9375 L991.630859,586.9375 L987.935547,597.507812 Z M986.388672,597.228516 L978.998047,586.9375 L982.972656,586.9375 L986.388672,597.228516 Z M989.482422,597.25 L993.091797,586.9375 L997.066406,586.9375 L989.482422,597.25 Z" id="îƒ"></path>
        </g>
    </g>
</svg>