<?xml version="1.0" encoding="UTF-8"?>
<svg width="22px" height="23px" viewBox="0 0 22 23" version="1.1" xmlns="http://www.w3.org/2000/svg" xmlns:xlink="http://www.w3.org/1999/xlink">
    <title>0F28C451-0999-47C5-B04C-5399E7A15FDE</title>
    <g id="Page-1" stroke="none" stroke-width="1" fill="none" fill-rule="evenodd">
        <g id="Alt-Home" transform="translate(-428.000000, -579.000000)" fill="#1589C6" fill-rule="nonzero">
            <path d="M448.839844,597.9375 C449.154948,597.9375 449.427083,597.826497 449.65625,597.604492 C449.885417,597.382487 450,597.106771 450,596.777344 L450,595.058594 C450,594.714844 449.806641,594.435547 449.419922,594.220703 C449.033203,594.005859 448.839844,593.898438 448.839844,593.898438 L444.457031,591.492188 C445.259115,590.861979 445.810547,590.020508 446.111328,588.967773 C446.412109,587.915039 446.5625,587.044922 446.5625,586.357422 L446.5625,583.457031 C446.5625,582.970052 446.412109,582.483073 446.111328,581.996094 C445.810547,581.509115 445.416667,581.072266 444.929688,580.685547 C444.442708,580.298828 443.887695,579.980143 443.264648,579.729492 C442.641602,579.478841 442.007812,579.353516 441.363281,579.353516 C440.532552,579.353516 439.723307,579.554036 438.935547,579.955078 C438.147786,580.35612 437.503255,580.85026 437.001953,581.4375 C437.288411,581.451823 437.582031,581.466146 437.882812,581.480469 C438.183594,581.494792 438.470052,581.544922 438.742188,581.630859 C439.10026,581.358724 439.504883,581.14388 439.956055,580.986328 C440.407227,580.828776 440.876302,580.75 441.363281,580.75 C442.365885,580.75 443.253906,581.072266 444.027344,581.716797 C444.800781,582.361328 445.1875,582.941406 445.1875,583.457031 L445.1875,586.357422 C445.1875,586.88737 445.069336,587.578451 444.833008,588.430664 C444.59668,589.282878 444.184896,589.945312 443.597656,590.417969 C443.411458,590.561198 443.27181,590.740234 443.178711,590.955078 C443.085612,591.169922 443.053385,591.391927 443.082031,591.621094 C443.096354,591.85026 443.167969,592.061523 443.296875,592.254883 C443.425781,592.448242 443.590495,592.602214 443.791016,592.716797 L448.173828,595.101562 C448.202474,595.115885 448.227539,595.126628 448.249023,595.133789 C448.270508,595.140951 448.288411,595.151693 448.302734,595.166016 C448.360026,595.180339 448.417318,595.205404 448.474609,595.241211 C448.531901,595.277018 448.582031,595.309245 448.625,595.337891 L448.625,596.5625 L445.853516,596.5625 C446.054036,596.720052 446.200846,596.913411 446.293945,597.142578 C446.387044,597.371745 446.476562,597.636719 446.5625,597.9375 L448.839844,597.9375 Z M444.027344,601.375 C444.342448,601.375 444.614583,601.263997 444.84375,601.041992 C445.072917,600.819987 445.1875,600.544271 445.1875,600.214844 L445.1875,598.474609 C445.1875,598.130859 444.994141,597.851562 444.607422,597.636719 C444.306641,597.469618 444.12283,597.367501 444.05599,597.330367 L444.027344,597.314453 L444.027344,597.314453 L439.708984,594.929688 C440.511068,594.285156 441.051758,593.440104 441.331055,592.394531 C441.610352,591.348958 441.75,590.47526 441.75,589.773438 L441.75,586.873047 C441.75,586.386068 441.60319,585.902669 441.30957,585.422852 C441.015951,584.943034 440.629232,584.509766 440.149414,584.123047 C439.669596,583.736328 439.121745,583.421224 438.505859,583.177734 C437.889974,582.934245 437.259766,582.8125 436.615234,582.8125 C435.985026,582.8125 435.358398,582.934245 434.735352,583.177734 C434.112305,583.421224 433.557292,583.736328 433.070312,584.123047 C432.583333,584.509766 432.189453,584.943034 431.888672,585.422852 C431.587891,585.902669 431.4375,586.386068 431.4375,586.873047 L431.4375,589.773438 C431.4375,590.403646 431.595052,591.255859 431.910156,592.330078 C432.22526,593.404297 432.791016,594.263672 433.607422,594.908203 L429.160156,597.314453 C429.160156,597.314453 428.966797,597.429036 428.580078,597.658203 C428.193359,597.88737 428,598.159505 428,598.474609 L428,600.214844 C428,600.544271 428.114583,600.819987 428.34375,601.041992 C428.572917,601.263997 428.845052,601.375 429.160156,601.375 L444.027344,601.375 Z M443.8125,600 L429.375,600 L429.375,598.775391 C429.417969,598.746745 429.47168,598.710938 429.536133,598.667969 C429.600586,598.625 429.661458,598.596354 429.71875,598.582031 C429.733073,598.567708 429.747396,598.556966 429.761719,598.549805 C429.776042,598.542643 429.790365,598.539062 429.804688,598.539062 L434.251953,596.111328 C434.452474,596.011068 434.617188,595.864258 434.746094,595.670898 C434.875,595.477539 434.946615,595.266276 434.960938,595.037109 C434.989583,594.807943 434.957357,594.585938 434.864258,594.371094 C434.771159,594.15625 434.638672,593.977214 434.466797,593.833984 C433.879557,593.375651 433.457031,592.720378 433.199219,591.868164 C432.941406,591.015951 432.8125,590.317708 432.8125,589.773438 L432.8125,586.873047 C432.8125,586.371745 433.202799,585.798828 433.983398,585.154297 C434.763997,584.509766 435.641276,584.1875 436.615234,584.1875 C437.617839,584.1875 438.495117,584.509766 439.24707,585.154297 C439.999023,585.798828 440.375,586.371745 440.375,586.873047 L440.375,589.773438 C440.375,590.317708 440.267578,591.015951 440.052734,591.868164 C439.837891,592.720378 439.436849,593.375651 438.849609,593.833984 C438.663411,593.977214 438.523763,594.15625 438.430664,594.371094 C438.337565,594.585938 438.305339,594.807943 438.333984,595.037109 C438.348307,595.266276 438.419922,595.477539 438.548828,595.670898 C438.677734,595.864258 438.842448,596.018229 439.042969,596.132812 L443.361328,598.517578 C443.389974,598.531901 443.415039,598.546224 443.436523,598.560547 C443.458008,598.57487 443.475911,598.582031 443.490234,598.582031 L443.662109,598.667969 L443.662109,598.667969 C443.719401,598.696615 443.769531,598.732422 443.8125,598.775391 L443.8125,600 Z" id="î€"></path>
        </g>
    </g>
</svg>